<svg width="485" height="465" viewBox="0 0 485 465" fill="none" xmlns="http://www.w3.org/2000/svg">
<g clip-path="url(#clip0_138_2)">
<path d="M446.08 379.89C444.31 382.68 442.47 385.41 440.55 388.08C415.04 423.6 373.49 447.3 333.44 457.47C315.9 461.94 297.95 464.04 280.08 464.24C162.89 465.45 122.4 367.64 85.3298 341.72C48.2598 315.81 -8.52022 271.72 1.07978 182.46C8.35978 114.59 48.6798 50.5599 120 22.7999C127.86 19.7299 136.09 17.1099 144.7 14.9799C160.72 11.0099 178.02 8.70989 196.61 8.36989C250.01 7.37989 292.98 21.3899 334.5 54.9199C344.15 62.7199 353.72 71.4699 366.48 72.7399C375.75 73.6599 384.64 70.5499 375.17 61.2999C364.03 50.4299 377.74 29.9899 406.33 45.1899C454.08 70.5699 472.63 123.13 480.63 176.29C490.45 241.54 482.76 322.17 446.07 379.91L446.08 379.89Z" fill="#388500"/>
<path opacity="0.7" d="M446.08 379.89C444.31 382.68 442.47 385.41 440.55 388.08C415.04 423.6 373.49 447.3 333.44 457.47C315.9 461.94 297.95 464.04 280.08 464.24C162.89 465.45 122.4 367.64 85.3298 341.72C48.2598 315.81 -8.52022 271.72 1.07978 182.46C8.35978 114.59 48.6798 50.5599 120 22.7999C127.86 19.7299 136.09 17.1099 144.7 14.9799C160.72 11.0099 178.02 8.70989 196.61 8.36989C250.01 7.37989 292.98 21.3899 334.5 54.9199C344.15 62.7199 353.72 71.4699 366.48 72.7399C375.75 73.6599 384.64 70.5499 375.17 61.2999C364.03 50.4299 377.74 29.9899 406.33 45.1899C454.08 70.5699 472.63 123.13 480.63 176.29C490.45 241.54 482.76 322.17 446.07 379.91L446.08 379.89Z" fill="white"/>
<path d="M483.65 387.37H4.29004" stroke="#263238" stroke-miterlimit="10"/>
<path d="M81.77 0.5V182.43H221.06V0.5H81.77ZM213.47 172.52H89.36V10.41H213.47V172.51V172.52Z" stroke="#263238" stroke-miterlimit="10"/>
<path d="M145.12 172.52C152.97 167.02 161.26 161.39 169.69 155.71C184.42 145.77 199.56 135.71 213.47 126" stroke="#263238" stroke-miterlimit="10"/>
<path d="M213.47 70.7401C205.31 74.0801 196.86 78.0501 188.46 82.2401C166.91 92.9901 145.66 105.28 130.5 112.68C113.42 121.03 104.07 123.16 110.7 109.91C112.2 106.9 114.31 103.8 116.91 100.63C124.51 91.3801 136.39 81.5301 150.22 71.8501C169.64 58.2501 192.9 44.9801 213.48 34.0801" stroke="#263238" stroke-miterlimit="10"/>
<path d="M213.47 17.8799C193.68 25.2699 168.59 37.8799 138.61 59.2499C137.32 60.1699 136.06 61.0899 134.81 62.0099C122.03 71.4499 111.92 80.7499 103.79 89.7899C98.0599 96.1499 93.3299 102.39 89.3599 108.44" stroke="#263238" stroke-miterlimit="10"/>
<path d="M89.3599 58.4799C93.8199 54.2899 98.5499 49.9999 103.55 45.6099C106.67 42.8699 109.65 40.2399 112.46 37.7399C125.11 26.4899 134.79 17.5499 142.21 10.4099" stroke="#263238" stroke-miterlimit="10"/>
<path d="M89.3599 153.73C106.27 140.03 123.94 128.04 120.43 141.07C117.92 150.36 109.58 161.89 100.31 172.52" stroke="#263238" stroke-miterlimit="10"/>
<path d="M98.0801 10.4099C101.21 18.2999 105.85 28.0299 112.46 37.7399C118.27 46.2799 125.62 54.7999 134.81 62.0199C139.46 65.6899 144.58 69.0099 150.21 71.8399C152.33 72.9199 154.52 73.9199 156.79 74.8399C165.85 78.5099 176.71 80.8599 188.45 82.2499C196.47 83.1999 204.91 83.7099 213.46 83.8499" stroke="#263238" stroke-miterlimit="10"/>
<path d="M180.72 172.52C179.51 170.55 178.24 168.51 176.92 166.4C174.67 162.81 172.26 159.25 169.68 155.71C158.63 140.52 144.83 125.93 130.49 112.68C126 108.51 121.44 104.49 116.9 100.62C112.49 96.8599 108.1 93.2499 103.79 89.7999C98.8399 85.8499 93.9999 82.1299 89.3599 78.6499" stroke="#263238" stroke-miterlimit="10"/>
<path d="M141.29 43.09C146.007 43.09 149.83 39.2665 149.83 34.55C149.83 29.8335 146.007 26.01 141.29 26.01C136.573 26.01 132.75 29.8335 132.75 34.55C132.75 39.2665 136.573 43.09 141.29 43.09Z" stroke="#263238" stroke-miterlimit="10"/>
<path d="M187.412 125.564C188.439 119.257 184.159 113.312 177.852 112.285C171.545 111.257 165.6 115.538 164.573 121.844C163.546 128.151 167.826 134.097 174.132 135.124C180.439 136.151 186.385 131.871 187.412 125.564Z" stroke="#263238" stroke-miterlimit="10"/>
<path d="M103.57 64.81C104.752 64.81 105.71 63.8519 105.71 62.67C105.71 61.4881 104.752 60.53 103.57 60.53C102.388 60.53 101.43 61.4881 101.43 62.67C101.43 63.8519 102.388 64.81 103.57 64.81Z" stroke="#263238" stroke-miterlimit="10"/>
<path d="M139.87 159.48C142.427 159.48 144.5 157.407 144.5 154.85C144.5 152.293 142.427 150.22 139.87 150.22C137.313 150.22 135.24 152.293 135.24 154.85C135.24 157.407 137.313 159.48 139.87 159.48Z" stroke="#263238" stroke-miterlimit="10"/>
<path d="M194.68 68.72C198.413 68.72 201.44 65.6934 201.44 61.9599C201.44 58.2265 198.413 55.2 194.68 55.2C190.946 55.2 187.92 58.2265 187.92 61.9599C187.92 65.6934 190.946 68.72 194.68 68.72Z" stroke="#263238" stroke-miterlimit="10"/>
<path d="M378.89 133.51C378.89 133.51 378.89 161.41 379.49 164.4C380.09 167.38 381.84 168.61 381.84 168.61L384.11 340.84L389.03 341.14L386.05 215.73L384.93 168.61C384.93 168.61 386.95 168.73 387.1 163.8C387.25 158.87 389.93 139.03 389.93 139.03L387.99 138.43C387.99 138.43 385.01 163.05 384.41 163.8C383.81 164.55 382.17 162.31 381.87 159.92C381.57 157.53 381.87 133.36 381.87 133.36L378.89 133.51Z" fill="#A6A6A6" stroke="#263238" stroke-linecap="round" stroke-linejoin="round"/>
<path d="M384.93 168.61C385.14 168.53 385.38 168.44 385.64 168.34C386.24 167.91 387.01 166.78 387.1 163.8C387.25 158.88 389.93 139.03 389.93 139.03L387.99 138.43C387.99 138.43 385.01 163.05 384.41 163.8C383.81 164.55 382.17 162.31 381.87 159.92C381.57 157.53 381.87 133.36 381.87 133.36L378.89 133.51C378.89 133.51 378.89 161.41 379.49 164.4C380.09 167.38 381.84 168.61 381.84 168.61C381.84 168.61 382.57 169.52 384.93 168.61Z" fill="#263238" stroke="#263238" stroke-linecap="round" stroke-linejoin="round"/>
<path d="M383.97 133.04C383.97 133.04 389.64 125.13 398.74 121.4C407.84 117.67 424.25 115.28 424.85 115.28C425.45 115.28 409.48 120.35 404.56 122.59C399.64 124.83 393.22 128.26 391.28 130.35C389.34 132.44 380.24 147.06 380.24 147.06C380.24 147.06 380.54 141.09 383.97 133.03V133.04Z" fill="#263238" stroke="#263238" stroke-linecap="round" stroke-linejoin="round"/>
<path d="M368.42 107.29C368.42 107.29 362.75 99.38 353.65 95.65C344.55 91.92 328.14 89.53 327.54 89.53C326.94 89.53 342.91 94.6 347.83 96.84C352.75 99.08 359.17 102.51 361.11 104.6C363.05 106.69 372.15 121.31 372.15 121.31C372.15 121.31 371.85 115.34 368.42 107.28V107.29Z" fill="#388500" stroke="#263238" stroke-linecap="round" stroke-linejoin="round"/>
<path d="M380.96 129.52C380.96 129.52 365.44 106.54 361.12 104.6C356.79 102.66 353.36 100.87 347.54 102.36C341.72 103.85 329.64 110.42 327.4 111.61C325.16 112.8 322.18 114.89 320.98 115.49C319.79 116.09 336.35 106.24 345.6 105.05C354.85 103.86 356.49 108.33 366.49 116.09C376.49 123.85 380.96 129.52 380.96 129.52Z" fill="#388500" stroke="#263238" stroke-linecap="round" stroke-linejoin="round"/>
<path d="M380.96 129.52C380.96 129.52 370.66 113.11 363.65 111.32C356.64 109.53 348.28 113.41 345.45 115.05C342.62 116.69 338.44 125.94 337.54 129.52C336.64 133.1 336.05 135.79 336.05 135.79C336.05 135.79 345 121.17 348.58 118.93C352.16 116.69 357.68 113.26 359.32 112.96C360.96 112.66 377.37 122.66 380.96 129.52Z" fill="#388500" stroke="#263238" stroke-linecap="round" stroke-linejoin="round"/>
<path d="M376.78 121.01C376.78 121.01 356.79 107.58 346.34 107.73C335.9 107.88 322.91 111.76 319.48 112.36C316.05 112.96 312.62 150.78 312.62 150.78C312.62 150.78 327.39 116.54 332.32 116.69C337.24 116.84 353.36 112.21 358.73 114C364.1 115.79 376.78 121.01 376.78 121.01Z" fill="#388500" stroke="#263238" stroke-linecap="round" stroke-linejoin="round"/>
<path d="M380.66 134.74C380.66 134.74 374.24 122.65 368.87 119.97C363.5 117.28 358.13 122.06 349.62 125.34C341.12 128.62 334.7 130.86 334.7 130.86C334.7 130.86 348.73 131.61 354.1 129.67C359.47 127.73 367.98 124 369.92 124.3C371.86 124.6 380.66 134.74 380.66 134.74Z" fill="#388500" stroke="#263238" stroke-linecap="round" stroke-linejoin="round"/>
<path d="M385.3 138.73C385.3 138.73 379.63 108.14 379.63 96.9499C379.63 85.7599 379.78 80.9799 379.78 80.9799C379.78 80.9799 383.51 95.5999 383.96 97.3899C384.41 99.1799 384.41 102.16 384.41 102.16C384.41 102.16 387.1 86.3399 390.53 82.4599C393.96 78.5799 398.29 76.6399 398.29 76.6399C398.29 76.6399 394.41 83.9499 393.66 86.0399C392.91 88.1299 396.79 83.2099 400.97 82.0099C405.15 80.8199 415.44 78.5799 415.44 78.5799C415.44 78.5799 401.71 84.0999 400.07 85.8899C398.43 87.6799 394.4 94.2499 394.1 94.9899C393.8 95.7399 388.88 104.24 387.53 109.16C386.19 114.08 385.29 138.7 385.29 138.7L385.3 138.73Z" fill="#263238" stroke="#263238" stroke-linecap="round" stroke-linejoin="round"/>
<path d="M388.74 101.58L400.38 93.8199C400.38 93.8199 414.7 91.5799 417.09 92.3299C419.48 93.0799 422.76 95.3099 422.76 95.3099C422.76 95.3099 413.51 94.4099 409.48 96.3499C405.45 98.2899 396.65 101.72 391.43 108.73C386.21 115.74 384.27 123.5 383.67 126.04C383.07 128.58 381.88 133.35 381.88 133.35C381.88 133.35 379.19 120.37 380.24 115.15C381.28 109.93 388.74 101.57 388.74 101.57V101.58Z" fill="#388500" stroke="#263238" stroke-linecap="round" stroke-linejoin="round"/>
<path d="M374.11 93.22C374.11 93.22 380.97 102.47 382.02 105.46C383.07 108.45 384.71 98 392.02 91.58C399.33 85.16 422.91 81.28 422.91 81.28C422.91 81.28 394.26 95.16 389.94 100.68C385.61 106.2 381.44 115.6 381.44 116.05V121.57L374.13 93.22H374.11Z" fill="#388500" stroke="#263238" stroke-linecap="round" stroke-linejoin="round"/>
<path d="M379.05 112.63C379.05 112.63 369.5 96.22 364.58 90.55C359.66 84.88 343.39 72.2 343.39 72.2C343.39 72.2 350.1 80.56 358.76 92.34C367.41 104.13 381.14 121.44 381.14 121.44L379.05 112.64V112.63Z" fill="#263238" stroke="#263238" stroke-linecap="round" stroke-linejoin="round"/>
<path d="M377.69 144.7C377.69 144.7 362.17 132.02 353.97 135.15C345.76 138.28 336.36 148.28 336.36 148.28L334.27 159.62C334.27 159.62 345.31 143.65 350.09 141.42C354.86 139.18 361.58 138.29 364.86 139.03C368.14 139.78 377.84 147.98 378.29 149.03C378.74 150.07 377.69 144.7 377.69 144.7Z" fill="#388500" stroke="#263238" stroke-linecap="round" stroke-linejoin="round"/>
<path d="M373.67 107.1C373.67 107.1 370.69 104.41 368.75 93.67C366.81 82.93 369.05 73.23 369.05 73.23C369.05 73.23 370.09 79.65 372.48 87.11C374.87 94.57 374.87 97.26 378.45 108.3C382.03 119.34 382.48 139.19 382.33 139.63C382.18 140.08 373.68 107.1 373.68 107.1H373.67Z" fill="#388500" stroke="#263238" stroke-linecap="round" stroke-linejoin="round"/>
<path d="M398.14 110.23C398.14 110.23 402.77 104.26 408.73 102.47C414.7 100.68 420.82 100.83 420.82 100.83C420.82 100.83 411.87 98.29 405.9 99.49C399.93 100.69 395.31 107.7 393.22 114.26C391.13 120.83 391.13 136.19 391.13 136.19C391.13 136.19 394.41 116.05 398.14 110.23Z" fill="#263238" stroke="#263238" stroke-linecap="round" stroke-linejoin="round"/>
<path d="M375.69 116.02C375.69 116.02 376.01 109.74 371.02 102.49C366.03 95.24 355.88 91.21 348.79 88.15C341.7 85.09 337.51 83.8 337.51 83.8C337.51 83.8 353.46 96.37 357.65 98.14C361.84 99.91 364.9 102.33 367.8 105.71C370.7 109.09 375.85 121.5 375.85 122.3C375.85 123.1 375.69 116.02 375.69 116.02Z" fill="#388500" stroke="#263238" stroke-linecap="round" stroke-linejoin="round"/>
<path d="M393.66 125C393.66 125 399.33 117.09 408.43 113.36C417.53 109.63 433.94 107.24 434.54 107.24C435.14 107.24 419.17 112.31 414.25 114.55C409.33 116.79 402.91 120.22 400.97 122.31C399.03 124.4 389.93 139.02 389.93 139.02C389.93 139.02 390.23 133.05 393.66 124.99V125Z" fill="#388500" stroke="#263238" stroke-linecap="round" stroke-linejoin="round"/>
<path d="M381.13 147.24C381.13 147.24 396.65 124.26 400.97 122.32C405.3 120.38 408.73 118.59 414.55 120.08C420.37 121.57 432.45 128.14 434.69 129.33C436.93 130.52 439.91 132.61 441.11 133.21C442.3 133.81 425.74 123.96 416.49 122.77C407.24 121.58 405.6 126.05 395.6 133.81C385.6 141.57 381.13 147.24 381.13 147.24Z" fill="#388500" stroke="#263238" stroke-linecap="round" stroke-linejoin="round"/>
<path d="M381.13 147.24C381.13 147.24 391.43 130.83 398.44 129.04C405.45 127.25 413.81 131.13 416.64 132.77C419.48 134.41 423.65 143.66 424.55 147.24C425.45 150.82 426.04 153.51 426.04 153.51C426.04 153.51 417.09 138.89 413.51 136.65C409.93 134.41 404.41 130.98 402.77 130.68C401.13 130.38 384.72 140.38 381.13 147.24Z" fill="#263238" stroke="#263238" stroke-linecap="round" stroke-linejoin="round"/>
<path d="M385.3 138.73C385.3 138.73 405.29 125.3 415.74 125.45C426.18 125.6 439.17 129.48 442.6 130.08C446.03 130.68 449.46 129.78 449.46 129.78C449.46 129.78 434.69 134.26 429.76 134.41C424.84 134.56 408.72 129.93 403.35 131.72C397.98 133.51 385.3 138.73 385.3 138.73Z" fill="#388500" stroke="#263238" stroke-linecap="round" stroke-linejoin="round"/>
<path d="M390.68 132.76C390.68 132.76 387.25 122.32 390.83 114.71C394.41 107.1 399.04 96.6599 399.04 96.6599C399.04 96.6599 400.68 109.94 397.85 118.89C395.02 127.84 390.69 132.77 390.69 132.77L390.68 132.76Z" fill="#388500" stroke="#263238" stroke-linecap="round" stroke-linejoin="round"/>
<path d="M382.02 140.37C382.02 140.37 382.02 127.39 373.07 121.27C364.12 115.15 354.12 113.21 350.54 115.15C346.96 117.09 336.22 123.06 333.08 127.09C329.95 131.12 327.41 134.25 327.41 134.25C327.41 134.25 343.23 123.81 348.15 120.22C353.07 116.64 355.46 115.74 357.25 116.19C359.04 116.64 369.34 121.41 373.36 124.55C377.39 127.68 382.01 140.37 382.01 140.37H382.02Z" fill="#388500" stroke="#263238" stroke-linecap="round" stroke-linejoin="round"/>
<path d="M382.32 142.46C382.17 142.01 382.62 138.58 376.5 138.13C370.38 137.68 365.76 140.37 364.71 142.61C363.67 144.85 364.71 150.82 364.86 151.41C365.01 152.01 365.76 143.5 372.92 141.86C380.08 140.22 382.32 142.46 382.32 142.46Z" fill="#263238" stroke="#263238" stroke-linecap="round" stroke-linejoin="round"/>
<path d="M379.93 147.98C379.93 147.98 377.99 143.8 374.11 139.33C370.23 134.85 361.88 130.68 357.85 133.21C353.82 135.75 349.2 146.34 347.7 149.32C346.21 152.3 342.78 161.41 342.48 161.85C342.18 162.3 351.28 153.79 355.16 148.72C359.04 143.65 361.73 136.63 363.96 136.04C366.2 135.44 370.82 139.92 370.82 139.92L381.86 155.89L379.92 147.98H379.93Z" fill="#388500" stroke="#263238" stroke-linecap="round" stroke-linejoin="round"/>
<path d="M380.53 137.09C380.53 137.09 378.59 128.14 371.88 125.75C365.17 123.36 357.11 122.47 353.97 124.26C350.84 126.05 337.11 138.73 337.11 138.73L335.32 143.36C335.32 143.36 355.46 128.59 360.09 127.1C363.177 126.107 366.36 126.603 369.64 128.59C374.56 131.57 380.53 137.09 380.53 137.09Z" fill="#388500" stroke="#263238" stroke-linecap="round" stroke-linejoin="round"/>
<path d="M379.34 137.09C379.34 137.09 359.79 125.3 355.62 123.81C351.44 122.32 342.04 126.05 339.36 129.48C336.68 132.91 327.27 151.56 326.83 152.91C326.38 154.25 333.1 138.44 343.24 133.81C353.39 129.18 359.95 130.08 365.92 130.68C371.89 131.28 379.35 141.27 379.35 141.27V137.09H379.34Z" fill="#388500" stroke="#263238" stroke-linecap="round" stroke-linejoin="round"/>
<path d="M381.43 152.46C381.43 152.46 387.85 140.37 393.22 137.69C398.59 135 403.96 139.78 412.47 143.06C420.97 146.34 427.39 148.58 427.39 148.58C427.39 148.58 413.36 149.33 407.99 147.39C402.62 145.45 394.11 141.72 392.17 142.02C390.23 142.32 381.43 152.46 381.43 152.46Z" fill="#388500" stroke="#263238" stroke-linecap="round" stroke-linejoin="round"/>
<path d="M382.02 140.37C382.02 140.37 385.3 130.97 387.24 118.73C389.18 106.5 385.9 84.5599 382.76 77.9999C379.63 71.4299 370.38 60.6899 370.38 60.6899C370.38 60.6899 386.79 75.0099 390.37 88.4399C393.95 101.87 394.55 109.03 393.06 116.34C391.57 123.65 382.02 140.36 382.02 140.36V140.37Z" fill="#388500" stroke="#263238" stroke-linecap="round" stroke-linejoin="round"/>
<path d="M378.11 121.49C378.11 121.49 376.66 116.01 375.05 114.89C373.44 113.76 370.22 115.05 370.22 115.05C370.22 115.05 375.86 120.04 375.86 122.3C375.86 124.56 381.59 138.13 381.59 138.13L378.12 121.49H378.11Z" fill="#388500" stroke="#263238" stroke-linecap="round" stroke-linejoin="round"/>
<path d="M375.05 114.89C375.05 114.89 372.63 116.58 370.75 118.29C368.86 120 359.88 128.89 359.34 129.43C358.8 129.97 364.01 118.11 365.18 115.87C366.35 113.62 368.41 112.01 369.04 112.1C369.67 112.19 375.22 113.48 375.05 114.9V114.89Z" fill="#388500" stroke="#263238" stroke-linecap="round" stroke-linejoin="round"/>
<path d="M409.12 175.82C409.12 175.82 409.12 200.27 408.6 202.89C408.08 205.5 406.54 206.58 406.54 206.58L404.55 362.29L400.24 362.55L402.86 247.86L403.84 206.57C403.84 206.57 402.07 206.67 401.94 202.36C401.81 198.05 399.46 180.66 399.46 180.66L401.16 180.14C401.16 180.14 403.77 201.71 404.3 202.37C404.83 203.03 406.26 201.06 406.52 198.97C406.78 196.88 406.52 175.7 406.52 175.7L409.14 175.83L409.12 175.82Z" fill="#A6A6A6" stroke="#263238" stroke-linecap="round" stroke-linejoin="round"/>
<path d="M403.83 206.57C403.64 206.5 403.43 206.42 403.21 206.33C402.69 205.95 402.01 204.96 401.93 202.35C401.8 198.04 399.45 180.65 399.45 180.65L401.15 180.13C401.15 180.13 403.76 201.7 404.29 202.36C404.82 203.02 406.25 201.05 406.51 198.96C406.77 196.87 406.51 175.69 406.51 175.69L409.13 175.82C409.13 175.82 409.13 200.27 408.61 202.89C408.09 205.5 406.55 206.58 406.55 206.58C406.55 206.58 405.91 207.38 403.85 206.58L403.83 206.57Z" fill="#263238" stroke="#263238" stroke-linecap="round" stroke-linejoin="round"/>
<path d="M404.66 175.4C404.66 175.4 399.69 168.47 391.72 165.2C383.74 161.93 369.36 159.84 368.84 159.84C368.32 159.84 382.31 164.29 386.62 166.25C390.93 168.21 396.56 171.22 398.26 173.05C399.96 174.88 407.94 187.69 407.94 187.69C407.94 187.69 407.68 182.46 404.67 175.4H404.66Z" fill="#263238" stroke="#263238" stroke-linecap="round" stroke-linejoin="round"/>
<path d="M418.29 152.84C418.29 152.84 423.26 145.91 431.23 142.64C439.21 139.37 453.59 137.28 454.11 137.28C454.63 137.28 440.64 141.73 436.33 143.69C432.02 145.65 426.39 148.66 424.69 150.49C422.99 152.32 415.01 165.13 415.01 165.13C415.01 165.13 415.27 159.9 418.28 152.84H418.29Z" fill="#388500" stroke="#263238" stroke-linecap="round" stroke-linejoin="round"/>
<path d="M407.31 172.32C407.31 172.32 420.91 152.18 424.7 150.48C428.49 148.78 431.5 147.21 436.6 148.52C441.7 149.83 452.29 155.58 454.25 156.63C456.21 157.68 458.83 159.51 459.87 160.03C460.92 160.55 446.4 151.92 438.3 150.88C430.19 149.83 428.76 153.76 419.99 160.56C411.23 167.36 407.31 172.33 407.31 172.33V172.32Z" fill="#388500" stroke="#263238" stroke-linecap="round" stroke-linejoin="round"/>
<path d="M407.31 172.32C407.31 172.32 416.33 157.94 422.48 156.37C428.63 154.8 435.95 158.2 438.43 159.64C440.91 161.08 444.58 169.18 445.36 172.32C446.14 175.46 446.67 177.81 446.67 177.81C446.67 177.81 438.82 165 435.69 163.04C432.56 161.08 427.71 158.07 426.28 157.81C424.84 157.55 410.46 166.31 407.32 172.32H407.31Z" fill="#388500" stroke="#263238" stroke-linecap="round" stroke-linejoin="round"/>
<path d="M410.97 164.87C410.97 164.87 428.49 153.1 437.64 153.23C446.79 153.36 458.17 156.76 461.17 157.28C464.18 157.8 467.18 157.02 467.18 157.02C467.18 157.02 454.24 160.94 449.92 161.07C445.61 161.2 431.48 157.15 426.78 158.72C422.07 160.29 410.96 164.87 410.96 164.87H410.97Z" fill="#388500" stroke="#263238" stroke-linecap="round" stroke-linejoin="round"/>
<path d="M407.57 176.9C407.57 176.9 413.19 166.31 417.9 163.96C422.61 161.61 427.31 165.79 434.77 168.67C442.22 171.55 447.84 173.51 447.84 173.51C447.84 173.51 435.55 174.16 430.84 172.46C426.13 170.76 418.68 167.49 416.98 167.75C415.28 168.01 407.57 176.9 407.57 176.9Z" fill="#388500" stroke="#263238" stroke-linecap="round" stroke-linejoin="round"/>
<path d="M403.5 180.39C403.5 180.39 408.47 153.59 408.47 143.78C408.47 133.97 408.34 129.79 408.34 129.79C408.34 129.79 405.07 142.6 404.68 144.17C404.29 145.74 404.29 148.35 404.29 148.35C404.29 148.35 401.94 134.49 398.93 131.09C395.92 127.69 392.13 125.99 392.13 125.99C392.13 125.99 395.53 132.4 396.18 134.23C396.83 136.06 393.43 131.75 389.77 130.7C386.11 129.65 377.09 127.69 377.09 127.69C377.09 127.69 389.12 132.53 390.56 134.1C392 135.67 395.53 141.42 395.79 142.08C396.05 142.73 400.37 150.19 401.54 154.5C402.72 158.81 403.5 180.39 403.5 180.39Z" fill="#263238" stroke="#263238" stroke-linecap="round" stroke-linejoin="round"/>
<path d="M400.49 147.84L390.29 141.04C390.29 141.04 377.74 139.08 375.65 139.73C373.56 140.38 370.68 142.35 370.68 142.35C370.68 142.35 378.79 141.57 382.32 143.27C385.85 144.97 393.56 147.98 398.14 154.12C402.72 160.27 404.42 167.06 404.94 169.29C405.46 171.51 406.51 175.7 406.51 175.7C406.51 175.7 408.86 164.32 407.95 159.75C407.03 155.17 400.5 147.85 400.5 147.85L400.49 147.84Z" fill="#388500" stroke="#263238" stroke-linecap="round" stroke-linejoin="round"/>
<path d="M413.3 140.51C413.3 140.51 407.29 148.62 406.37 151.23C405.45 153.84 404.02 144.69 397.61 139.07C391.2 133.45 370.54 130.05 370.54 130.05C370.54 130.05 395.64 142.21 399.44 147.05C403.23 151.89 406.89 160.12 406.89 160.52V165.36L413.3 140.52V140.51Z" fill="#388500" stroke="#263238" stroke-linecap="round" stroke-linejoin="round"/>
<path d="M408.98 157.52C408.98 157.52 417.35 143.14 421.66 138.17C425.97 133.2 440.23 122.09 440.23 122.09C440.23 122.09 434.35 129.41 426.76 139.74C419.18 150.07 407.15 165.24 407.15 165.24L408.98 157.53V157.52Z" fill="#263238" stroke="#263238" stroke-linecap="round" stroke-linejoin="round"/>
<path d="M410.17 185.62C410.17 185.62 423.77 174.51 430.96 177.25C438.15 180 446.39 188.76 446.39 188.76L448.22 198.7C448.22 198.7 438.54 184.71 434.36 182.75C430.18 180.79 424.29 180 421.42 180.66C418.54 181.31 410.04 188.5 409.65 189.42C409.26 190.34 410.17 185.63 410.17 185.63V185.62Z" fill="#388500" stroke="#263238" stroke-linecap="round" stroke-linejoin="round"/>
<path d="M413.7 152.67C413.7 152.67 416.31 150.32 418.01 140.9C419.71 131.49 417.75 122.99 417.75 122.99C417.75 122.99 416.83 128.61 414.74 135.15C412.65 141.69 412.65 144.04 409.51 153.72C406.37 163.4 405.98 180.79 406.11 181.18C406.24 181.57 413.69 152.68 413.69 152.68L413.7 152.67Z" fill="#388500" stroke="#263238" stroke-linecap="round" stroke-linejoin="round"/>
<path d="M392.25 155.42C392.25 155.42 388.2 150.19 382.97 148.62C377.74 147.05 372.38 147.18 372.38 147.18C372.38 147.18 380.23 144.96 385.45 146C390.68 147.05 394.73 153.19 396.56 158.94C398.39 164.69 398.39 178.16 398.39 178.16C398.39 178.16 395.51 160.51 392.24 155.41L392.25 155.42Z" fill="#263238" stroke="#263238" stroke-linecap="round" stroke-linejoin="round"/>
<path d="M411.92 160.49C411.92 160.49 411.64 154.98 416.01 148.63C420.39 142.28 429.28 138.75 435.49 136.07C441.7 133.39 445.37 132.26 445.37 132.26C445.37 132.26 431.39 143.27 427.72 144.82C424.05 146.37 421.37 148.49 418.83 151.45C416.29 154.41 411.77 165.28 411.77 165.99C411.77 166.7 411.91 160.48 411.91 160.48L411.92 160.49Z" fill="#388500" stroke="#263238" stroke-linecap="round" stroke-linejoin="round"/>
<path d="M396.17 168.36C396.17 168.36 391.2 161.43 383.23 158.16C375.25 154.89 360.87 152.8 360.35 152.8C359.83 152.8 373.82 157.25 378.13 159.21C382.44 161.17 388.07 164.18 389.77 166.01C391.47 167.84 399.45 180.65 399.45 180.65C399.45 180.65 399.19 175.42 396.18 168.36H396.17Z" fill="#388500" stroke="#263238" stroke-linecap="round" stroke-linejoin="round"/>
<path d="M407.16 187.84C407.16 187.84 393.56 167.7 389.77 166C385.98 164.3 382.97 162.73 377.87 164.04C372.77 165.35 362.18 171.1 360.22 172.15C358.26 173.2 355.64 175.03 354.6 175.55C353.55 176.07 368.07 167.44 376.17 166.4C384.28 165.35 385.71 169.28 394.48 176.08C403.24 182.88 407.16 187.85 407.16 187.85V187.84Z" fill="#388500" stroke="#263238" stroke-linecap="round" stroke-linejoin="round"/>
<path d="M407.16 187.84C407.16 187.84 398.14 173.46 391.99 171.89C385.84 170.32 378.52 173.72 376.04 175.16C373.56 176.6 369.89 184.7 369.11 187.84C368.33 190.98 367.8 193.33 367.8 193.33C367.8 193.33 375.64 180.52 378.78 178.56C381.92 176.6 386.76 173.59 388.19 173.33C389.63 173.07 404.01 181.83 407.15 187.84H407.16Z" fill="#263238" stroke="#263238" stroke-linecap="round" stroke-linejoin="round"/>
<path d="M403.5 180.39C403.5 180.39 385.98 168.62 376.83 168.75C367.68 168.88 356.3 172.28 353.3 172.8C350.29 173.32 347.29 172.54 347.29 172.54C347.29 172.54 360.23 176.46 364.55 176.59C368.86 176.72 382.99 172.67 387.69 174.24C392.4 175.81 403.51 180.39 403.51 180.39H403.5Z" fill="#388500" stroke="#263238" stroke-linecap="round" stroke-linejoin="round"/>
<path d="M398.79 175.16C398.79 175.16 401.8 166.01 398.66 159.34C395.52 152.67 391.47 143.52 391.47 143.52C391.47 143.52 390.03 155.16 392.52 163C395 170.85 398.8 175.16 398.8 175.16H398.79Z" fill="#388500" stroke="#263238" stroke-linecap="round" stroke-linejoin="round"/>
<path d="M406.37 181.83C406.37 181.83 406.37 170.45 414.21 165.09C422.06 159.73 430.82 158.03 433.95 159.73C437.09 161.43 446.5 166.66 449.25 170.19C452 173.72 454.22 176.47 454.22 176.47C454.22 176.47 440.36 167.32 436.05 164.18C431.74 161.04 429.64 160.26 428.07 160.65C426.5 161.04 417.48 165.23 413.95 167.97C410.42 170.72 406.37 181.83 406.37 181.83Z" fill="#388500" stroke="#263238" stroke-linecap="round" stroke-linejoin="round"/>
<path d="M406.11 183.66C406.24 183.27 405.85 180.26 411.21 179.87C416.57 179.48 420.62 181.83 421.54 183.79C422.46 185.75 421.54 190.98 421.41 191.5C421.28 192.02 420.63 184.57 414.35 183.13C408.07 181.69 406.11 183.65 406.11 183.65V183.66Z" fill="#263238" stroke="#263238" stroke-linecap="round" stroke-linejoin="round"/>
<path d="M408.2 188.5C408.2 188.5 409.9 184.84 413.3 180.92C416.7 177 424.02 173.34 427.55 175.56C431.08 177.78 435.13 187.07 436.44 189.68C437.75 192.29 440.75 200.27 441.02 200.66C441.28 201.05 433.31 193.6 429.91 189.15C426.51 184.7 424.16 178.56 422.2 178.04C420.24 177.52 416.19 181.44 416.19 181.44L406.51 195.43L408.21 188.5H408.2Z" fill="#388500" stroke="#263238" stroke-linecap="round" stroke-linejoin="round"/>
<path d="M407.68 178.95C407.68 178.95 409.38 171.1 415.26 169.01C421.14 166.92 428.2 166.13 430.95 167.7C433.7 169.27 445.72 180.38 445.72 180.38L447.29 184.43C447.29 184.43 429.64 171.49 425.59 170.18C422.89 169.307 420.1 169.743 417.22 171.49C412.91 174.1 407.68 178.94 407.68 178.94V178.95Z" fill="#388500" stroke="#263238" stroke-linecap="round" stroke-linejoin="round"/>
<path d="M408.73 178.95C408.73 178.95 425.86 168.62 429.52 167.31C433.18 166 441.42 169.27 443.77 172.28C446.12 175.29 454.36 191.63 454.75 192.81C455.14 193.99 449.26 180.13 440.37 176.07C431.48 172.02 425.73 172.8 420.5 173.32C415.27 173.84 408.73 182.6 408.73 182.6V178.94V178.95Z" fill="#388500" stroke="#263238" stroke-linecap="round" stroke-linejoin="round"/>
<path d="M406.9 192.42C406.9 192.42 401.28 181.83 396.57 179.48C391.86 177.13 387.16 181.31 379.7 184.19C372.25 187.07 366.62 189.03 366.62 189.03C366.62 189.03 378.91 189.68 383.62 187.98C388.33 186.28 395.78 183.01 397.48 183.27C399.18 183.53 406.89 192.42 406.89 192.42H406.9Z" fill="#388500" stroke="#263238" stroke-linecap="round" stroke-linejoin="round"/>
<path d="M406.37 181.83C406.37 181.83 403.49 173.59 401.79 162.87C400.09 152.15 402.97 132.93 405.71 127.18C408.46 121.43 416.56 112.01 416.56 112.01C416.56 112.01 402.18 124.56 399.04 136.33C395.9 148.1 395.38 154.37 396.69 160.78C398 167.19 406.37 181.83 406.37 181.83Z" fill="#388500" stroke="#263238" stroke-linecap="round" stroke-linejoin="round"/>
<path d="M409.8 165.29C409.8 165.29 411.07 160.49 412.48 159.5C413.89 158.51 416.71 159.64 416.71 159.64C416.71 159.64 411.77 164.02 411.77 165.99C411.77 167.96 406.75 179.87 406.75 179.87L409.79 165.29H409.8Z" fill="#388500" stroke="#263238" stroke-linecap="round" stroke-linejoin="round"/>
<path d="M412.48 159.5C412.48 159.5 414.6 160.98 416.25 162.48C417.9 163.98 425.77 171.77 426.25 172.24C426.72 172.71 422.16 162.32 421.13 160.36C420.11 158.39 418.3 156.98 417.75 157.05C417.2 157.13 412.33 158.26 412.48 159.5Z" fill="#388500" stroke="#263238" stroke-linecap="round" stroke-linejoin="round"/>
<path d="M408.48 228.73C408.48 228.73 420.52 224.34 427.85 221.89C435.17 219.45 440.71 225.47 440.71 225.47C440.71 225.47 431.6 226.77 428.34 226.93C425.09 227.09 420.2 227.26 417.27 228.39C414.34 229.53 423.13 229.37 426.06 232.3C428.99 235.23 435.17 242.72 436.15 244.99C437.13 247.27 426.22 234.25 418.57 232.3C410.92 230.35 404.9 234.42 404.9 234.42L408.48 228.72V228.73Z" fill="#263238" stroke="#263238" stroke-linecap="round" stroke-linejoin="round"/>
<path d="M396.6 246.63C396.6 246.63 397.74 252 396.6 266.97C395.46 281.94 394.32 341.98 394.32 341.98L398.23 342.47C398.23 342.47 400.18 261.76 400.18 259C400.18 256.24 400.34 246.31 400.34 246.31L396.6 246.64V246.63Z" fill="#A6A6A6" stroke="#263238" stroke-linecap="round" stroke-linejoin="round"/>
<path d="M399.69 230.85C399.39 230.19 394.81 220.43 392.37 218.81C389.93 217.18 383.74 214.9 380.98 214.9C378.22 214.9 371.05 215.71 371.05 215.71C371.05 215.71 383.74 218.64 387.32 221.41C390.9 224.18 397.08 230.52 397.25 231.66C397.41 232.8 398.71 235.4 398.71 235.4C398.71 235.4 401.48 234.75 399.69 230.84V230.85Z" fill="#388500" stroke="#263238" stroke-linecap="round" stroke-linejoin="round"/>
<path d="M396.11 237.19C396.11 237.19 386.35 236.05 382.77 238.65C379.19 241.25 372.84 248.58 372.84 252.48C372.84 256.38 373.17 265.34 373.17 264.52C373.17 263.7 374.96 251.01 379.03 247.11C383.1 243.2 384.89 240.93 390.26 240.27L395.63 239.62L401.16 242.55L396.12 237.18L396.11 237.19Z" fill="#263238" stroke="#263238" stroke-linecap="round" stroke-linejoin="round"/>
<path d="M403.59 234.83C403.59 234.83 405.54 233.2 412.54 232.23C419.54 231.25 421.49 230.6 425.88 231.42C430.27 232.23 434.99 234.02 434.99 234.02C434.99 234.02 420.99 233.69 419.69 233.69C418.39 233.69 428.15 240.04 429.94 241.99C431.73 243.94 433.36 248.01 433.36 248.01C433.36 248.01 419.36 237.92 416.92 236.78C414.48 235.64 413.5 234.99 413.5 234.99C413.5 234.99 409.59 234.34 407.97 234.83C406.34 235.32 405.04 235.81 404.55 235.97C404.06 236.13 402.27 236.62 402.27 236.62L403.57 234.83H403.59Z" fill="#388500" stroke="#263238" stroke-linecap="round" stroke-linejoin="round"/>
<path d="M401.48 229.55C401.48 229.55 402.29 220.11 406.85 215.88C411.41 211.65 427.03 203.51 427.03 203.51L436.63 198.79C436.63 198.79 433.86 204.97 428 207.42C422.14 209.86 420.19 208.07 417.42 211C414.65 213.93 410.26 219.95 409.45 222.72C408.64 225.49 403.27 233.14 402.94 234.93C402.61 236.72 401.48 229.56 401.48 229.56V229.55Z" fill="#388500" stroke="#263238" stroke-linecap="round" stroke-linejoin="round"/>
<path d="M402.13 232.15C402.13 232.15 403.11 217.5 401.48 213.76C399.85 210.02 394.81 201.39 393.67 199.44C392.53 197.49 391.07 195.86 391.07 195.86C391.07 195.86 395.14 208.72 396.28 215.39C397.42 222.06 397.58 224.18 397.91 226.94C398.24 229.71 398.56 232.15 398.56 232.15H402.14H402.13Z" fill="#388500" stroke="#263238" stroke-linecap="round" stroke-linejoin="round"/>
<path d="M400.02 237.52C400.02 237.52 402.14 231.66 405.39 226.45C408.64 221.24 413.36 220.1 414.18 220.1H417.76C417.76 220.1 411.41 223.19 410.6 226.12C409.79 229.05 408 235.07 406.69 236.37C405.39 237.67 402.13 244.51 401.32 246.13C400.51 247.76 398.39 248.57 398.39 248.57C398.39 248.57 395.46 244.18 400.02 237.5V237.52Z" fill="#388500" stroke="#263238" stroke-linecap="round" stroke-linejoin="round"/>
<path d="M402.62 238.01L398.39 248.59L399.69 249.73C399.69 249.73 401.64 247.45 403.11 245.34C404.57 243.22 405.71 241.6 405.71 240.62C405.71 239.64 402.62 238.02 402.62 238.02V238.01Z" fill="#388500" stroke="#263238" stroke-linecap="round" stroke-linejoin="round"/>
<path d="M400.93 246.93C400.93 246.93 394.75 233.42 392.79 230.49C390.84 227.56 388.72 225.12 384.49 223.98C380.26 222.84 373.1 220.73 366.75 221.86C360.4 223 349.5 224.46 349.5 224.46C349.5 224.46 357.31 228.04 366.75 227.39C376.19 226.74 384.49 227.23 384.49 227.23C384.49 227.23 386.44 228.04 387.91 232.76C389.37 237.48 392.47 241.71 394.42 243.5C396.37 245.29 399.63 249.68 399.63 249.68L400.93 246.91V246.93Z" fill="#388500" stroke="#263238" stroke-linecap="round" stroke-linejoin="round"/>
<path d="M402.13 232.15C402.13 232.15 395.3 229.38 393.67 231.82C392.04 234.26 389.44 246.95 389.44 246.95C389.44 246.95 388.14 253.62 387.81 254.27C387.48 254.92 396.44 248.09 398.55 242.23C400.67 236.37 402.13 232.14 402.13 232.14V232.15Z" fill="#388500" stroke="#263238" stroke-linecap="round" stroke-linejoin="round"/>
<path d="M408.64 236.38C408.64 236.38 402.62 236.54 402.62 238.01C402.62 239.48 403.43 242.08 403.11 245.33C402.78 248.58 402.46 251.51 402.46 251.51C402.46 251.51 408.97 248.74 409.3 245C409.63 241.26 408.65 236.37 408.65 236.37L408.64 236.38Z" fill="#388500" stroke="#263238" stroke-linecap="round" stroke-linejoin="round"/>
<path d="M411.54 236.37C411.54 236.37 417.72 240.6 419.84 244.51C421.96 248.42 423.58 256.55 423.58 256.55C423.58 256.55 419.35 248.41 416.09 244.02C412.84 239.63 407.95 236.05 406.98 237.18C406 238.32 409.26 235.39 411.54 236.37Z" fill="#263238" stroke="#263238" stroke-linecap="round" stroke-linejoin="round"/>
<path d="M408.95 384.94H375.41L368.22 339.1H416.14L408.95 384.94Z" fill="#263238" stroke="#263238" stroke-linecap="round" stroke-linejoin="round"/>
<path d="M412.65 387.37H370.67L368.57 383.2H414.75L412.65 387.37Z" fill="#263238" stroke="#263238" stroke-linecap="round" stroke-linejoin="round"/>
<path d="M41.4302 408.96L47.3202 431.36H57.2302L61.9402 411.32L44.3202 409.97L41.4302 408.96Z" fill="#263238" stroke="#263238" stroke-miterlimit="10"/>
<path d="M443.86 410.81L438.69 431.36H428.79L424.07 411.32L440.25 411.06L443.86 410.81Z" fill="#263238" stroke="#263238" stroke-miterlimit="10"/>
<path d="M56.6901 271.09C56.6901 271.09 21.2901 297.03 17.3901 311.35C13.4801 325.67 18.3701 334.13 25.2001 338.04C32.0401 341.95 34.6401 342.6 34.6401 342.6C34.6401 342.6 37.2401 407.04 39.8501 409.97C42.4501 412.9 45.7101 412.9 45.7101 412.9H445.72C445.72 412.9 448.97 414.53 448.97 406.06C448.97 397.59 452.55 348.45 453.2 344.87C453.85 341.29 472.73 333.15 472.08 319.16C471.43 305.16 457.11 297.03 457.11 297.03L426.19 266.76C426.19 266.76 402.43 269.04 399.5 277.83C396.57 286.62 396.57 291.5 396.57 291.5H79.2301C79.2301 291.5 75.9801 282.06 69.7901 274.9C63.6101 267.74 56.6901 271.1 56.6901 271.1V271.09Z" fill="#388500" stroke="#263238" stroke-miterlimit="10"/>
<path d="M59.3501 333.34C60.1501 337.48 60.4301 341.26 60.6701 343.9" stroke="#263238" stroke-miterlimit="10"/>
<path d="M22.72 330.03C21.3 327.46 20.35 324 20.96 319.49C22.59 307.45 37.56 304.84 48.3 312.98C53.14 316.64 55.99 321.83 57.73 327.07" stroke="#263238" stroke-miterlimit="10"/>
<path d="M28.7801 336.09C28.7801 336.09 27.2701 335.36 25.5601 333.72" stroke="#263238" stroke-miterlimit="10"/>
<path d="M62.48 402.99L62.63 408.02" stroke="#263238" stroke-miterlimit="10"/>
<path d="M61 353.66L62.34 398.29" stroke="#263238" stroke-miterlimit="10"/>
<path d="M464.88 316.26C463.9 314.66 462.47 313.06 460.36 311.68C452.87 306.8 444.41 310.38 437.25 317.54" stroke="#263238" stroke-miterlimit="10"/>
<path d="M466.87 324.37C466.87 324.37 467.06 322.88 466.64 320.79" stroke="#263238" stroke-miterlimit="10"/>
<path d="M423.07 394.25C422.41 402.16 421.96 407.7 421.96 407.7" stroke="#263238" stroke-miterlimit="10"/>
<path d="M433.02 324.04C433.02 324.04 429.11 330.88 427.81 341.29C426.99 347.81 424.9 372.19 423.45 389.52" stroke="#263238" stroke-miterlimit="10"/>
<path d="M187.65 231.95C187.65 231.95 186.5 225.33 194.85 225.33C203.2 225.33 285.52 224.75 289.83 225.04C294.15 225.33 294.15 227.92 294.15 227.92L305.09 224.47L408.13 225.91C408.13 225.91 421.08 222.74 423.1 225.05C425.11 227.35 430.5 267.35 428.57 270.24C423.96 277.15 416.48 277.15 416.48 277.15L408.71 276.86C408.71 276.86 403.82 284.92 403.53 297.01C403.24 309.1 404.68 318.02 403.53 318.88C402.38 319.74 396.91 320.03 396.91 320.03L184.49 322.04L186.79 317.15V309.67L187.65 231.96V231.95Z" fill="#388500" stroke="#263238" stroke-miterlimit="10"/>
<path d="M186.79 317.15C186.79 317.15 187.65 231.38 187.37 228.5C187.08 225.62 183.34 225.62 183.34 225.62C183.34 225.62 113.97 225.62 106.2 225.04C98.4301 224.46 78.2801 224.46 67.0601 224.75C55.8301 225.04 55.5501 227.92 56.1201 231.08C56.7001 234.25 56.7001 271.09 56.7001 271.09C56.7001 271.09 66.4901 274.26 70.2301 283.47C73.9701 292.68 73.6801 311.1 73.6801 311.1L73.3901 326.07L184.49 324.34L186.79 317.14V317.15Z" fill="#388500" stroke="#263238" stroke-miterlimit="10"/>
<path d="M181.61 322.78C181.61 322.78 183.05 321.92 158.3 320.48C133.55 319.04 100.16 318.18 89.2202 321.63C78.2802 325.08 66.4802 334.58 65.6202 339.48C64.7602 344.37 65.9102 363.08 68.5002 366.54C71.0902 369.99 78.0002 371.15 98.4302 371.15C118.86 371.15 168.95 371.44 174.99 369.71C181.03 367.98 182.19 365.39 182.19 365.39C182.19 365.39 186.8 370.86 214.71 370.57C242.62 370.28 286.38 370.28 291.85 369.13C297.32 367.98 301.35 365.1 301.35 365.1C301.35 365.1 306.24 372.01 336.46 371.43C366.68 370.85 413.02 371.14 416.76 369.7C420.5 368.26 422.23 361.93 422.23 361.93C422.23 361.93 423.96 344.66 421.37 339.48C418.78 334.3 413.02 327.39 413.02 327.39C413.02 327.39 402.08 319.62 378.77 317.32C378.77 317.32 321.78 309.26 293 315.02C293 315.02 209.24 310.41 183.05 321.93L181.61 322.79V322.78Z" fill="#263238" stroke="#263238" stroke-miterlimit="10"/>
<path d="M181.61 320.31C181.61 320.31 183.05 319.45 158.3 318.01C133.55 316.57 100.16 315.71 89.2202 319.16C78.2802 322.61 66.4802 332.11 65.6202 337.01C64.7602 341.9 65.9102 360.61 68.5002 364.07C71.0902 367.52 78.0002 368.68 98.4302 368.68C118.86 368.68 168.95 368.97 174.99 367.24C181.03 365.51 182.19 362.92 182.19 362.92C182.19 362.92 186.8 368.39 214.71 368.1C242.62 367.81 286.38 367.81 291.85 366.66C297.32 365.51 301.35 362.63 301.35 362.63C301.35 362.63 306.24 369.54 336.46 368.96C366.68 368.38 413.02 368.67 416.76 367.23C420.5 365.79 422.23 359.46 422.23 359.46C422.23 359.46 423.96 342.19 421.37 337.01C418.78 331.83 413.02 324.92 413.02 324.92C413.02 324.92 402.08 317.15 378.77 314.85C378.77 314.85 321.78 306.79 293 312.55C293 312.55 209.24 307.94 183.05 319.46L181.61 320.32V320.31Z" fill="#388500" stroke="#263238" stroke-miterlimit="10"/>
<path d="M117.15 341.04H168.08L181.61 338.73" stroke="#263238" stroke-miterlimit="10"/>
<path d="M70.2202 340.75L95.2602 341.04H110.77" stroke="#263238" stroke-miterlimit="10"/>
<path d="M190.82 339.6L222.77 339.02C222.77 339.02 276.02 339.02 287.53 340.17C299.04 341.32 300.48 340.75 300.48 340.75" stroke="#263238" stroke-miterlimit="10"/>
<path d="M357.26 341.42L401.22 341.04L419.64 340.17" stroke="#263238" stroke-miterlimit="10"/>
<path d="M308.54 341.04L335.59 341.61L348.54 341.5" stroke="#263238" stroke-miterlimit="10"/>
<path d="M301.92 359.46C301.92 359.46 302.78 344.21 303.07 338.45C303.36 332.69 300.19 325.5 300.19 325.5" stroke="#263238" stroke-miterlimit="10"/>
<path d="M182.09 352.24C181.97 355.74 181.89 358.31 181.89 358.31" stroke="#263238" stroke-miterlimit="10"/>
<path d="M184.49 322.04C184.49 322.04 183.63 329.52 183.05 334.13C182.79 336.24 182.52 341.51 182.31 346.59" stroke="#263238" stroke-miterlimit="10"/>
<path d="M294.44 242.45L294.21 309.05" stroke="#263238" stroke-miterlimit="10"/>
<path d="M294.44 231.09V235.74" stroke="#263238" stroke-miterlimit="10"/>
<path d="M60.77 281.44C60.77 281.44 64.58 301.06 64.58 313.06C64.58 325.06 65.17 332.38 68.39 332.68C71.61 332.97 83.61 325.65 83.61 325.65L60.77 281.44Z" fill="#263238" stroke="#263238" stroke-miterlimit="10"/>
<path d="M70.0498 242.96L48.9298 238.63C48.9298 238.63 44.3298 238.09 47.5798 245.94C50.8298 253.79 64.3698 295.49 64.3698 295.49L68.6998 324.46C68.6998 324.46 67.8898 330.42 74.1198 329.06C80.3498 327.71 101.74 320.4 110.4 319.85C119.06 319.31 142.62 322.02 148.31 320.39C154 318.77 154.54 314.97 152.64 314.16C150.74 313.35 133.41 274.09 133.41 274.09C133.41 274.09 124.2 244.03 123.12 240.78C122.04 237.53 122.31 235.09 117.98 235.91C113.65 236.72 110.94 239.16 110.94 239.16C110.94 239.16 77.0898 244.58 70.0498 242.95V242.96Z" fill="white" stroke="#263238" stroke-miterlimit="10"/>
<path d="M423 255.03C423 255.03 418.55 290.61 418.35 299.9C418.15 309.2 420.37 318.5 419.56 321.73C418.75 324.96 416.53 327.39 414.91 326.99C413.29 326.59 406.82 323.96 406.82 323.96C406.82 323.96 409.85 313.04 409.45 306.37C409.05 299.7 422.99 255.03 422.99 255.03H423Z" fill="#263238" stroke="#263238" stroke-miterlimit="10"/>
<path d="M376.84 237.55L352.2 231.32C352.2 231.32 343.26 220.76 340.83 232.13C338.39 243.5 336.77 302.53 334.87 309.3C332.97 316.07 335.41 318.24 338.66 318.24C341.91 318.24 358.97 316.07 364.11 316.89C369.25 317.7 402.93 325.64 407.98 325.28C413.02 324.92 414.75 319.59 414.75 319.59C414.75 319.59 413.13 313.36 413.13 311.47C413.13 309.58 424.5 261.65 425.04 256.23C425.58 250.81 432.08 241.07 429.91 237.55C427.74 234.03 425.31 235.38 419.89 236.2C414.47 237.02 382.79 238.64 376.84 237.55Z" fill="white" stroke="#263238" stroke-miterlimit="10"/>
<path d="M128.4 288.46L136.89 320.37C136.89 320.37 144.5 325.05 147.72 324.47C150.94 323.88 177 321.84 178.17 321.84C179.34 321.84 196.81 319.55 198.96 316.86C201.11 314.18 182.27 304.27 182.27 304.27C182.27 304.27 128.11 284.65 128.4 288.46Z" fill="#263238" stroke="#263238" stroke-miterlimit="10"/>
<path d="M122.58 250.82C122.58 250.82 111.75 248.38 109.31 250.82C106.87 253.26 111.75 257.05 111.75 257.05L141.26 317.7C141.26 317.7 145.86 326.91 153.17 323.93C160.48 320.95 173.21 319.33 173.21 319.33L195.14 318.25C195.14 318.25 201.91 317.71 201.1 314.19C200.29 310.67 203.81 315.81 191.08 286.3C178.35 256.79 168.33 247.31 164.81 248.39C161.29 249.47 157.23 251.37 154.79 251.91C152.35 252.45 122.57 250.83 122.57 250.83L122.58 250.82Z" fill="white" stroke="#263238" stroke-miterlimit="10"/>
<path d="M369.43 251.79C369.43 251.79 353.87 311.62 354.27 314.25C354.67 316.88 358.92 316.68 358.92 316.68L347.6 320.12L340.55 323.93L369.43 251.8V251.79Z" fill="#263238" stroke="#263238" stroke-miterlimit="10"/>
<path d="M305.89 249.46L305.02 251.52L294.79 275.73L282.61 303.89C282.61 303.89 275.03 316.07 277.47 317.16C279.91 318.24 298.86 320.14 306.17 321.49C313.48 322.84 337.04 325.28 340.56 323.93C344.08 322.58 344.35 321.22 345.7 317.97C347.05 314.72 367.09 258.94 368.99 254.07C370.89 249.2 372.51 246.76 368.99 246.76C365.47 246.76 366.55 248.93 350.85 248.66C335.15 248.39 319.44 246.49 316.19 246.22C312.94 245.95 308.88 242.7 305.9 249.47L305.89 249.46Z" fill="white" stroke="#263238" stroke-miterlimit="10"/>
</g>
<defs>
<clipPath id="clip0_138_2">
<rect width="484.55" height="464.26" fill="white"/>
</clipPath>
</defs>
</svg>
