<svg width="379" height="1147" viewBox="0 0 379 1147" fill="none" xmlns="http://www.w3.org/2000/svg">
<path d="M39 9V238.847C39 260.332 56.4171 277.749 77.9022 277.749H300.84C322.325 277.749 339.742 295.166 339.742 316.651V515.701C339.742 537.186 322.325 554.603 300.84 554.603H77.9022C56.4171 554.603 39 572.02 39 593.505V708.753V814.001C39 835.486 56.4171 852.903 77.9022 852.903H300.84C322.325 852.903 339.742 870.32 339.742 891.805V1136.9" stroke="#807671" stroke-width="4.53859"/>
<path d="M39 9V238.847C39 260.332 56.4171 277.749 77.9022 277.749H300.84C322.325 277.749 339.742 295.166 339.742 316.651V515.701C339.742 537.186 322.325 554.603 300.84 554.603H77.9022C56.4171 554.603 39 572.02 39 593.505V708.753V814.001C39 835.486 56.4171 852.903 77.9022 852.903H300.84C322.325 852.903 339.742 870.32 339.742 891.805V1136.9" stroke="#A3DA24" stroke-width="4.53859"/>
<path d="M39 9V238.847C39 260.332 56.4171 277.749 77.9022 277.749H300.84C322.325 277.749 339.742 295.166 339.742 316.651V515.701C339.742 537.186 322.325 554.603 300.84 554.603H77.9022C56.4171 554.603 39 572.02 39 593.505V708.753V814.001C39 835.486 56.4171 852.903 77.9022 852.903H300.84C322.325 852.903 339.742 870.32 339.742 891.805V1136.9" stroke="white" stroke-width="4.53859" stroke-dasharray="9.08 9.08"/>
<circle cx="39.4014" cy="9.40136" r="9.40136" fill="#A3DA24"/>
<circle cx="339.742" cy="477.547" r="9.40136" fill="#A3DA24"/>
<circle cx="340.401" cy="1137.4" r="9.40136" fill="#6F6663"/>
<path d="M33.5992 94.1488C37.18 92.0814 41.5917 92.0814 45.1725 94.1488L67.0087 106.756C70.5895 108.823 72.7954 112.644 72.7954 116.779V141.993C72.7954 146.128 70.5895 149.948 67.0087 152.016L45.1725 164.623C41.5917 166.69 37.18 166.69 33.5992 164.623L11.763 152.016C8.1822 149.948 5.97633 146.128 5.97633 141.993V116.779C5.97633 112.644 8.18221 108.823 11.763 106.756L33.5992 94.1488Z" fill="#A3DA24"/>
<path d="M57.0719 142.646L49.9897 135.564C49.6701 135.244 49.2368 135.067 48.7822 135.067H47.6243C49.5848 132.559 50.7498 129.405 50.7498 125.974C50.7498 117.812 44.1365 111.199 35.9745 111.199C27.8126 111.199 21.1992 117.812 21.1992 125.974C21.1992 134.136 27.8126 140.75 35.9745 140.75C39.4055 140.75 42.5595 139.585 45.067 137.624V138.782C45.067 139.237 45.2446 139.67 45.5643 139.99L52.6465 147.072C53.3142 147.74 54.3939 147.74 55.0546 147.072L57.0648 145.062C57.7326 144.394 57.7326 143.314 57.0719 142.646ZM35.9745 135.067C30.9523 135.067 26.882 131.004 26.882 125.974C26.882 120.952 30.9452 116.882 35.9745 116.882C40.9967 116.882 45.067 120.945 45.067 125.974C45.067 130.997 41.0038 135.067 35.9745 135.067Z" fill="#388500"/>
<path d="M333.791 378.341C337.372 376.274 341.784 376.274 345.365 378.341L367.201 390.948C370.782 393.015 372.988 396.836 372.988 400.971V426.185C372.988 430.32 370.782 434.141 367.201 436.208L345.365 448.815C341.784 450.882 337.372 450.882 333.791 448.815L311.955 436.208C308.374 434.141 306.168 430.32 306.168 426.185V400.971C306.168 396.836 308.374 393.015 311.955 390.948L333.791 378.341Z" fill="#A3DA24"/>
<path d="M333.727 427.669C333.727 428.115 333.859 428.553 334.107 428.925L335.321 430.75C335.529 431.062 335.81 431.318 336.14 431.495C336.471 431.672 336.839 431.765 337.214 431.765H341.598C341.973 431.765 342.341 431.672 342.672 431.495C343.002 431.318 343.283 431.062 343.49 430.75L344.705 428.925C344.952 428.553 345.085 428.116 345.085 427.669L345.088 424.944H333.723L333.727 427.669ZM326.902 407.894C326.902 411.047 328.071 413.922 329.997 416.12C331.171 417.459 333.006 420.256 333.706 422.616C333.709 422.635 333.711 422.653 333.714 422.672H345.097C345.1 422.653 345.102 422.635 345.105 422.616C345.805 420.256 347.641 417.459 348.814 416.12C350.74 413.922 351.909 411.047 351.909 407.894C351.909 400.976 346.29 395.37 339.367 395.391C332.12 395.413 326.902 401.286 326.902 407.894ZM339.406 402.211C336.272 402.211 333.722 404.761 333.722 407.894C333.722 408.522 333.214 409.031 332.586 409.031C331.958 409.031 331.449 408.522 331.449 407.894C331.449 403.507 335.018 399.938 339.406 399.938C340.034 399.938 340.542 400.447 340.542 401.075C340.542 401.703 340.034 402.211 339.406 402.211Z" fill="#388500"/>
<path d="M33.7913 670.341C37.3721 668.274 41.7839 668.274 45.3647 670.341L67.2008 682.948C70.7816 685.015 72.9875 688.836 72.9875 692.971V718.185C72.9875 722.32 70.7816 726.141 67.2008 728.208L45.3647 740.815C41.7839 742.882 37.3721 742.882 33.7913 740.815L11.9552 728.208C8.37434 726.141 6.16847 722.32 6.16847 718.185V692.971C6.16847 688.836 8.37435 685.015 11.9552 682.948L33.7913 670.341Z" fill="#A3DA24"/>
<path d="M51.6554 701.031H40.8561V705.01C40.8561 707.83 38.5612 710.125 35.7406 710.125C32.92 710.125 30.6251 707.83 30.6251 705.01V696.37L26.0141 699.141C24.6429 699.958 23.8045 701.443 23.8045 703.034V706.395L18.1207 709.677C17.0337 710.303 16.6571 711.695 17.2894 712.782L22.9733 722.63C23.5985 723.717 24.991 724.086 26.0781 723.461L33.4244 719.219H43.1296C45.6376 719.219 47.6767 717.18 47.6767 714.672H48.8134C50.071 714.672 51.087 713.656 51.087 712.399V707.852H51.6554C52.6003 707.852 53.3605 707.091 53.3605 706.146V702.736C53.3605 701.791 52.6003 701.031 51.6554 701.031ZM62.1492 698.374L56.4653 688.526C55.8401 687.439 54.4476 687.07 53.3605 687.695L46.0142 691.937H38.753C37.9005 691.937 37.0692 692.178 36.3445 692.626L33.9644 694.111C33.2966 694.523 32.8987 695.255 32.8987 696.036V705.01C32.8987 706.58 34.1704 707.852 35.7406 707.852C37.3108 707.852 38.5825 706.58 38.5825 705.01V698.757H51.6554C53.8508 698.757 55.6341 700.541 55.6341 702.736V704.761L61.3179 701.479C62.4049 700.846 62.7744 699.461 62.1492 698.374Z" fill="#388500"/>
<path d="M334.599 954.149C338.18 952.082 342.592 952.082 346.173 954.149L368.009 966.756C371.589 968.824 373.795 972.644 373.795 976.779V1001.99C373.795 1006.13 371.589 1009.95 368.009 1012.02L346.173 1024.62C342.592 1026.69 338.18 1026.69 334.599 1024.62L312.763 1012.02C309.182 1009.95 306.976 1006.13 306.976 1001.99V976.779C306.976 972.644 309.182 968.824 312.763 966.756L334.599 954.149Z" fill="#A3DA24"/>
<path d="M340.386 971.2C330.341 971.2 322.199 979.342 322.199 989.386C322.199 999.431 330.341 1007.57 340.386 1007.57C350.431 1007.57 358.573 999.431 358.573 989.386C358.573 979.342 350.431 971.2 340.386 971.2ZM346.421 997.424C346.135 997.708 345.835 998.007 345.591 998.251C345.372 998.471 345.217 998.742 345.139 999.036C345.028 999.452 344.939 999.871 344.789 1000.27L343.514 1003.71C342.505 1003.93 341.46 1004.05 340.386 1004.05V1002.05C340.51 1001.12 339.826 999.386 338.726 998.287C338.286 997.847 338.039 997.25 338.039 996.627V994.28C338.039 993.426 337.58 992.642 336.832 992.229C335.778 991.646 334.279 990.831 333.253 990.314C332.411 989.89 331.632 989.351 330.932 988.719L330.873 988.666C330.372 988.214 329.928 987.704 329.549 987.145C328.861 986.136 327.74 984.475 327.012 983.395C328.513 980.058 331.219 977.379 334.58 975.923L336.341 976.804C337.121 977.194 338.039 976.627 338.039 975.754V974.926C338.625 974.831 339.221 974.771 339.828 974.748L341.903 976.824C342.362 977.282 342.362 978.025 341.903 978.483L341.559 978.826L340.801 979.585C340.572 979.813 340.572 980.185 340.801 980.414L341.145 980.758C341.374 980.987 341.374 981.359 341.145 981.587L340.558 982.174C340.448 982.284 340.299 982.346 340.143 982.346H339.484C339.331 982.346 339.185 982.405 339.075 982.512L338.347 983.22C338.258 983.307 338.199 983.42 338.178 983.542C338.157 983.665 338.176 983.791 338.231 983.903L339.375 986.19C339.57 986.58 339.286 987.039 338.85 987.039H338.437C338.295 987.039 338.159 986.988 338.053 986.895L337.372 986.304C337.218 986.171 337.032 986.079 336.832 986.04C336.632 986 336.425 986.013 336.232 986.077L333.946 986.839C333.771 986.897 333.62 987.009 333.512 987.158C333.404 987.307 333.347 987.487 333.347 987.67C333.347 988.003 333.534 988.306 333.831 988.454L334.644 988.861C335.334 989.206 336.095 989.386 336.867 989.386C337.638 989.386 338.523 991.387 339.213 991.732H344.108C344.731 991.732 345.327 991.98 345.768 992.42L346.772 993.423C347.191 993.843 347.427 994.412 347.427 995.005C347.427 995.455 347.338 995.9 347.165 996.315C346.992 996.73 346.739 997.107 346.421 997.424ZM352.779 990.725C352.355 990.618 351.984 990.358 351.742 989.994L350.423 988.016C350.23 987.727 350.127 987.387 350.127 987.04C350.127 986.692 350.23 986.353 350.423 986.064L351.86 983.909C352.03 983.655 352.263 983.448 352.537 983.312L353.489 982.836C354.481 984.81 355.053 987.03 355.053 989.386C355.053 990.022 354.998 990.645 354.919 991.259L352.779 990.725Z" fill="#388500"/>
</svg>
