<svg width="385" height="385" viewBox="0 0 385 385" fill="none" xmlns="http://www.w3.org/2000/svg">
<path d="M296.227 105.527C293.659 100.551 290.967 95.6501 287.905 90.98C252.564 37.087 157.915 7.74842 111.016 63.4533C99.8381 76.7304 95.9419 92.7741 88.4182 108C71.3065 142.631 39.3353 163.335 19.2884 195.402C3.74898 220.26 5.82105 252.119 14.4897 278.991C23.9099 308.192 40.4872 328.585 67.0045 344.088C96.7319 361.466 128.527 356.642 160.66 350.594C175.11 347.874 190.01 345.099 204.785 346.137C223.284 347.437 241.549 352.672 259.903 355.218C278.99 357.864 298.795 358.49 317.181 352.722C376.066 334.252 390.016 247.694 365.801 198.111C357.229 180.56 342.702 167.019 329.213 153.281C314.652 138.451 305.727 123.937 296.227 105.527Z" fill="#388500"/>
<path opacity="0.7" d="M296.227 105.527C293.659 100.551 290.967 95.6501 287.905 90.98C252.564 37.087 157.915 7.74842 111.016 63.4533C99.8381 76.7304 95.9419 92.7741 88.4182 108C71.3065 142.631 39.3353 163.335 19.2884 195.402C3.74898 220.26 5.82105 252.119 14.4897 278.991C23.9099 308.192 40.4872 328.585 67.0045 344.088C96.7319 361.466 128.527 356.642 160.66 350.594C175.11 347.874 190.01 345.099 204.785 346.137C223.284 347.437 241.549 352.672 259.903 355.218C278.99 357.864 298.795 358.49 317.181 352.722C376.066 334.252 390.016 247.694 365.801 198.111C357.229 180.56 342.702 167.019 329.213 153.281C314.652 138.451 305.727 123.937 296.227 105.527Z" fill="white"/>
<path d="M333.217 224.089C332.848 222.616 331.877 220.325 329.32 218.465C325.195 215.465 318.821 217.34 318.821 217.34C319.196 207.591 312.446 194.842 298.572 194.842C284.698 194.842 281.323 206.091 281.323 206.091C281.323 206.091 276.073 199.716 267.449 203.091C258.825 206.466 258.45 217.715 258.45 217.715C258.45 217.715 252.826 211.715 246.826 213.59C241.858 215.142 240.234 221.833 239.822 224.089H333.217V224.089Z" fill="#263238"/>
<path d="M329.76 221.065C329.39 219.591 328.42 217.3 325.863 215.44C321.738 212.44 315.364 214.315 315.364 214.315C315.739 204.566 308.989 191.817 295.115 191.817C281.241 191.817 277.866 203.066 277.866 203.066C277.866 203.066 272.616 196.691 263.992 200.066C255.368 203.441 254.993 214.69 254.993 214.69C254.993 214.69 249.368 208.69 243.369 210.565C238.401 212.117 236.777 218.809 236.365 221.064H329.76V221.065Z" fill="white" stroke="#263238" stroke-width="0.77" stroke-miterlimit="10"/>
<path d="M161.306 330.149C160.936 328.676 159.966 326.385 157.409 324.524C153.284 321.525 146.91 323.4 146.91 323.4C147.285 313.651 140.535 300.901 126.661 300.901C112.787 300.901 109.413 312.15 109.413 312.15C109.413 312.15 104.163 305.775 95.5387 309.15C86.9147 312.525 86.5397 323.774 86.5397 323.774C86.5397 323.774 80.9149 317.774 74.9158 319.649C69.9478 321.201 68.3231 327.892 67.9111 330.148H161.306V330.149Z" fill="#263238"/>
<path d="M158.281 327.124C157.912 325.65 156.942 323.36 154.384 321.499C150.259 318.499 143.885 320.374 143.885 320.374C144.26 310.625 137.51 297.876 123.636 297.876C109.762 297.876 106.387 309.125 106.387 309.125C106.387 309.125 101.137 302.751 92.5133 306.125C83.8893 309.5 83.5144 320.749 83.5144 320.749C83.5144 320.749 77.8895 314.749 71.8904 316.624C66.9224 318.177 65.2977 324.868 64.8857 327.123H158.281V327.124Z" fill="white" stroke="#263238" stroke-width="0.77" stroke-miterlimit="10"/>
<path d="M264.537 278.725C264.572 279.092 264.884 279.377 265.259 279.37C296.461 278.764 325.574 261.627 341.238 234.649C341.435 234.31 341.32 233.873 340.98 233.676C340.64 233.479 340.204 233.595 340.007 233.934C324.591 260.485 295.939 277.35 265.232 277.947C264.839 277.954 264.526 278.279 264.534 278.672C264.535 278.689 264.536 278.707 264.537 278.725Z" fill="#263238"/>
<path d="M289.7 261.469C293.052 269.506 281.149 276.981 280.885 276.73C279.429 277.071 277.96 277.377 276.477 277.646C278.21 276.632 280.366 272.201 280.866 265.66C281.597 259.193 286.79 253.695 289.7 261.469Z" fill="#263238"/>
<path d="M298.299 285.098C301.305 293.098 289.527 292.969 285.775 287.201C281.912 281.674 278.427 278.265 276.495 277.77C277.994 277.602 279.486 277.395 280.968 277.153C280.912 277.485 295.174 277.63 298.299 285.098Z" fill="#263238"/>
<path d="M301.418 256.042C306.055 263.402 295.715 272.72 295.431 272.518C294.074 273.094 292.701 273.638 291.31 274.148C292.813 272.862 294.144 268.144 293.507 261.621C293.102 255.134 297.239 248.867 301.418 256.042Z" fill="#263238"/>
<path d="M313.865 277.889C318.164 285.27 306.627 287.081 301.992 282.021C297.28 277.215 293.307 274.435 291.349 274.268C292.774 273.853 294.186 273.404 295.586 272.919C295.572 273.254 309.518 271.051 313.865 277.889Z" fill="#263238"/>
<path d="M312.015 248.761C317.808 255.247 309.216 266.131 308.915 265.976C307.683 266.767 306.43 267.528 305.157 268.26C306.408 266.747 306.909 261.882 305.177 255.565C303.675 249.246 306.692 242.388 312.015 248.761Z" fill="#263238"/>
<path d="M327.941 268.217C333.41 274.778 322.361 278.472 316.963 274.251C311.523 270.296 307.159 268.212 305.215 268.369C306.538 267.727 307.844 267.052 309.134 266.345C309.166 266.681 322.501 262.207 327.941 268.217Z" fill="#263238"/>
<path d="M321.262 239.796C328.055 245.228 321.383 257.412 321.067 257.302C319.985 258.286 318.878 259.245 317.748 260.176C318.724 258.479 318.403 253.602 315.641 247.663C313.102 241.688 314.945 234.409 321.262 239.796Z" fill="#263238"/>
<path d="M340.225 256.308C346.713 261.865 336.413 267.379 330.387 264.114C324.361 261.125 319.712 259.798 317.825 260.275C319.019 259.423 320.193 258.541 321.346 257.629C321.426 257.962 333.847 251.305 340.225 256.308Z" fill="#263238"/>
<path d="M328.931 229.317C336.545 233.535 331.951 246.761 331.623 246.693C330.717 247.851 329.782 248.986 328.82 250.097C329.502 248.256 328.378 243.492 324.666 238.092C321.168 232.621 321.793 225.08 328.931 229.317Z" fill="#263238"/>
<path d="M350.411 242.39C357.744 246.778 348.461 254.04 341.965 251.835C335.512 249.913 330.697 249.392 328.912 250.183C329.95 249.139 330.964 248.068 331.954 246.97C332.084 247.298 343.275 238.555 350.411 242.39Z" fill="#263238"/>
<path d="M337.027 240.037C337.078 240.263 346.953 232.235 350.03 225.984C353.232 219.933 349.447 216.096 346.468 216.348C343.469 216.552 341.413 220.859 340.472 224.753C339.851 228.676 337.238 240.041 337.027 240.037Z" fill="#263238"/>
<path d="M336.554 240.081C336.556 240.102 336.559 240.123 336.564 240.143C336.608 240.338 336.778 240.489 336.977 240.512C336.991 240.514 337.007 240.513 337.024 240.511C337.157 240.514 337.258 240.513 337.368 240.367C339.42 239.219 347.811 231.565 350.455 226.194C352.032 223.214 352.139 220.285 350.736 218.164C349.727 216.638 348.035 215.739 346.428 215.875C342.372 216.151 340.49 222.655 340.01 224.641C339.404 228.467 337.02 238.812 336.645 239.753C336.575 239.848 336.543 239.965 336.554 240.081ZM350.754 221.052C350.867 222.257 350.635 223.825 349.61 225.762C347.183 230.693 340.545 236.672 337.914 238.81C338.168 237.845 338.52 236.335 339.058 233.974C339.749 230.931 340.607 226.93 340.94 224.828C341.842 221.098 343.783 217.007 346.5 216.822C347.774 216.714 349.123 217.447 349.944 218.688C350.277 219.191 350.653 219.977 350.754 221.052Z" fill="#263238"/>
<path d="M234.169 315.279C233.971 315.362 233.868 315.585 233.937 315.793C239.708 333.043 254.311 346.254 272.046 350.268C272.269 350.319 272.492 350.179 272.542 349.956C272.593 349.732 272.453 349.51 272.23 349.46C254.775 345.509 240.404 332.508 234.724 315.53C234.651 315.313 234.416 315.196 234.199 315.268C234.189 315.271 234.179 315.275 234.169 315.279Z" fill="#263238"/>
<path d="M248.151 326.27C244.264 329.535 238.032 324.215 238.126 324.025C237.683 323.274 237.257 322.51 236.849 321.733C237.715 322.52 240.555 322.948 244.281 322.087C248.005 321.366 251.969 323.297 248.151 326.27Z" fill="#263238"/>
<path d="M236.505 335.169C232.578 338.235 230.598 331.66 233.154 328.569C235.555 325.457 236.845 322.925 236.783 321.763C237.138 322.568 237.513 323.362 237.906 324.144C237.711 324.171 240.114 332.13 236.505 335.169Z" fill="#263238"/>
<path d="M253.21 331.844C249.924 335.706 242.94 331.577 243.003 331.384C242.447 330.729 241.905 330.06 241.379 329.376C242.356 329.988 245.212 329.906 248.73 328.416C252.267 327.059 256.474 328.27 253.21 331.844Z" fill="#263238"/>
<path d="M243.226 342.572C239.869 346.249 236.852 340.147 238.86 336.688C240.712 333.229 241.567 330.536 241.319 329.417C241.798 330.137 242.294 330.845 242.807 331.539C242.618 331.59 246.272 338.963 243.226 342.572Z" fill="#263238"/>
<path d="M259.107 336.47C256.508 340.822 248.957 337.938 248.99 337.744C248.336 337.196 247.694 336.632 247.065 336.051C248.125 336.483 250.919 335.915 254.13 333.851C257.384 331.916 261.725 332.4 259.107 336.47Z" fill="#263238"/>
<path d="M251.058 348.718C248.361 352.903 244.381 347.401 245.789 343.663C247.042 339.948 247.441 337.158 247.015 336.104C247.602 336.727 248.205 337.336 248.823 337.931C248.642 338.006 253.453 344.645 251.058 348.718Z" fill="#263238"/>
<path d="M265.704 340.053C263.865 344.778 255.926 343.188 255.932 342.993C255.196 342.562 254.47 342.114 253.755 341.647C254.869 341.895 257.527 340.867 260.349 338.296C263.23 335.843 267.601 335.601 265.704 340.053Z" fill="#263238"/>
<path d="M259.821 353.477C257.86 358.054 252.999 353.285 253.765 349.364C254.378 345.492 254.307 342.674 253.713 341.708C254.395 342.224 255.089 342.723 255.798 343.205C255.627 343.308 261.493 349.058 259.821 353.477Z" fill="#263238"/>
<path d="M272.868 342.494C271.849 347.464 263.69 347.213 263.671 347.019C262.869 346.716 262.075 346.394 261.289 346.052C262.431 346.112 264.886 344.656 267.244 341.65C269.678 338.751 273.982 337.786 272.868 342.494Z" fill="#263238"/>
<path d="M269.338 356.719C268.174 361.563 262.518 357.664 262.612 353.666C262.558 349.742 262.01 346.972 261.258 346.117C262.02 346.513 262.792 346.891 263.575 347.249C263.415 347.379 270.228 352.082 269.338 356.719Z" fill="#263238"/>
<path d="M268.315 348.863C268.199 348.932 274.383 353.026 278.397 353.649C282.321 354.376 283.796 351.603 283.137 349.989C282.501 348.356 279.747 347.962 277.416 348.117C275.127 348.457 268.35 348.982 268.315 348.863Z" fill="#263238"/>
<path d="M268.209 348.608C268.197 348.613 268.187 348.618 268.176 348.624C268.075 348.683 268.02 348.804 268.043 348.918C268.044 348.926 268.047 348.934 268.052 348.944C268.073 349.018 268.091 349.075 268.192 349.111C269.188 350.053 274.906 353.387 278.355 353.922C280.287 354.281 281.936 353.829 282.871 352.68C283.545 351.853 283.75 350.756 283.394 349.885C282.534 347.676 278.588 347.763 277.4 347.841C275.166 348.17 268.997 348.646 268.408 348.602C268.342 348.58 268.271 348.582 268.209 348.608ZM281.267 353.193C280.617 353.467 279.704 353.61 278.448 353.377C275.283 352.886 270.801 350.235 269.154 349.144C269.735 349.117 270.636 349.051 272.043 348.938C273.857 348.792 276.232 348.573 277.459 348.392C279.691 348.244 282.304 348.611 282.881 350.09C283.163 350.781 282.991 351.659 282.443 352.331C282.219 352.604 281.847 352.95 281.267 353.193Z" fill="#263238"/>
<path d="M152.927 319.885C153.124 319.968 153.228 320.191 153.159 320.399C147.388 337.65 132.785 350.861 115.05 354.875C114.827 354.925 114.604 354.785 114.554 354.562C114.503 354.339 114.643 354.116 114.866 354.066C132.321 350.115 146.692 337.114 152.372 320.136C152.445 319.919 152.68 319.802 152.897 319.874C152.907 319.877 152.917 319.881 152.927 319.885Z" fill="#263238"/>
<path d="M138.946 330.877C142.833 334.142 149.064 328.822 148.97 328.631C149.414 327.881 149.84 327.117 150.248 326.339C149.382 327.126 146.542 327.554 142.816 326.693C139.091 325.973 135.128 327.904 138.946 330.877Z" fill="#263238"/>
<path d="M150.592 339.775C154.519 342.84 156.499 336.266 153.943 333.175C151.541 330.063 150.252 327.531 150.313 326.369C149.958 327.174 149.584 327.968 149.19 328.75C149.385 328.777 146.982 336.736 150.592 339.775Z" fill="#263238"/>
<path d="M133.885 336.45C137.172 340.311 144.155 336.183 144.093 335.989C144.65 335.336 145.192 334.666 145.718 333.981C144.741 334.593 141.884 334.512 138.367 333.022C134.829 331.666 130.623 332.875 133.885 336.45Z" fill="#263238"/>
<path d="M143.871 347.178C147.228 350.855 150.245 344.752 148.237 341.294C146.385 337.835 145.529 335.141 145.777 334.023C145.298 334.743 144.802 335.451 144.29 336.145C144.478 336.195 140.824 343.569 143.871 347.178Z" fill="#263238"/>
<path d="M127.989 341.076C130.588 345.428 138.14 342.544 138.106 342.35C138.76 341.803 139.402 341.238 140.031 340.658C138.971 341.09 136.178 340.521 132.966 338.458C129.713 336.521 125.372 337.005 127.989 341.076Z" fill="#263238"/>
<path d="M136.039 353.324C138.736 357.508 142.716 352.006 141.307 348.268C140.055 344.553 139.656 341.763 140.082 340.709C139.495 341.332 138.892 341.941 138.274 342.536C138.454 342.611 133.644 349.25 136.039 353.324Z" fill="#263238"/>
<path d="M121.392 344.659C123.231 349.384 131.17 347.794 131.164 347.599C131.9 347.168 132.626 346.72 133.341 346.253C132.227 346.501 129.57 345.473 126.747 342.902C123.867 340.449 119.496 340.207 121.392 344.659Z" fill="#263238"/>
<path d="M127.276 358.084C129.237 362.661 134.098 357.891 133.332 353.971C132.719 350.098 132.79 347.281 133.384 346.314C132.702 346.83 132.007 347.329 131.299 347.812C131.47 347.915 125.603 353.665 127.276 358.084Z" fill="#263238"/>
<path d="M114.228 347.1C115.248 352.069 123.405 351.818 123.425 351.624C124.227 351.322 125.021 351 125.807 350.658C124.664 350.717 122.209 349.261 119.851 346.256C117.418 343.357 113.114 342.391 114.228 347.1Z" fill="#263238"/>
<path d="M117.759 361.324C118.923 366.168 124.579 362.269 124.484 358.271C124.539 354.347 125.087 351.577 125.838 350.723C125.077 351.118 124.304 351.496 123.521 351.855C123.681 351.985 116.868 356.687 117.759 361.324Z" fill="#263238"/>
<path d="M118.781 353.469C118.898 353.538 112.712 357.632 108.699 358.255C104.775 358.982 103.3 356.209 103.959 354.595C104.595 352.963 107.349 352.568 109.679 352.723C111.969 353.062 118.746 353.588 118.781 353.469Z" fill="#263238"/>
<path d="M118.888 353.214C118.9 353.219 118.91 353.224 118.921 353.23C119.022 353.29 119.077 353.41 119.054 353.525C119.053 353.532 119.05 353.541 119.045 353.551C119.024 353.625 119.006 353.681 118.905 353.717C117.909 354.659 112.19 357.993 108.742 358.528C106.81 358.887 105.161 358.436 104.226 357.286C103.553 356.459 103.347 355.362 103.703 354.491C104.563 352.283 108.509 352.369 109.697 352.447C111.931 352.776 118.1 353.252 118.689 353.208C118.755 353.186 118.825 353.188 118.888 353.214ZM105.83 357.8C106.48 358.073 107.393 358.216 108.649 357.984C111.814 357.492 116.296 354.841 117.943 353.75C117.362 353.723 116.461 353.657 115.054 353.544C113.24 353.398 110.865 353.179 109.638 352.998C107.406 352.85 104.792 353.217 104.216 354.696C103.934 355.387 104.106 356.265 104.654 356.937C104.877 357.211 105.25 357.556 105.83 357.8Z" fill="#263238"/>
<path d="M125.829 278.725C125.794 279.092 125.482 279.377 125.107 279.37C93.9054 278.764 64.7917 261.627 49.1284 234.649C48.9312 234.31 49.046 233.873 49.3863 233.676C49.7259 233.479 50.1617 233.595 50.3588 233.934C65.775 260.485 94.4267 277.35 125.134 277.947C125.527 277.954 125.84 278.279 125.832 278.672C125.832 278.689 125.83 278.707 125.829 278.725Z" fill="#263238"/>
<path d="M100.667 261.469C97.3147 269.506 109.218 276.981 109.481 276.73C110.938 277.071 112.407 277.377 113.89 277.646C112.157 276.632 110 272.201 109.501 265.66C108.769 259.193 103.577 253.695 100.667 261.469Z" fill="#263238"/>
<path d="M92.0663 285.098C89.061 293.098 100.839 292.969 104.59 287.201C108.454 281.674 111.938 278.265 113.871 277.77C112.372 277.602 110.88 277.395 109.397 277.153C109.454 277.485 95.1925 277.63 92.0663 285.098Z" fill="#263238"/>
<path d="M88.9481 256.042C84.3112 263.403 94.6507 272.721 94.9341 272.518C96.2908 273.095 97.6645 273.638 99.0551 274.149C97.5521 272.863 96.2208 268.144 96.8583 261.622C97.2649 255.134 93.1269 248.867 88.9481 256.042Z" fill="#263238"/>
<path d="M76.5011 277.889C72.2022 285.27 83.7391 287.081 88.3738 282.021C93.0862 277.215 97.0586 274.435 99.0167 274.268C97.5922 273.853 96.18 273.404 94.7802 272.919C94.794 273.254 80.8493 271.051 76.5011 277.889Z" fill="#263238"/>
<path d="M78.3513 248.761C72.5586 255.247 81.151 266.131 81.4521 265.976C82.6841 266.767 83.9369 267.528 85.2097 268.26C83.9592 266.747 83.4587 261.882 85.1896 255.565C86.6911 249.246 83.6735 242.388 78.3513 248.761Z" fill="#263238"/>
<path d="M62.4246 268.217C56.9561 274.778 68.0048 278.472 73.4033 274.251C78.8433 270.296 83.2069 268.212 85.1512 268.369C83.8291 267.727 82.5216 267.052 81.2327 266.345C81.2011 266.681 67.8647 262.207 62.4246 268.217Z" fill="#263238"/>
<path d="M69.1037 239.796C62.3107 245.228 68.9828 257.412 69.2993 257.302C70.3811 258.286 71.4876 259.245 72.618 260.176C71.6416 258.479 71.9635 253.602 74.7255 247.663C77.2649 241.688 75.4215 234.409 69.1037 239.796Z" fill="#263238"/>
<path d="M50.1416 256.308C43.6536 261.865 53.9539 267.379 59.9799 264.114C66.0059 261.125 70.6552 259.798 72.5417 260.275C71.3474 259.423 70.1739 258.541 69.0213 257.629C68.9412 257.962 56.5195 251.305 50.1416 256.308Z" fill="#263238"/>
<path d="M61.4359 229.317C53.8222 233.535 58.4152 246.761 58.7432 246.693C59.6495 247.851 60.5843 248.986 61.5468 250.097C60.8646 248.256 61.9888 243.492 65.701 238.092C69.1991 232.621 68.5731 225.08 61.4359 229.317Z" fill="#263238"/>
<path d="M39.9562 242.39C32.6227 246.778 41.9058 254.04 48.4023 251.835C54.8549 249.913 59.6697 249.392 61.4546 250.183C60.4166 249.139 59.4025 248.068 58.4131 246.97C58.283 247.298 47.0918 238.555 39.9562 242.39Z" fill="#263238"/>
<path d="M53.3402 240.037C53.2878 240.263 43.4141 232.235 40.3372 225.984C37.1348 219.933 40.9193 216.096 43.8985 216.348C46.8976 216.552 48.9551 220.859 49.8952 224.753C50.5151 228.676 53.1285 240.041 53.3402 240.037Z" fill="#263238"/>
<path d="M53.813 240.081C53.8107 240.102 53.8076 240.123 53.803 240.143C53.7583 240.338 53.5889 240.489 53.3895 240.512C53.3756 240.514 53.3602 240.513 53.3425 240.511C53.2101 240.514 53.1084 240.513 52.9983 240.367C50.9463 239.219 42.5556 231.565 39.9122 226.194C38.3344 223.214 38.2282 220.285 39.6311 218.164C40.6398 216.638 42.3307 215.739 43.9385 215.875C47.9949 216.151 49.8767 222.655 50.3564 224.641C50.9632 228.467 53.3471 238.812 53.7213 239.753C53.7914 239.848 53.8238 239.965 53.813 240.081ZM39.6126 221.052C39.4994 222.257 39.732 223.825 40.7569 225.762C43.1839 230.693 49.8213 236.672 52.4524 238.81C52.1983 237.845 51.8456 236.335 51.3082 233.974C50.6167 230.931 49.7589 226.93 49.4263 224.828C48.5238 221.098 46.5834 217.007 43.8661 216.822C42.591 216.714 41.2427 217.447 40.4219 218.688C40.0885 219.191 39.7135 219.977 39.6126 221.052Z" fill="#263238"/>
<path d="M125.736 179.631C112.085 179.653 101.026 190.163 101.026 203.126C101.026 203.192 101.026 203.257 101.026 203.321C101.087 210.373 106.952 216.039 114.002 215.862C115.097 215.835 116.265 215.891 117.432 216.079C119.768 216.456 121.577 217.826 122.804 219.41C123.481 220.286 124.499 220.838 125.606 220.843C125.649 220.843 125.693 220.843 125.736 220.843C125.779 220.843 125.823 220.843 125.866 220.843C126.972 220.839 127.991 220.286 128.668 219.41C129.894 217.826 131.702 216.456 134.039 216.079C135.207 215.891 136.375 215.834 137.47 215.862C144.52 216.038 150.384 210.373 150.445 203.321C150.446 203.257 150.446 203.192 150.446 203.126C150.447 190.163 139.388 179.653 125.736 179.631Z" fill="#388500"/>
<path d="M134.284 208.507L128.818 209.689L135.341 201.561L126.433 209.865L126.379 210.441L125.981 201.712L125.352 215.498L116.568 207.311L123.092 215.437L117.625 214.255L124.535 217.236L125.233 218.105L124.018 244.741H127.943L126.477 212.605L127.374 211.487L134.284 208.507Z" fill="#263238"/>
<path d="M118.385 201.37C118.385 201.37 117.564 199.024 115.804 198.202C114.044 197.38 112.871 197.146 112.871 197.146C112.871 197.146 113.809 201.956 118.385 201.37Z" fill="white"/>
<path d="M120.511 195.132C120.511 195.132 120.376 192.649 118.914 191.37C117.453 190.091 116.391 189.539 116.391 189.539C116.391 189.539 115.953 194.421 120.511 195.132Z" fill="white"/>
<path d="M140.067 214.142C140.067 214.142 138.492 212.218 136.558 212.048C134.623 211.879 133.44 212.059 133.44 212.059C133.44 212.059 135.967 216.259 140.067 214.142Z" fill="white"/>
<path d="M109.34 213.554C109.34 213.554 110.915 211.629 112.849 211.46C114.784 211.29 115.967 211.471 115.967 211.471C115.967 211.471 113.44 215.67 109.34 213.554Z" fill="white"/>
<path d="M113.588 193.02C113.588 193.02 113.453 190.538 111.991 189.259C110.53 187.98 109.468 187.428 109.468 187.428C109.468 187.428 109.03 192.309 113.588 193.02Z" fill="white"/>
<path d="M136.585 194.428C136.585 194.428 136.72 191.945 138.182 190.667C139.643 189.388 140.705 188.835 140.705 188.835C140.705 188.835 141.143 193.717 136.585 194.428Z" fill="white"/>
<path d="M125.136 191.235C125.136 191.235 126.57 189.204 126.217 187.294C125.863 185.385 125.374 184.293 125.374 184.293C125.374 184.293 122.002 187.85 125.136 191.235Z" fill="white"/>
<path d="M126.733 200.581C126.733 200.581 126.965 198.106 125.709 196.625C124.452 195.144 123.484 194.441 123.484 194.441C123.484 194.441 122.33 199.204 126.733 200.581Z" fill="white"/>
<path d="M120.828 189.274C120.828 189.274 121.57 186.902 120.649 185.192C119.727 183.482 118.927 182.593 118.927 182.593C118.927 182.593 116.807 187.012 120.828 189.274Z" fill="white"/>
<path d="M122.705 207.694C122.705 207.694 123.447 205.322 122.526 203.612C121.605 201.903 120.804 201.013 120.804 201.013C120.804 201.013 118.684 205.433 122.705 207.694Z" fill="white"/>
<path d="M128.267 204.908C128.267 204.908 130.366 203.577 130.768 201.677C131.17 199.776 131.133 198.581 131.133 198.581C131.133 198.581 126.66 200.583 128.267 204.908Z" fill="white"/>
<path d="M128.516 189.274C128.516 189.274 127.774 186.902 128.695 185.192C129.616 183.482 130.417 182.593 130.417 182.593C130.417 182.593 132.537 187.012 128.516 189.274Z" fill="white"/>
<path d="M131.444 195.239C131.444 195.239 133.539 193.9 133.933 191.998C134.327 190.096 134.286 188.9 134.286 188.9C134.286 188.9 129.82 190.92 131.444 195.239Z" fill="white"/>
<path d="M137.094 201.737C137.094 201.737 139.501 201.113 140.465 199.428C141.43 197.742 141.761 196.592 141.761 196.592C141.761 196.592 136.888 197.129 137.094 201.737Z" fill="white"/>
<path d="M137.634 207.541C137.634 207.541 139.891 208.582 141.705 207.888C143.519 207.195 144.503 206.514 144.503 206.514C144.503 206.514 140.394 203.844 137.634 207.541Z" fill="white"/>
<path d="M140.802 202.261C140.802 202.261 143.059 203.303 144.873 202.609C146.687 201.915 147.671 201.234 147.671 201.234C147.671 201.234 143.562 198.565 140.802 202.261Z" fill="white"/>
<path d="M109.196 205.634C109.196 205.634 110.713 207.604 112.642 207.831C114.571 208.058 115.758 207.913 115.758 207.913C115.758 207.913 113.356 203.64 109.196 205.634Z" fill="white"/>
<path d="M104.268 198.829C104.268 198.829 105.785 200.799 107.714 201.026C109.643 201.253 110.831 201.107 110.831 201.107C110.831 201.107 108.428 196.834 104.268 198.829Z" fill="white"/>
<path d="M270.644 211.876C257.957 211.897 247.677 221.665 247.677 233.714C247.677 233.775 247.677 233.835 247.678 233.895C247.734 240.45 253.185 245.715 259.738 245.552C260.756 245.526 261.841 245.579 262.927 245.753C265.098 246.104 266.779 247.377 267.918 248.85C268.548 249.663 269.495 250.177 270.523 250.18C270.563 250.18 270.604 250.18 270.644 250.18C270.684 250.18 270.725 250.18 270.765 250.18C271.794 250.176 272.74 249.663 273.37 248.85C274.51 247.377 276.191 246.104 278.362 245.753C279.448 245.579 280.533 245.526 281.551 245.552C288.102 245.715 293.553 240.45 293.61 233.895C293.611 233.835 293.611 233.775 293.611 233.714C293.61 221.665 283.332 211.896 270.644 211.876Z" fill="#388500"/>
<path d="M278.588 238.714L273.508 239.812L279.571 232.26L271.292 239.977L271.24 240.512L270.871 232.4L270.286 245.212L262.123 237.603L268.185 245.156L263.104 244.057L269.527 246.828L270.175 247.636L269.046 272.392H272.695L271.333 242.524L272.166 241.485L278.588 238.714Z" fill="#263238"/>
<path d="M263.811 232.081C263.811 232.081 263.048 229.899 261.412 229.136C259.776 228.373 258.685 228.154 258.685 228.154C258.685 228.154 259.558 232.626 263.811 232.081Z" fill="white"/>
<path d="M265.787 226.283C265.787 226.283 265.662 223.976 264.302 222.787C262.944 221.599 261.957 221.086 261.957 221.086C261.957 221.086 261.551 225.623 265.787 226.283Z" fill="white"/>
<path d="M283.963 243.951C283.963 243.951 282.5 242.163 280.701 242.005C278.903 241.847 277.803 242.015 277.803 242.015C277.803 242.015 280.153 245.918 283.963 243.951Z" fill="white"/>
<path d="M255.404 243.405C255.404 243.405 256.868 241.616 258.666 241.459C260.464 241.302 261.564 241.469 261.564 241.469C261.564 241.469 259.214 245.373 255.404 243.405Z" fill="white"/>
<path d="M259.353 224.321C259.353 224.321 259.227 222.014 257.869 220.825C256.511 219.636 255.524 219.124 255.524 219.124C255.524 219.124 255.116 223.66 259.353 224.321Z" fill="white"/>
<path d="M280.727 225.63C280.727 225.63 280.852 223.323 282.21 222.134C283.569 220.945 284.556 220.433 284.556 220.433C284.556 220.433 284.963 224.969 280.727 225.63Z" fill="white"/>
<path d="M270.086 222.661C270.086 222.661 271.418 220.773 271.09 218.998C270.762 217.223 270.306 216.208 270.306 216.208C270.306 216.208 267.173 219.515 270.086 222.661Z" fill="white"/>
<path d="M271.57 231.348C271.57 231.348 271.786 229.047 270.618 227.671C269.45 226.295 268.55 225.641 268.55 225.641C268.55 225.641 267.477 230.069 271.57 231.348Z" fill="white"/>
<path d="M266.081 220.839C266.081 220.839 266.771 218.634 265.915 217.044C265.059 215.455 264.314 214.629 264.314 214.629C264.314 214.629 262.344 218.737 266.081 220.839Z" fill="white"/>
<path d="M267.826 237.96C267.826 237.96 268.516 235.754 267.66 234.165C266.804 232.576 266.059 231.75 266.059 231.75C266.059 231.75 264.089 235.857 267.826 237.96Z" fill="white"/>
<path d="M272.995 235.369C272.995 235.369 274.947 234.133 275.321 232.366C275.694 230.601 275.66 229.489 275.66 229.489C275.66 229.489 271.502 231.35 272.995 235.369Z" fill="white"/>
<path d="M273.227 220.839C273.227 220.839 272.537 218.634 273.393 217.044C274.249 215.455 274.994 214.629 274.994 214.629C274.994 214.629 276.964 218.737 273.227 220.839Z" fill="white"/>
<path d="M275.948 226.382C275.948 226.382 277.895 225.138 278.262 223.37C278.628 221.603 278.59 220.491 278.59 220.491C278.59 220.491 274.44 222.368 275.948 226.382Z" fill="white"/>
<path d="M281.199 232.423C281.199 232.423 283.436 231.843 284.333 230.276C285.229 228.709 285.537 227.64 285.537 227.64C285.537 227.64 281.009 228.139 281.199 232.423Z" fill="white"/>
<path d="M281.701 237.816C281.701 237.816 283.8 238.784 285.486 238.139C287.171 237.494 288.087 236.862 288.087 236.862C288.087 236.862 284.266 234.381 281.701 237.816Z" fill="white"/>
<path d="M284.646 232.909C284.646 232.909 286.744 233.877 288.431 233.232C290.117 232.586 291.032 231.954 291.032 231.954C291.032 231.954 287.211 229.473 284.646 232.909Z" fill="white"/>
<path d="M255.271 236.044C255.271 236.044 256.68 237.875 258.473 238.086C260.265 238.297 261.37 238.161 261.37 238.161C261.37 238.161 259.137 234.19 255.271 236.044Z" fill="white"/>
<path d="M250.69 229.719C250.69 229.719 252.1 231.55 253.893 231.761C255.685 231.972 256.79 231.837 256.79 231.837C256.79 231.837 254.557 227.866 250.69 229.719Z" fill="white"/>
<path d="M99.7966 273.413C89.4201 280.714 86.6119 294.613 93.5296 304.479C93.5643 304.528 93.5989 304.577 93.6335 304.626C97.4427 309.96 104.929 311.142 110.199 307.246C111.018 306.641 111.936 306.06 112.926 305.581C114.905 304.62 117.012 304.698 118.791 305.249C119.774 305.554 120.843 305.431 121.688 304.844C121.721 304.821 121.754 304.797 121.787 304.774C121.82 304.751 121.853 304.728 121.886 304.704C122.726 304.111 123.205 303.147 123.254 302.119C123.342 300.26 123.987 298.252 125.564 296.718C126.352 295.952 127.211 295.286 128.059 294.722C133.517 291.094 134.957 283.653 131.24 278.255C131.206 278.206 131.172 278.155 131.137 278.106C124.222 268.243 110.197 266.146 99.7966 273.413Z" fill="#388500"/>
<path d="M121.709 290.826L118.18 294.643L118.808 284.978L116.46 296.049L116.725 296.517L111.765 290.087L118.642 300.913L107.59 299.37L116.89 302.074L112.1 304.09L118.948 302.672L119.943 302.962L133.232 323.879L136.218 321.784L117.956 298.111L118.042 296.782L121.709 290.826Z" fill="#263238"/>
<path d="M105.802 293.878C105.802 293.878 103.925 292.53 102.147 292.845C100.37 293.159 99.3516 293.606 99.3516 293.606C99.3516 293.606 102.633 296.766 105.802 293.878Z" fill="white"/>
<path d="M104.092 287.997C104.092 287.997 102.664 286.18 100.869 285.987C99.0746 285.794 97.9719 285.94 97.9719 285.94C97.9719 285.94 100.243 289.889 104.092 287.997Z" fill="white"/>
<path d="M129.117 292.028C129.117 292.028 126.892 291.405 125.329 292.308C123.766 293.211 122.963 293.98 122.963 293.98C122.963 293.98 127.126 295.826 129.117 292.028Z" fill="white"/>
<path d="M105.42 307.977C105.42 307.977 105.592 305.672 106.973 304.511C108.354 303.349 109.352 302.856 109.352 302.856C109.352 302.856 109.669 307.4 105.42 307.977Z" fill="white"/>
<path d="M97.6969 290.084C97.6969 290.084 96.2693 288.267 94.4744 288.074C92.6795 287.88 91.5769 288.027 91.5769 288.027C91.5769 288.027 93.8484 291.975 97.6969 290.084Z" fill="white"/>
<path d="M115.948 278.884C115.948 278.884 114.726 276.923 115.156 275.17C115.585 273.417 116.099 272.43 116.099 272.43C116.099 272.43 119.037 275.911 115.948 278.884Z" fill="white"/>
<path d="M105.532 282.563C105.532 282.563 105.539 280.253 104.251 278.987C102.963 277.722 102.008 277.153 102.008 277.153C102.008 277.153 101.341 281.659 105.532 282.563Z" fill="white"/>
<path d="M111.734 288.824C111.734 288.824 110.591 286.816 108.844 286.36C107.098 285.903 105.986 285.885 105.986 285.885C105.986 285.885 107.649 290.126 111.734 288.824Z" fill="white"/>
<path d="M101.207 283.37C101.207 283.37 100.505 281.168 98.8919 280.358C97.2787 279.549 96.1946 279.3 96.1946 279.3C96.1946 279.3 96.9399 283.794 101.207 283.37Z" fill="white"/>
<path d="M112.464 296.387C112.464 296.387 111.763 294.185 110.149 293.375C108.536 292.566 107.452 292.316 107.452 292.316C107.452 292.316 108.198 296.811 112.464 296.387Z" fill="white"/>
<path d="M115.21 291.298C115.21 291.298 116.098 289.165 115.39 287.505C114.682 285.844 114.016 284.954 114.016 284.954C114.016 284.954 111.679 288.864 115.21 291.298Z" fill="white"/>
<path d="M107.057 279.267C107.057 279.267 105.226 277.858 105.015 276.065C104.804 274.272 104.939 273.168 104.939 273.168C104.939 273.168 108.91 275.401 107.057 279.267Z" fill="white"/>
<path d="M112.469 282.245C112.469 282.245 113.349 280.108 112.634 278.45C111.92 276.792 111.25 275.905 111.25 275.905C111.25 275.905 108.929 279.825 112.469 282.245Z" fill="white"/>
<path d="M120.236 284.175C120.236 284.175 121.734 282.417 121.569 280.619C121.403 278.822 121.042 277.77 121.042 277.77C121.042 277.77 117.62 280.777 120.236 284.175Z" fill="white"/>
<path d="M123.743 288.303C123.743 288.303 126.017 287.891 127.027 286.395C128.037 284.899 128.424 283.856 128.424 283.856C128.424 283.856 123.871 284.017 123.743 288.303Z" fill="white"/>
<path d="M123.336 282.595C123.336 282.595 125.61 282.183 126.62 280.687C127.63 279.191 128.016 278.148 128.016 278.148C128.016 278.148 123.464 278.309 123.336 282.595Z" fill="white"/>
<path d="M101.085 302.026C101.085 302.026 103.29 302.716 104.88 301.86C106.469 301.003 107.295 300.259 107.295 300.259C107.295 300.259 103.186 298.289 101.085 302.026Z" fill="white"/>
<path d="M93.7029 299.477C93.7029 299.477 95.9082 300.167 97.4974 299.311C99.0867 298.455 99.9122 297.71 99.9122 297.71C99.9122 297.71 95.805 295.74 93.7029 299.477Z" fill="white"/>
<path d="M283.802 273.413C294.178 280.714 296.987 294.613 290.069 304.478C290.034 304.527 290 304.577 289.965 304.625C286.156 309.959 278.67 311.142 273.399 307.246C272.581 306.64 271.662 306.06 270.673 305.58C268.694 304.62 266.586 304.698 264.808 305.249C263.825 305.554 262.755 305.431 261.911 304.843C261.878 304.82 261.845 304.797 261.811 304.774C261.778 304.751 261.745 304.728 261.712 304.704C260.872 304.11 260.392 303.146 260.344 302.119C260.256 300.259 259.611 298.251 258.034 296.717C257.245 295.951 256.387 295.285 255.539 294.722C250.08 291.093 248.641 283.653 252.357 278.254C252.39 278.205 252.425 278.155 252.46 278.106C259.377 268.243 273.401 266.145 283.802 273.413Z" fill="#388500"/>
<path d="M261.889 290.826L265.418 294.642L264.791 284.977L267.139 296.049L266.873 296.517L271.834 290.087L264.956 300.913L276.009 299.369L266.709 302.074L271.499 304.09L264.65 302.672L263.656 302.961L250.368 323.879L247.38 321.784L265.644 298.111L265.558 296.781L261.889 290.826Z" fill="#263238"/>
<path d="M277.797 293.878C277.797 293.878 279.674 292.53 281.451 292.845C283.228 293.159 284.247 293.606 284.247 293.606C284.247 293.606 280.966 296.766 277.797 293.878Z" fill="white"/>
<path d="M279.508 287.997C279.508 287.997 280.935 286.18 282.73 285.987C284.525 285.794 285.627 285.94 285.627 285.94C285.627 285.94 283.356 289.889 279.508 287.997Z" fill="white"/>
<path d="M254.482 292.028C254.482 292.028 256.706 291.405 258.27 292.308C259.833 293.211 260.636 293.98 260.636 293.98C260.636 293.98 256.472 295.826 254.482 292.028Z" fill="white"/>
<path d="M278.179 307.977C278.179 307.977 278.007 305.672 276.626 304.511C275.244 303.349 274.247 302.856 274.247 302.856C274.247 302.856 273.93 307.4 278.179 307.977Z" fill="white"/>
<path d="M285.902 290.084C285.902 290.084 287.33 288.267 289.125 288.074C290.92 287.88 292.022 288.027 292.022 288.027C292.022 288.027 289.75 291.975 285.902 290.084Z" fill="white"/>
<path d="M267.65 278.884C267.65 278.884 268.872 276.923 268.443 275.17C268.013 273.417 267.499 272.43 267.499 272.43C267.499 272.43 264.561 275.911 267.65 278.884Z" fill="white"/>
<path d="M278.067 282.563C278.067 282.563 278.06 280.253 279.347 278.987C280.636 277.722 281.59 277.153 281.59 277.153C281.59 277.153 282.259 281.659 278.067 282.563Z" fill="white"/>
<path d="M271.865 288.824C271.865 288.824 273.008 286.816 274.754 286.36C276.501 285.903 277.613 285.885 277.613 285.885C277.613 285.885 275.95 290.126 271.865 288.824Z" fill="white"/>
<path d="M282.392 283.37C282.392 283.37 283.094 281.168 284.707 280.358C286.32 279.549 287.404 279.3 287.404 279.3C287.404 279.3 286.66 283.794 282.392 283.37Z" fill="white"/>
<path d="M271.135 296.387C271.135 296.387 271.836 294.185 273.449 293.375C275.063 292.566 276.147 292.316 276.147 292.316C276.147 292.316 275.401 296.811 271.135 296.387Z" fill="white"/>
<path d="M268.389 291.298C268.389 291.298 267.501 289.165 268.209 287.505C268.917 285.844 269.583 284.954 269.583 284.954C269.583 284.954 271.919 288.864 268.389 291.298Z" fill="white"/>
<path d="M276.541 279.267C276.541 279.267 278.373 277.858 278.583 276.065C278.794 274.272 278.659 273.168 278.659 273.168C278.659 273.168 274.688 275.401 276.541 279.267Z" fill="white"/>
<path d="M271.131 282.245C271.131 282.245 270.251 280.108 270.965 278.45C271.68 276.792 272.349 275.905 272.349 275.905C272.349 275.905 274.67 279.825 271.131 282.245Z" fill="white"/>
<path d="M263.364 284.175C263.364 284.175 261.865 282.417 262.031 280.619C262.196 278.822 262.558 277.77 262.558 277.77C262.558 277.77 265.979 280.777 263.364 284.175Z" fill="white"/>
<path d="M259.856 288.303C259.856 288.303 257.582 287.891 256.572 286.395C255.562 284.899 255.176 283.856 255.176 283.856C255.176 283.856 259.728 284.017 259.856 288.303Z" fill="white"/>
<path d="M260.262 282.595C260.262 282.595 257.989 282.183 256.978 280.687C255.968 279.191 255.582 278.148 255.582 278.148C255.582 278.148 260.135 278.309 260.262 282.595Z" fill="white"/>
<path d="M282.514 302.026C282.514 302.026 280.309 302.716 278.72 301.86C277.131 301.003 276.305 300.259 276.305 300.259C276.305 300.259 280.412 298.289 282.514 302.026Z" fill="white"/>
<path d="M289.896 299.477C289.896 299.477 287.691 300.167 286.101 299.311C284.512 298.455 283.686 297.71 283.686 297.71C283.686 297.71 287.794 295.74 289.896 299.477Z" fill="white"/>
<path d="M212.152 355.274C256.285 344.647 283.447 300.255 272.82 256.121C262.193 211.987 217.801 184.825 173.668 195.452C129.535 206.079 102.373 250.471 113 294.605C123.627 338.738 168.019 365.901 212.152 355.274Z" fill="#A3A3A3"/>
<path d="M176.406 351.417C180.776 352.368 185.255 352.947 189.804 353.125" stroke="#263238" stroke-width="0.77" stroke-miterlimit="10" stroke-linecap="round" stroke-linejoin="round"/>
<path d="M166.329 348.497C168.557 349.309 170.826 350.021 173.13 350.628" stroke="#263238" stroke-width="0.77" stroke-miterlimit="10" stroke-linecap="round" stroke-linejoin="round"/>
<path d="M118.065 254.078C114.629 266.116 114.056 279.156 116.961 292.235C122.706 318.105 140.714 338.082 163.514 347.409" stroke="#263238" stroke-width="0.77" stroke-miterlimit="10" stroke-linecap="round" stroke-linejoin="round"/>
<path d="M128.526 231.694C125.72 235.834 123.311 240.24 121.341 244.85" stroke="#263238" stroke-width="0.77" stroke-miterlimit="10" stroke-linecap="round" stroke-linejoin="round"/>
<path d="M181.775 238.862L190.153 240.599L193.01 243.562L196.734 244.133L197.918 247.667L197.05 250.057L194.511 251.222L188.291 250.204L188.121 249.443L191.063 247.391L189.031 243.646L183.467 242.882L180.505 240.343L181.775 238.862Z" fill="white"/>
<path d="M249.304 316.188L242.66 315.065L234.641 314.048L228.737 315.359L222.961 315.443L217.162 318.13L213.777 319.082L211.682 319.547L208.19 322.72L204.72 325.089L198.859 322.993L199.008 317.365L195.475 316.751L191.666 317.596L190.715 316.009L190.334 312.497L188.579 310.888L185.997 311.861L185.658 313.935L182.462 314.844L178.845 312.051L176.687 307.734L178.36 301.767L183.967 300.922L185.787 301.917L188.072 301.409L190.547 299.061L193.192 299.273L197.931 304.415L199.221 303.929L197.868 299.633L196.218 297.602L195.795 293.899L202.164 289.287L201.552 282.029L204.049 278.877L205.552 273.947L207.372 273.143L211.117 269.313L210.969 267.747L207.965 268.614L207.055 267.218L204.96 267.683L201.892 269.163L202.865 266.349L209.107 262.964L210.25 260.912L213.847 264.509L215.942 265.843L218.439 264.489L216.747 262.268L212.113 260.299L206.4 256.172L200.92 253.992L196.181 254.245L193.388 252.467L190.172 252.382L189.96 253.228L190.805 258.835L191.99 260.57L191.629 267.045L187.144 264.844L187.123 262.051L182.701 261.034L180.522 259.32L180.417 254.348L185.052 249.122L184.417 244.466L182.365 245.122L180.651 243.704L179.446 240.974L178.07 241.08L177.986 244.296L175.975 245.142L173.543 238.688L171.808 238.075L168.888 237.524L166.179 239.725L170.792 242.497L172.272 245.565L164.274 241.945L158.371 237.861L156.848 232.803L151.558 232.38L148.299 235.701C148.299 235.701 146.648 237.267 145.78 237.859C144.913 238.451 141.379 239.636 141.379 239.636L141.337 243.043L136.999 244.205L137.845 246.216L145.145 245.794L149.651 248.989L151.131 255.654L150.347 262.023L152.124 268.223L148.863 278.739L150.808 292.895L154.299 300.512L158.128 306.056L161.07 305.803L159.441 302.967L157.41 301.02L155.528 297.042L157.157 296.28L161.345 302.544L164.603 308.215L165.703 313.166L170.294 316.743L177.826 320.066L188.321 320.533L192.003 322.713L194.965 325.252L198.858 326.586L203.302 326.798L207.449 325.677C207.449 325.677 207.681 327.624 207.893 328.577C208.105 329.529 206.158 333.358 206.158 333.358L204.909 337.632L207.363 341.484L211.933 342.267L219.191 347.05L222.11 347.601L222.745 350.458L223.373 351.714C237.985 345.905 250.233 336.17 259.14 324.041L258.932 322.639L262.001 312.166L259.144 311.001L249.304 316.188Z" fill="white"/>
<path d="M252.405 236.566L249.507 233.413L245.91 229.816L243.879 224.272L247.434 224.082L247.201 222.135L244.683 222.495L246.567 221.077L248.556 219.237L248.133 217.332L245.171 214.793L243.772 210.803C225.063 196.082 200.143 189.565 175.09 195.129C163.701 197.658 153.397 202.441 144.534 208.899L149.616 211.034L147.712 215.053L144.262 216.619L145.023 221.845L143.626 222.755L142.187 225.273L143.139 228.658L146.461 228.32L145.846 231.854L149.084 231.135L153.042 222.862L152.936 219.688L158.184 218.123L159.009 215.541L164.405 213.743L164.258 210.379L168.215 209.301C168.215 209.301 170.732 207.142 171.304 207.016C171.875 206.889 174.753 207.249 174.753 207.249L178.117 208.9L182.116 208.012L185.079 205.156L189.544 204.564C189.544 204.564 190.856 205.073 191.807 204.861C192.76 204.649 195.32 202.682 195.32 202.682L201.604 204.883L204.27 206.09L204.904 208.946L207.846 208.693L208.417 206.768L211.147 207.361L211.295 208.926L205.92 211.718L210.088 215.189L217.789 217.475L221.492 220.649L225.766 220.099L226.295 217.983L227.734 217.264L221.937 214.554L218.805 214.85L221.111 213.539L218.107 210.809L221.302 209.9L225.999 211.255L227.967 215.614L230.611 217.624L233.552 222.766L238.419 224.883L239.815 231.168L244.829 233.052L245.104 235.189L245.082 237.791L246.986 240.965L247.748 242.595L251.112 242.447L251.917 238.871L252.405 236.566Z" fill="white"/>
<path d="M250.62 216.831L250.862 217.924L250.587 221.183L251.75 223.722L254.014 224.019L254.818 227.637L252.321 227.193L254.033 237.603L252.678 242.3L255.385 247.294L258.369 249.03L260.653 259.314L264.905 266.762L268.924 272.265L273.558 272.435L274.236 268.288L274.748 267.664C274.428 264.305 273.9 260.929 273.15 257.55C269.583 241.485 261.537 227.573 250.62 216.831Z" fill="white"/>
<path d="M206.364 225.409L192.568 222.677L187.088 224.094L186.558 228.008L183.723 226.04L179.745 227.923L180.76 234.291L184.738 236.006L186.409 231.838L189.901 234.06L196.946 237.891L199.315 243.16L205.662 248.345L213.365 245.235L212.539 242.421L210.107 239.564L208.034 232.031L209.22 228.371L206.364 225.409Z" fill="white"/>
<path d="M217.578 227.315L214.552 227.187L212.542 229.832L215.101 235.058L217.577 234.509L217.578 227.315Z" fill="white"/>
<path d="M236.092 227L228.856 225.01L227.015 223.02L225.619 223.93L227.798 227.443L230.04 232.141L233.15 232.648L233.552 231.761L231.204 229.284L236.579 230.089L236.092 227Z" fill="white"/>
<path d="M195.751 308.098L195.159 309.029L201.253 309.474L204.129 311.632L207.833 311.21L208.701 308.819L204.151 309.03L195.751 308.098Z" fill="white"/>
<path d="M213.503 307.952L209.758 309.982L210.667 311.379L215.619 310.28L216.233 308.545L214.561 309.115L213.503 307.952Z" fill="white"/>
<path d="M212.152 355.274C256.285 344.647 283.447 300.255 272.82 256.121C262.193 211.987 217.801 184.825 173.668 195.452C129.535 206.079 102.373 250.471 113 294.605C123.627 338.738 168.019 365.901 212.152 355.274Z" stroke="#263238" stroke-width="0.77" stroke-miterlimit="10" stroke-linecap="round" stroke-linejoin="round"/>
<path d="M200.053 200.88C190.368 200.895 182.521 208.353 182.521 217.549C182.521 217.596 182.521 217.642 182.522 217.687C182.565 222.69 186.726 226.71 191.728 226.585C192.505 226.566 193.333 226.606 194.162 226.739C195.819 227.007 197.102 227.979 197.972 229.103C198.453 229.724 199.175 230.117 199.96 230.119C199.991 230.119 200.022 230.119 200.053 230.119C200.084 230.119 200.114 230.119 200.145 230.119C200.931 230.116 201.653 229.724 202.133 229.103C203.003 227.979 204.286 227.007 205.944 226.739C206.773 226.606 207.601 226.566 208.378 226.585C213.38 226.71 217.54 222.691 217.583 217.687C217.583 217.642 217.584 217.596 217.584 217.549C217.585 208.353 209.739 200.896 200.053 200.88Z" fill="#388500"/>
<path d="M206.118 221.367L202.24 222.205L206.868 216.439L200.547 222.331L200.509 222.74L200.226 216.546L199.78 226.328L193.549 220.519L198.177 226.285L194.298 225.446L199.201 227.561L199.696 228.177L198.834 247.075H201.619L200.579 224.275L201.215 223.482L206.118 221.367Z" fill="#263238"/>
<path d="M194.838 216.303C194.838 216.303 194.255 214.638 193.007 214.055C191.758 213.472 190.926 213.306 190.926 213.306C190.926 213.306 191.591 216.719 194.838 216.303Z" fill="white"/>
<path d="M196.346 211.877C196.346 211.877 196.249 210.116 195.213 209.208C194.176 208.301 193.423 207.909 193.423 207.909C193.423 207.909 193.112 211.373 196.346 211.877Z" fill="white"/>
<path d="M210.22 225.364C210.22 225.364 209.103 223.999 207.731 223.879C206.358 223.759 205.519 223.887 205.519 223.887C205.519 223.887 207.312 226.866 210.22 225.364Z" fill="white"/>
<path d="M188.42 224.947C188.42 224.947 189.537 223.582 190.909 223.462C192.282 223.342 193.121 223.47 193.121 223.47C193.121 223.47 191.329 226.449 188.42 224.947Z" fill="white"/>
<path d="M191.434 210.379C191.434 210.379 191.338 208.618 190.302 207.71C189.265 206.803 188.512 206.411 188.512 206.411C188.512 206.411 188.2 209.874 191.434 210.379Z" fill="white"/>
<path d="M207.75 211.378C207.75 211.378 207.846 209.617 208.882 208.709C209.92 207.802 210.673 207.41 210.673 207.41C210.673 207.41 210.984 210.874 207.75 211.378Z" fill="white"/>
<path d="M199.627 209.112C199.627 209.112 200.644 207.671 200.394 206.316C200.143 204.961 199.796 204.187 199.796 204.187C199.796 204.187 197.403 206.711 199.627 209.112Z" fill="white"/>
<path d="M200.761 215.743C200.761 215.743 200.926 213.987 200.035 212.937C199.143 211.886 198.456 211.387 198.456 211.387C198.456 211.387 197.636 214.767 200.761 215.743Z" fill="white"/>
<path d="M196.57 207.721C196.57 207.721 197.097 206.038 196.443 204.824C195.79 203.611 195.221 202.981 195.221 202.981C195.221 202.981 193.717 206.116 196.57 207.721Z" fill="white"/>
<path d="M197.902 220.79C197.902 220.79 198.429 219.107 197.775 217.893C197.122 216.68 196.553 216.05 196.553 216.05C196.553 216.05 195.049 219.185 197.902 220.79Z" fill="white"/>
<path d="M201.848 218.813C201.848 218.813 203.338 217.869 203.623 216.521C203.908 215.173 203.881 214.324 203.881 214.324C203.881 214.324 200.708 215.745 201.848 218.813Z" fill="white"/>
<path d="M202.025 207.721C202.025 207.721 201.498 206.038 202.152 204.824C202.806 203.611 203.374 202.981 203.374 202.981C203.374 202.981 204.878 206.116 202.025 207.721Z" fill="white"/>
<path d="M204.102 211.953C204.102 211.953 205.588 211.003 205.869 209.654C206.149 208.305 206.119 207.456 206.119 207.456C206.119 207.456 202.951 208.889 204.102 211.953Z" fill="white"/>
<path d="M208.111 216.564C208.111 216.564 209.818 216.121 210.503 214.925C211.187 213.729 211.422 212.913 211.422 212.913C211.422 212.913 207.965 213.293 208.111 216.564Z" fill="white"/>
<path d="M208.495 220.681C208.495 220.681 210.096 221.42 211.384 220.928C212.67 220.436 213.369 219.953 213.369 219.953C213.369 219.953 210.453 218.058 208.495 220.681Z" fill="white"/>
<path d="M210.742 216.935C210.742 216.935 212.344 217.674 213.631 217.182C214.918 216.69 215.616 216.207 215.616 216.207C215.616 216.207 212.7 214.313 210.742 216.935Z" fill="white"/>
<path d="M188.318 219.328C188.318 219.328 189.394 220.725 190.763 220.886C192.131 221.047 192.974 220.944 192.974 220.944C192.974 220.944 191.27 217.913 188.318 219.328Z" fill="white"/>
<path d="M184.822 214.5C184.822 214.5 185.897 215.898 187.266 216.059C188.635 216.22 189.478 216.116 189.478 216.116C189.478 216.116 187.773 213.086 184.822 214.5Z" fill="white"/>
<path d="M188.269 267.878C181.677 267.888 176.337 272.964 176.337 279.224C176.337 279.255 176.337 279.286 176.338 279.318C176.367 282.723 179.199 285.458 182.603 285.374C183.132 285.361 183.696 285.387 184.26 285.478C185.388 285.66 186.262 286.322 186.854 287.087C187.181 287.51 187.672 287.776 188.206 287.778C188.227 287.778 188.248 287.778 188.27 287.778C188.29 287.778 188.312 287.778 188.333 287.778C188.867 287.776 189.359 287.51 189.686 287.087C190.278 286.322 191.151 285.66 192.279 285.478C192.843 285.387 193.407 285.361 193.935 285.374C197.339 285.458 200.171 282.723 200.201 279.318C200.201 279.286 200.201 279.255 200.201 279.224C200.201 272.964 194.861 267.888 188.269 267.878Z" fill="#388500"/>
<path d="M192.396 281.82L189.757 282.391L192.907 278.467L188.605 282.476L188.579 282.754L188.387 278.539L188.082 285.197L183.841 281.243L186.991 285.168L184.352 284.597L187.688 286.036L188.025 286.456L187.439 299.318H189.334L188.626 283.799L189.06 283.26L192.396 281.82Z" fill="#263238"/>
<path d="M184.719 278.374C184.719 278.374 184.323 277.241 183.473 276.844C182.623 276.448 182.057 276.334 182.057 276.334C182.057 276.334 182.509 278.658 184.719 278.374Z" fill="white"/>
<path d="M185.745 275.363C185.745 275.363 185.68 274.164 184.975 273.546C184.269 272.929 183.757 272.662 183.757 272.662C183.757 272.662 183.544 275.019 185.745 275.363Z" fill="white"/>
<path d="M195.189 284.542C195.189 284.542 194.429 283.613 193.494 283.531C192.56 283.45 191.989 283.537 191.989 283.537C191.989 283.537 193.209 285.564 195.189 284.542Z" fill="white"/>
<path d="M180.351 284.258C180.351 284.258 181.111 283.329 182.046 283.247C182.98 283.165 183.551 283.252 183.551 283.252C183.551 283.252 182.331 285.281 180.351 284.258Z" fill="white"/>
<path d="M182.402 274.343C182.402 274.343 182.337 273.145 181.631 272.527C180.925 271.909 180.413 271.643 180.413 271.643C180.413 271.643 180.201 274 182.402 274.343Z" fill="white"/>
<path d="M193.507 275.023C193.507 275.023 193.573 273.824 194.278 273.206C194.984 272.589 195.496 272.323 195.496 272.323C195.496 272.323 195.709 274.679 193.507 275.023Z" fill="white"/>
<path d="M187.978 273.481C187.978 273.481 188.671 272.5 188.5 271.578C188.33 270.656 188.093 270.129 188.093 270.129C188.093 270.129 186.465 271.846 187.978 273.481Z" fill="white"/>
<path d="M188.75 277.994C188.75 277.994 188.863 276.799 188.256 276.084C187.649 275.368 187.182 275.03 187.182 275.03C187.182 275.03 186.623 277.33 188.75 277.994Z" fill="white"/>
<path d="M185.898 272.534C185.898 272.534 186.256 271.388 185.812 270.563C185.368 269.738 184.98 269.308 184.98 269.308C184.98 269.308 183.957 271.442 185.898 272.534Z" fill="white"/>
<path d="M186.805 281.428C186.805 281.428 187.163 280.283 186.719 279.457C186.274 278.632 185.887 278.202 185.887 278.202C185.887 278.202 184.863 280.337 186.805 281.428Z" fill="white"/>
<path d="M189.49 280.083C189.49 280.083 190.504 279.44 190.698 278.523C190.892 277.605 190.875 277.028 190.875 277.028C190.875 277.028 188.715 277.995 189.49 280.083Z" fill="white"/>
<path d="M189.611 272.534C189.611 272.534 189.253 271.388 189.697 270.563C190.142 269.738 190.529 269.308 190.529 269.308C190.529 269.308 191.553 271.442 189.611 272.534Z" fill="white"/>
<path d="M191.025 275.415C191.025 275.415 192.036 274.768 192.227 273.85C192.417 272.932 192.397 272.354 192.397 272.354C192.397 272.354 190.241 273.329 191.025 275.415Z" fill="white"/>
<path d="M193.753 278.552C193.753 278.552 194.915 278.251 195.381 277.437C195.846 276.623 196.007 276.068 196.007 276.068C196.007 276.068 193.653 276.327 193.753 278.552Z" fill="white"/>
<path d="M194.014 281.355C194.014 281.355 195.104 281.858 195.979 281.523C196.856 281.188 197.331 280.859 197.331 280.859C197.331 280.859 195.347 279.569 194.014 281.355Z" fill="white"/>
<path d="M195.544 278.805C195.544 278.805 196.634 279.307 197.51 278.972C198.386 278.637 198.861 278.309 198.861 278.309C198.861 278.309 196.876 277.02 195.544 278.805Z" fill="white"/>
<path d="M180.281 280.434C180.281 280.434 181.014 281.385 181.945 281.495C182.877 281.604 183.45 281.534 183.45 281.534C183.45 281.534 182.29 279.471 180.281 280.434Z" fill="white"/>
<path d="M177.902 277.148C177.902 277.148 178.635 278.099 179.566 278.209C180.498 278.318 181.071 278.248 181.071 278.248C181.071 278.248 179.911 276.185 177.902 277.148Z" fill="white"/>
<path d="M256.088 162.729C241.173 162.753 229.09 174.236 229.09 188.4C229.09 188.471 229.09 188.542 229.09 188.613C229.157 196.317 235.565 202.507 243.267 202.316C244.463 202.286 245.739 202.347 247.015 202.553C249.568 202.965 251.544 204.462 252.884 206.193C253.624 207.149 254.737 207.753 255.946 207.757C255.993 207.757 256.04 207.757 256.088 207.757C256.136 207.757 256.183 207.757 256.231 207.757C257.439 207.753 258.552 207.149 259.292 206.193C260.632 204.462 262.608 202.965 265.161 202.553C266.437 202.347 267.713 202.286 268.909 202.316C276.612 202.508 283.02 196.318 283.086 188.613C283.087 188.542 283.087 188.471 283.087 188.4C283.087 174.237 271.004 162.753 256.088 162.729Z" fill="#388500"/>
<path d="M265.428 194.278L259.455 195.569L266.583 186.69L256.85 195.762L256.79 196.391L256.355 186.855L255.668 201.918L246.071 192.971L253.198 201.851L247.226 200.559L254.775 203.817L255.538 204.766L254.21 233.868H258.5L256.897 198.756L257.878 197.535L265.428 194.278Z" fill="#263238"/>
<path d="M248.056 186.48C248.056 186.48 247.159 183.916 245.236 183.019C243.313 182.122 242.031 181.865 242.031 181.865C242.031 181.865 243.057 187.121 248.056 186.48Z" fill="white"/>
<path d="M250.379 179.665C250.379 179.665 250.231 176.953 248.634 175.556C247.037 174.158 245.877 173.555 245.877 173.555C245.877 173.555 245.398 178.888 250.379 179.665Z" fill="white"/>
<path d="M271.745 200.434C271.745 200.434 270.025 198.332 267.911 198.147C265.798 197.961 264.505 198.159 264.505 198.159C264.505 198.159 267.267 202.747 271.745 200.434Z" fill="white"/>
<path d="M238.173 199.793C238.173 199.793 239.894 197.691 242.007 197.505C244.121 197.319 245.414 197.517 245.414 197.517C245.414 197.517 242.652 202.105 238.173 199.793Z" fill="white"/>
<path d="M242.815 177.358C242.815 177.358 242.667 174.645 241.07 173.248C239.473 171.85 238.313 171.248 238.313 171.248C238.313 171.248 237.835 176.581 242.815 177.358Z" fill="white"/>
<path d="M267.941 178.896C267.941 178.896 268.089 176.183 269.686 174.787C271.283 173.389 272.443 172.786 272.443 172.786C272.443 172.786 272.922 178.119 267.941 178.896Z" fill="white"/>
<path d="M255.433 175.407C255.433 175.407 256.999 173.188 256.613 171.101C256.227 169.015 255.691 167.822 255.691 167.822C255.691 167.822 252.008 171.708 255.433 175.407Z" fill="white"/>
<path d="M257.177 185.619C257.177 185.619 257.431 182.915 256.058 181.297C254.685 179.679 253.627 178.911 253.627 178.911C253.627 178.911 252.366 184.115 257.177 185.619Z" fill="white"/>
<path d="M250.725 173.264C250.725 173.264 251.536 170.672 250.53 168.804C249.523 166.936 248.648 165.965 248.648 165.965C248.648 165.965 246.332 170.793 250.725 173.264Z" fill="white"/>
<path d="M252.775 193.391C252.775 193.391 253.586 190.798 252.58 188.93C251.573 187.062 250.698 186.091 250.698 186.091C250.698 186.091 248.383 190.92 252.775 193.391Z" fill="white"/>
<path d="M258.852 190.346C258.852 190.346 261.147 188.892 261.586 186.815C262.025 184.74 261.985 183.433 261.985 183.433C261.985 183.433 257.098 185.621 258.852 190.346Z" fill="white"/>
<path d="M259.125 173.264C259.125 173.264 258.314 170.672 259.32 168.804C260.327 166.936 261.202 165.965 261.202 165.965C261.202 165.965 263.519 170.793 259.125 173.264Z" fill="white"/>
<path d="M262.324 179.782C262.324 179.782 264.614 178.319 265.044 176.242C265.475 174.164 265.43 172.857 265.43 172.857C265.43 172.857 260.551 175.063 262.324 179.782Z" fill="white"/>
<path d="M268.497 186.882C268.497 186.882 271.127 186.2 272.18 184.358C273.234 182.517 273.596 181.26 273.596 181.26C273.596 181.26 268.273 181.846 268.497 186.882Z" fill="white"/>
<path d="M269.087 193.223C269.087 193.223 271.553 194.361 273.535 193.602C275.517 192.844 276.593 192.101 276.593 192.101C276.593 192.101 272.102 189.184 269.087 193.223Z" fill="white"/>
<path d="M272.548 187.454C272.548 187.454 275.015 188.592 276.997 187.834C278.979 187.075 280.054 186.332 280.054 186.332C280.054 186.332 275.564 183.415 272.548 187.454Z" fill="white"/>
<path d="M238.016 191.139C238.016 191.139 239.673 193.291 241.781 193.54C243.888 193.788 245.186 193.629 245.186 193.629C245.186 193.629 242.561 188.961 238.016 191.139Z" fill="white"/>
<path d="M232.632 183.704C232.632 183.704 234.289 185.856 236.397 186.105C238.504 186.353 239.802 186.194 239.802 186.194C239.802 186.194 237.178 181.526 232.632 183.704Z" fill="white"/>
<path d="M162.115 235.743C149.427 235.764 139.148 245.532 139.148 257.581C139.148 257.641 139.148 257.702 139.149 257.762C139.205 264.316 144.656 269.582 151.209 269.418C152.227 269.393 153.312 269.445 154.397 269.62C156.569 269.97 158.25 271.244 159.389 272.716C160.019 273.529 160.965 274.043 161.994 274.047C162.034 274.047 162.075 274.047 162.115 274.047C162.155 274.047 162.196 274.047 162.236 274.047C163.265 274.043 164.211 273.529 164.84 272.716C165.98 271.244 167.661 269.97 169.832 269.62C170.918 269.445 172.003 269.393 173.02 269.418C179.573 269.582 185.023 264.316 185.08 257.762C185.081 257.702 185.081 257.642 185.081 257.581C185.082 245.533 174.802 235.764 162.115 235.743Z" fill="#388500"/>
<path d="M170.059 262.582L164.979 263.68L171.042 256.127L162.763 263.845L162.712 264.379L162.341 256.267L161.757 269.08L153.594 261.47L159.656 269.024L154.576 267.925L160.999 270.695L161.647 271.503L160.517 296.259H164.166L162.803 266.391L163.637 265.352L170.059 262.582Z" fill="#263238"/>
<path d="M155.282 255.948C155.282 255.948 154.519 253.768 152.883 253.004C151.247 252.241 150.156 252.022 150.156 252.022C150.156 252.022 151.029 256.493 155.282 255.948Z" fill="white"/>
<path d="M157.258 250.151C157.258 250.151 157.132 247.844 155.774 246.655C154.416 245.466 153.429 244.954 153.429 244.954C153.429 244.954 153.021 249.49 157.258 250.151Z" fill="white"/>
<path d="M175.434 267.819C175.434 267.819 173.971 266.03 172.172 265.873C170.374 265.715 169.274 265.883 169.274 265.883C169.274 265.883 171.624 269.786 175.434 267.819Z" fill="white"/>
<path d="M146.875 267.273C146.875 267.273 148.338 265.484 150.137 265.327C151.935 265.169 153.034 265.337 153.034 265.337C153.034 265.337 150.685 269.24 146.875 267.273Z" fill="white"/>
<path d="M150.824 248.188C150.824 248.188 150.698 245.881 149.34 244.692C147.982 243.504 146.994 242.991 146.994 242.991C146.994 242.991 146.587 247.528 150.824 248.188Z" fill="white"/>
<path d="M172.198 249.497C172.198 249.497 172.324 247.19 173.682 246.001C175.04 244.813 176.027 244.3 176.027 244.3C176.027 244.3 176.435 248.836 172.198 249.497Z" fill="white"/>
<path d="M161.557 246.529C161.557 246.529 162.889 244.641 162.561 242.866C162.233 241.092 161.777 240.077 161.777 240.077C161.777 240.077 158.644 243.383 161.557 246.529Z" fill="white"/>
<path d="M163.041 255.215C163.041 255.215 163.258 252.915 162.09 251.539C160.922 250.163 160.021 249.509 160.021 249.509C160.021 249.509 158.949 253.937 163.041 255.215Z" fill="white"/>
<path d="M157.552 244.706C157.552 244.706 158.242 242.5 157.386 240.911C156.529 239.322 155.785 238.496 155.785 238.496C155.785 238.496 153.815 242.604 157.552 244.706Z" fill="white"/>
<path d="M159.297 261.827C159.297 261.827 159.987 259.622 159.131 258.032C158.274 256.443 157.53 255.617 157.53 255.617C157.53 255.617 155.56 259.724 159.297 261.827Z" fill="white"/>
<path d="M164.466 259.237C164.466 259.237 166.418 258 166.791 256.234C167.165 254.467 167.131 253.356 167.131 253.356C167.131 253.356 162.974 255.217 164.466 259.237Z" fill="white"/>
<path d="M164.699 244.706C164.699 244.706 164.009 242.5 164.865 240.911C165.721 239.322 166.466 238.496 166.466 238.496C166.466 238.496 168.435 242.604 164.699 244.706Z" fill="white"/>
<path d="M167.419 250.25C167.419 250.25 169.367 249.006 169.733 247.239C170.1 245.472 170.061 244.36 170.061 244.36C170.061 244.36 165.911 246.236 167.419 250.25Z" fill="white"/>
<path d="M172.67 256.29C172.67 256.29 174.907 255.71 175.803 254.143C176.7 252.576 177.008 251.507 177.008 251.507C177.008 251.507 172.48 252.007 172.67 256.29Z" fill="white"/>
<path d="M173.172 261.684C173.172 261.684 175.271 262.652 176.957 262.006C178.643 261.362 179.558 260.729 179.558 260.729C179.558 260.729 175.738 258.248 173.172 261.684Z" fill="white"/>
<path d="M176.117 256.777C176.117 256.777 178.215 257.745 179.901 257.099C181.588 256.454 182.502 255.822 182.502 255.822C182.502 255.822 178.682 253.341 176.117 256.777Z" fill="white"/>
<path d="M146.742 259.912C146.742 259.912 148.152 261.743 149.944 261.954C151.737 262.165 152.841 262.029 152.841 262.029C152.841 262.029 150.608 258.058 146.742 259.912Z" fill="white"/>
<path d="M142.162 253.587C142.162 253.587 143.572 255.418 145.364 255.629C147.157 255.84 148.261 255.704 148.261 255.704C148.261 255.704 146.028 251.733 142.162 253.587Z" fill="white"/>
<path d="M230.171 272.29C217.483 272.311 207.204 282.079 207.204 294.128C207.204 294.188 207.204 294.249 207.205 294.309C207.261 300.863 212.712 306.128 219.264 305.965C220.282 305.94 221.366 305.992 222.452 306.167C224.624 306.517 226.304 307.791 227.444 309.263C228.074 310.076 229.02 310.59 230.049 310.594C230.089 310.594 230.13 310.594 230.17 310.594C230.21 310.594 230.251 310.594 230.291 310.594C231.319 310.59 232.266 310.076 232.896 309.263C234.035 307.791 235.716 306.517 237.888 306.167C238.973 305.992 240.058 305.94 241.076 305.965C247.628 306.128 253.079 300.863 253.136 294.309C253.137 294.249 253.137 294.189 253.137 294.128C253.137 282.079 242.858 272.311 230.171 272.29Z" fill="#388500"/>
<path d="M238.115 299.128L233.035 300.227L239.097 292.673L230.818 300.391L230.768 300.926L230.397 292.813L229.813 305.627L221.649 298.017L227.712 305.57L222.632 304.472L229.053 307.242L229.703 308.05L228.573 332.806H232.221L230.859 302.937L231.693 301.898L238.115 299.128Z" fill="#263238"/>
<path d="M223.338 292.494C223.338 292.494 222.575 290.314 220.938 289.55C219.303 288.787 218.212 288.568 218.212 288.568C218.212 288.568 219.085 293.04 223.338 292.494Z" fill="white"/>
<path d="M225.314 286.698C225.314 286.698 225.188 284.391 223.83 283.202C222.472 282.013 221.484 281.5 221.484 281.5C221.484 281.5 221.077 286.037 225.314 286.698Z" fill="white"/>
<path d="M243.49 304.365C243.49 304.365 242.026 302.576 240.228 302.419C238.43 302.262 237.33 302.429 237.33 302.429C237.33 302.429 239.68 306.332 243.49 304.365Z" fill="white"/>
<path d="M214.931 303.819C214.931 303.819 216.394 302.03 218.192 301.873C219.99 301.715 221.09 301.883 221.09 301.883C221.09 301.883 218.741 305.786 214.931 303.819Z" fill="white"/>
<path d="M218.879 284.735C218.879 284.735 218.754 282.427 217.396 281.239C216.037 280.05 215.05 279.537 215.05 279.537C215.05 279.537 214.643 284.073 218.879 284.735Z" fill="white"/>
<path d="M240.253 286.043C240.253 286.043 240.378 283.735 241.737 282.547C243.096 281.358 244.082 280.845 244.082 280.845C244.082 280.845 244.49 285.382 240.253 286.043Z" fill="white"/>
<path d="M229.612 283.075C229.612 283.075 230.945 281.187 230.617 279.412C230.289 277.637 229.833 276.622 229.833 276.622C229.833 276.622 226.7 279.928 229.612 283.075Z" fill="white"/>
<path d="M231.097 291.762C231.097 291.762 231.313 289.461 230.145 288.085C228.977 286.709 228.077 286.056 228.077 286.056C228.077 286.056 227.004 290.482 231.097 291.762Z" fill="white"/>
<path d="M225.608 281.252C225.608 281.252 226.298 279.047 225.441 277.457C224.585 275.868 223.841 275.042 223.841 275.042C223.841 275.042 221.871 279.15 225.608 281.252Z" fill="white"/>
<path d="M227.353 298.373C227.353 298.373 228.042 296.167 227.186 294.578C226.33 292.989 225.585 292.163 225.585 292.163C225.585 292.163 223.616 296.271 227.353 298.373Z" fill="white"/>
<path d="M232.522 295.783C232.522 295.783 234.474 294.546 234.847 292.78C235.22 291.014 235.187 289.903 235.187 289.903C235.187 289.903 231.029 291.763 232.522 295.783Z" fill="white"/>
<path d="M232.754 281.252C232.754 281.252 232.064 279.047 232.92 277.457C233.776 275.868 234.521 275.042 234.521 275.042C234.521 275.042 236.491 279.15 232.754 281.252Z" fill="white"/>
<path d="M235.475 286.796C235.475 286.796 237.422 285.552 237.789 283.785C238.155 282.017 238.117 280.906 238.117 280.906C238.117 280.906 233.967 282.783 235.475 286.796Z" fill="white"/>
<path d="M240.726 292.836C240.726 292.836 242.963 292.256 243.859 290.689C244.755 289.122 245.063 288.054 245.063 288.054C245.063 288.054 240.536 288.553 240.726 292.836Z" fill="white"/>
<path d="M241.229 298.23C241.229 298.23 243.327 299.198 245.013 298.552C246.699 297.908 247.614 297.275 247.614 297.275C247.614 297.275 243.793 294.794 241.229 298.23Z" fill="white"/>
<path d="M244.172 293.322C244.172 293.322 246.271 294.29 247.957 293.645C249.642 293 250.558 292.368 250.558 292.368C250.558 292.368 246.738 289.887 244.172 293.322Z" fill="white"/>
<path d="M214.798 296.458C214.798 296.458 216.207 298.289 218 298.5C219.793 298.711 220.897 298.575 220.897 298.575C220.897 298.575 218.664 294.604 214.798 296.458Z" fill="white"/>
<path d="M210.217 290.133C210.217 290.133 211.627 291.964 213.419 292.175C215.212 292.386 216.316 292.251 216.316 292.251C216.316 292.251 214.084 288.28 210.217 290.133Z" fill="white"/>
<path d="M224.194 158.169C224.754 175.18 210.922 189.94 193.375 189.94C175.829 189.94 162.321 175.187 162.557 158.169C162.73 145.686 174.078 131.945 182.896 119.609C188.98 111.097 192.562 104.481 193.253 103.177C193.305 103.077 193.447 103.077 193.5 103.177C194.21 104.5 197.934 111.293 204.125 119.987C212.879 132.277 223.748 144.603 224.194 158.169Z" stroke="#263238" stroke-width="0.77" stroke-miterlimit="10"/>
<path opacity="0.2" d="M193.346 104.602C193.346 104.602 192.603 106.048 191.169 108.492C190.826 111.18 191.169 116.15 194.038 125.22C199.608 142.83 201.405 162.955 192.061 170.143C184.076 176.286 172.547 178.096 165.101 169.744C169.744 180.76 180.641 188.493 193.346 188.493C210.266 188.493 223.982 174.777 223.982 157.857C223.982 148.403 212.152 132.889 203.711 121.038C197.046 111.677 193.346 104.602 193.346 104.602Z" fill="black"/>
<path d="M202.821 158.353C207.142 158.353 210.645 153.799 210.645 148.181C210.645 142.564 207.142 138.01 202.821 138.01C198.5 138.01 194.997 142.564 194.997 148.181C194.997 153.799 198.5 158.353 202.821 158.353Z" fill="white"/>
<path d="M201.256 167.611C201.256 170.42 199.505 172.697 197.344 172.697C195.183 172.697 193.432 170.42 193.432 167.611C193.432 164.802 195.183 162.525 197.344 162.525C199.505 162.525 201.256 164.803 201.256 167.611Z" fill="white"/>
<path d="M176.92 152.257C174.744 158.887 170.913 163.582 168.364 162.745C165.814 161.908 165.511 155.856 167.686 149.226C169.862 142.597 173.693 137.901 176.242 138.738C178.792 139.575 179.095 145.627 176.92 152.257Z" fill="white"/>
<path d="M111.03 85.318L115.589 84.4657C122.486 83.1767 120.688 82.5283 127.673 82.5283H161.939V63.9359H127.41C119.917 63.9359 121.209 63.1906 113.825 61.7075L111.031 61.147L111.03 85.318Z" fill="#388500" stroke="#263238" stroke-width="0.77" stroke-miterlimit="10"/>
<path d="M128.003 80.446C120.509 80.446 121.801 81.0727 114.416 82.3194L111.622 82.7906V79.4365L114.416 78.9645C121.8 77.7178 120.509 77.0911 128.003 77.0911H162.531V80.4452L128.003 80.446Z" fill="#263238" stroke="#263238" stroke-width="0.77" stroke-miterlimit="10"/>
<path d="M166.436 63.4438H182.309C190.262 63.4438 197.798 67.0059 202.846 73.152C206.752 77.9068 208.887 83.8689 208.887 90.0219V101.223H186.341V90.9729C186.341 86.5385 182.746 82.9426 178.312 82.9426H164.609L166.436 63.4438Z" fill="#388500" stroke="#263238" stroke-width="0.77" stroke-miterlimit="10"/>
<path d="M189.749 96.7584V85.7382C189.749 81.8659 186.09 78.7266 181.574 78.7266H167.83L167.624 80.7963H180.358C184.479 80.7963 187.82 83.9356 187.82 87.8079V96.7584H189.749Z" fill="#263238" stroke="#263238" stroke-width="0.77" stroke-miterlimit="10"/>
<path d="M157.337 90.5521H156.317C150.219 90.5521 145.276 85.6087 145.276 79.5111V58.1135H168.378V79.5111C168.378 85.6095 163.435 90.5521 157.337 90.5521Z" fill="#388500" stroke="#263238" stroke-width="0.77" stroke-miterlimit="10"/>
<path d="M168.377 58.1135H145.275V62.0082H168.377V58.1135Z" fill="#263238" stroke="#263238" stroke-width="0.77" stroke-miterlimit="10"/>
<path d="M156.827 84.8113C150.995 84.8113 146.268 80.6087 146.268 75.425V78.6321C146.268 83.8165 150.995 88.0184 156.827 88.0184C162.658 88.0184 167.386 83.8157 167.386 78.6321V75.425C167.386 80.6087 162.658 84.8113 156.827 84.8113Z" fill="#263238" stroke="#263238" stroke-width="0.77" stroke-miterlimit="10"/>
<path d="M161.914 25.6755H152.129V44.3473H161.914V25.6755Z" fill="#388500" stroke="#263238" stroke-width="0.77" stroke-miterlimit="10"/>
<path d="M157.848 25.6755H153.433V44.3473H157.848V25.6755Z" fill="#263238" stroke="#263238" stroke-width="0.77" stroke-miterlimit="10"/>
<path d="M164.91 39.9927H149.134V42.9225H164.91V39.9927Z" fill="#388500" stroke="#263238" stroke-width="0.77" stroke-miterlimit="10"/>
<path d="M168.536 42.5256H145.507V56.5319H168.536V42.5256Z" fill="#388500" stroke="#263238" stroke-width="0.77" stroke-miterlimit="10"/>
<path d="M163.144 42.5256H150.899V56.5319H163.144V42.5256Z" fill="#388500" stroke="#263238" stroke-width="0.77" stroke-miterlimit="10"/>
<path d="M170.91 55.6592H143.134V59.8549H170.91V55.6592Z" fill="#388500" stroke="#263238" stroke-width="0.77" stroke-miterlimit="10"/>
<path d="M138.482 17.6331C136.909 16.0562 134.734 15.0806 132.331 15.0806C127.53 15.0806 123.64 18.9714 123.64 23.7716C123.64 28.5717 127.53 32.4625 132.331 32.4625C134.671 32.4625 136.795 31.5355 138.357 30.0301C142.998 27.1634 151.173 30.2126 151.173 30.2126V17.6146C144.718 20.6592 138.966 17.8787 138.482 17.6331Z" fill="#388500" stroke="#263238" stroke-width="0.77" stroke-miterlimit="10"/>
<path d="M181.712 15.0808C179.164 15.0808 176.873 16.1773 175.283 17.9244C168.832 20.5748 163.262 17.6141 163.262 17.6141L162.723 30.2136C166.924 27.2961 174.571 29.7278 175.812 30.152C177.362 31.5858 179.434 32.4636 181.712 32.4636C186.512 32.4636 190.403 28.572 190.403 23.7726C190.403 18.9732 186.513 15.0808 181.712 15.0808Z" fill="#388500" stroke="#263238" stroke-width="0.77" stroke-miterlimit="10"/>
<path d="M180.811 27.982C178.641 27.982 176.667 27.2213 175.19 25.9777C174.019 25.6135 166.851 23.5399 162.828 25.97L162.723 28.2015C166.725 25.672 174.009 27.7803 175.191 28.1476C176.667 29.3911 178.642 30.1519 180.811 30.1519C185.384 30.1519 189.09 26.7777 189.09 22.6167C189.09 22.2471 189.05 21.8867 188.994 21.5317C188.414 25.1777 184.977 27.982 180.811 27.982Z" fill="#263238" stroke="#263238" stroke-width="0.77" stroke-miterlimit="10"/>
<path d="M133.133 27.982C135.303 27.982 137.276 27.2213 138.752 25.9777C139.925 25.6135 147.093 23.5399 151.115 25.97L151.22 28.2015C147.218 25.672 139.935 27.7803 138.752 28.1476C137.276 29.3911 135.302 30.1519 133.133 30.1519C128.56 30.1519 124.854 26.7777 124.854 22.6167C124.854 22.2471 124.894 21.8867 124.95 21.5317C125.529 25.1777 128.966 27.982 133.133 27.982Z" fill="#263238" stroke="#263238" stroke-width="0.77" stroke-miterlimit="10"/>
<path d="M157.021 32.4628C161.821 32.4628 165.712 28.5717 165.712 23.7718C165.712 18.9719 161.821 15.0808 157.021 15.0808C152.221 15.0808 148.33 18.9719 148.33 23.7718C148.33 28.5717 152.221 32.4628 157.021 32.4628Z" fill="#388500" stroke="#263238" stroke-width="0.77" stroke-miterlimit="10"/>
<path d="M157.021 28.2949C153.396 28.2949 150.374 25.7161 149.687 22.2927C149.591 22.7709 149.539 23.266 149.539 23.7727C149.539 27.9045 152.889 31.2548 157.021 31.2548C161.153 31.2548 164.503 27.9053 164.503 23.7727C164.503 23.266 164.452 22.7717 164.356 22.2927C163.669 25.7161 160.647 28.2949 157.021 28.2949Z" fill="#263238" stroke="#263238" stroke-width="0.77" stroke-miterlimit="10"/>
<path d="M211.122 97.1191H183.092V104.838H211.122V97.1191Z" fill="#388500" stroke="#263238" stroke-width="0.77" stroke-miterlimit="10"/>
<path d="M211.122 99.6484H183.092V102.31H211.122V99.6484Z" fill="#388500" stroke="#263238" stroke-width="0.77" stroke-miterlimit="10"/>
<path d="M115.829 51.0403H105.932V98.4238H115.829V51.0403Z" fill="#388500" stroke="#263238" stroke-width="0.77" stroke-miterlimit="10"/>
<path d="M199.063 73.3377C200.474 75.3767 200.746 77.6336 199.67 78.3781C198.594 79.1235 196.577 78.074 195.166 76.035C193.754 73.9961 193.483 71.7392 194.558 70.9938C195.635 70.25 197.651 71.2988 199.063 73.3377Z" fill="white"/>
<path d="M185.397 18.487C186.424 19.9708 186.081 21.9882 184.631 22.9923C183.18 23.9964 181.172 23.6075 180.144 22.123C179.117 20.6392 179.459 18.6218 180.909 17.6177C182.361 16.6136 184.369 17.0025 185.397 18.487Z" fill="white"/>
<path d="M157.208 18.487C158.235 19.9708 157.892 21.9882 156.442 22.9923C154.991 23.9964 152.983 23.6075 151.955 22.123C150.928 20.6392 151.27 18.6218 152.721 17.6177C154.172 16.6136 156.18 17.0025 157.208 18.487Z" fill="white"/>
<path d="M133.51 18.487C134.537 19.9708 134.194 21.9882 132.743 22.9923C131.293 23.9964 129.285 23.6075 128.257 22.123C127.229 20.6392 127.572 18.6218 129.023 17.6177C130.473 16.6136 132.482 17.0025 133.51 18.487Z" fill="white"/>
<path d="M166.288 265.112C165.867 263.432 164.761 260.82 161.845 258.7C157.142 255.279 149.874 257.417 149.874 257.417C150.302 246.301 142.606 231.766 126.788 231.766C110.97 231.766 107.122 244.591 107.122 244.591C107.122 244.591 101.137 237.323 91.3043 241.171C81.4714 245.018 81.0441 257.843 81.0441 257.843C81.0441 257.843 74.6315 251.004 67.7908 253.141C62.1267 254.911 60.2749 262.54 59.8052 265.111H166.288V265.112Z" fill="#263238"/>
<path d="M161.399 261.04C160.978 259.359 159.872 256.748 156.956 254.627C152.254 251.207 144.986 253.344 144.986 253.344C145.413 242.228 137.718 227.693 121.9 227.693C106.081 227.693 102.234 240.518 102.234 240.518C102.234 240.518 96.2486 233.25 86.4157 237.098C76.5828 240.946 76.1554 253.771 76.1554 253.771C76.1554 253.771 69.7429 246.93 62.9022 249.068C57.2381 250.839 55.3862 258.467 54.9165 261.039H161.399V261.04Z" fill="white" stroke="#263238" stroke-width="0.77" stroke-miterlimit="10"/>
<path d="M303.143 329.517C302.879 328.467 302.189 326.835 300.366 325.51C297.428 323.373 292.886 324.708 292.886 324.708C293.154 317.763 288.345 308.68 278.46 308.68C268.576 308.68 266.172 316.694 266.172 316.694C266.172 316.694 262.432 312.153 256.288 314.557C250.143 316.961 249.876 324.975 249.876 324.975C249.876 324.975 245.869 320.701 241.594 322.037C238.055 323.143 236.897 327.91 236.604 329.517H303.143Z" fill="#263238"/>
<path d="M298.254 326.592C297.991 325.543 297.3 323.91 295.478 322.585C292.539 320.447 287.998 321.783 287.998 321.783C288.265 314.838 283.456 305.755 273.572 305.755C263.687 305.755 261.283 313.769 261.283 313.769C261.283 313.769 257.543 309.228 251.399 311.632C245.255 314.036 244.987 322.051 244.987 322.051C244.987 322.051 240.98 317.776 236.706 319.112C233.166 320.219 232.009 324.985 231.715 326.592H298.254Z" fill="white" stroke="#263238" stroke-width="0.77" stroke-miterlimit="10"/>
</svg>
