<svg width="439" height="293" viewBox="0 0 439 293" fill="none" xmlns="http://www.w3.org/2000/svg">
<path d="M365.373 265.304C358.921 263.662 352.374 262.335 345.733 261.441C315.606 257.387 246.157 255.979 212.497 257.226C168.801 258.845 30.3261 285.993 19.8638 261.162C9.40101 236.331 12.4781 54.4155 32.788 50.6371C53.0979 46.8582 125.104 61.7286 167.57 62.8085C210.035 63.8885 311.583 49.5578 353.434 47.9382C395.284 46.3185 398.976 52.2567 408.823 84.1053C418.67 115.954 429.133 220.676 427.286 244.968C425.717 265.615 381.016 269.286 365.373 265.304Z" fill="#388500"/>
<path opacity="0.7" d="M365.373 265.304C358.921 263.662 352.374 262.335 345.733 261.441C315.606 257.387 246.157 255.979 212.497 257.226C168.801 258.845 30.3261 285.993 19.8638 261.162C9.40101 236.331 12.4781 54.4155 32.788 50.6371C53.0979 46.8582 125.104 61.7286 167.57 62.8085C210.035 63.8885 311.583 49.5578 353.434 47.9382C395.284 46.3185 398.976 52.2567 408.823 84.1053C418.67 115.954 429.133 220.676 427.286 244.968C425.717 265.615 381.016 269.286 365.373 265.304Z" fill="white"/>
<path d="M97.917 58.2101C97.917 58.2101 95.7887 49.2721 84.2974 48.421C72.8056 47.5699 72.38 55.2307 68.5496 57.7846C64.7192 60.3384 62.1654 53.9541 56.6322 56.5079C51.0991 59.0618 52.3763 62.4666 49.3969 63.3177C46.4176 64.1688 47.2687 62.0411 43.0127 62.8922C38.7567 63.7433 39.1823 65.446 37.054 66.7226C34.9257 67.9992 35.3513 66.7226 32.798 67.1481C30.2442 67.5737 27.6904 69.7019 27.6904 69.7019H116.644C116.644 69.7019 113.986 59.0161 110.26 57.7846C102.238 55.1336 99.1942 62.0405 97.917 58.2101Z" stroke="#263238" stroke-width="0.585333" stroke-miterlimit="10"/>
<path d="M297.783 105.9C297.783 105.9 296.271 99.5534 288.111 98.9487C279.951 98.3441 279.648 103.785 276.928 105.598C274.208 107.411 272.395 102.878 268.466 104.691C264.537 106.505 265.443 108.923 263.328 109.527C261.212 110.132 261.816 108.621 258.794 109.225C255.772 109.83 256.074 111.039 254.563 111.945C253.051 112.852 253.354 111.945 251.54 112.248C249.727 112.55 247.913 114.061 247.913 114.061H311.081C311.081 114.061 309.194 106.473 306.548 105.598C300.851 103.716 298.689 108.621 297.783 105.9Z" stroke="#263238" stroke-width="0.585333" stroke-miterlimit="10"/>
<path d="M263.928 56.2285C263.928 56.2285 260.585 42.1852 242.529 40.8483C224.474 39.5108 223.805 51.5476 217.786 55.56C211.768 59.5725 207.755 49.5416 199.062 53.5541C190.369 57.5666 192.374 62.9159 187.694 64.2534C183.013 65.5909 184.35 62.2475 177.663 63.5844C170.976 64.9219 171.644 67.5968 168.301 69.6028C164.957 71.6087 165.626 69.6028 161.613 70.2718C157.601 70.9403 153.589 74.2843 153.589 74.2843H293.351C293.351 74.2843 289.174 57.4946 283.32 55.56C270.718 51.3942 265.934 62.2469 263.928 56.2285Z" stroke="#263238" stroke-width="0.585333" stroke-miterlimit="10"/>
<path d="M352.343 52.9793C359.02 51.4178 363.167 44.7391 361.606 38.0619C360.044 31.3847 353.365 27.2376 346.688 28.7991C340.011 30.3605 335.864 37.0393 337.425 43.7165C338.987 50.3936 345.666 54.5408 352.343 52.9793Z" fill="#388500" stroke="#263238" stroke-width="0.585333" stroke-miterlimit="10"/>
<path d="M349.527 19.292V25.2519" stroke="#263238" stroke-width="0.585333" stroke-miterlimit="10"/>
<path d="M349.527 56.5409V62.5008" stroke="#263238" stroke-width="0.585333" stroke-miterlimit="10"/>
<path d="M371.132 40.8965H365.172" stroke="#263238" stroke-width="0.585333" stroke-miterlimit="10"/>
<path d="M333.882 40.8965H327.923" stroke="#263238" stroke-width="0.585333" stroke-miterlimit="10"/>
<path d="M364.804 25.6196L360.59 29.834" stroke="#263238" stroke-width="0.585333" stroke-miterlimit="10"/>
<path d="M338.465 51.9589L334.251 56.1727" stroke="#263238" stroke-width="0.585333" stroke-miterlimit="10"/>
<path d="M334.251 25.6196L338.465 29.834" stroke="#263238" stroke-width="0.585333" stroke-miterlimit="10"/>
<path d="M360.59 51.9589L364.804 56.1727" stroke="#263238" stroke-width="0.585333" stroke-miterlimit="10"/>
<path d="M424.862 158.202C424.862 180.762 411.516 199.05 395.054 199.05C378.591 199.05 365.246 180.762 365.246 158.202C365.246 135.642 378.591 58.1055 395.054 58.1055C411.516 58.1055 424.862 135.642 424.862 158.202Z" fill="#388500"/>
<path d="M411.768 170.005L402.741 173.343L404.553 167.91L400.238 174.269L395.929 175.863L395.621 158.021L411.302 137.188L402.898 145.592L404.32 139.749L400.3 148.19L395.534 152.956L395.054 125.081L393.346 165.736L378.486 149.989L386.648 161.085L378.952 160.23L388.459 163.546L393.169 169.948L392.345 189.549L386.865 185.831L392.174 193.606L389.657 251.35H397.268L395.978 178.709L411.768 170.005Z" fill="#878787"/>
<path d="M411.452 125.17C411.452 125.17 411.728 127.909 410.231 129.919C408.735 131.93 406.032 132.451 406.032 132.451C406.032 132.451 405.756 129.712 407.253 127.702C408.75 125.691 411.452 125.17 411.452 125.17Z" fill="white"/>
<path d="M420.437 137.793C420.437 137.793 420.713 140.532 419.216 142.542C417.719 144.552 415.016 145.073 415.016 145.073C415.016 145.073 414.74 142.335 416.237 140.325C417.734 138.314 420.437 137.793 420.437 137.793Z" fill="white"/>
<path d="M420.432 162.369C420.432 162.369 419.77 165.041 417.684 166.43C415.598 167.819 412.877 167.4 412.877 167.4C412.877 167.4 413.54 164.728 415.626 163.339C417.712 161.95 420.432 162.369 420.432 162.369Z" fill="white"/>
<path d="M371.092 162.369C371.092 162.369 371.754 165.041 373.841 166.43C375.927 167.819 378.647 167.4 378.647 167.4C378.647 167.4 377.985 164.728 375.898 163.339C373.812 161.95 371.092 162.369 371.092 162.369Z" fill="white"/>
<path d="M410.056 152.167C410.056 152.167 410.332 154.906 408.835 156.916C407.338 158.927 404.635 159.448 404.635 159.448C404.635 159.448 404.359 156.71 405.856 154.699C407.353 152.688 410.056 152.167 410.056 152.167Z" fill="white"/>
<path d="M407.728 111.439C407.728 111.439 408.004 114.177 406.507 116.188C405.01 118.198 402.308 118.719 402.308 118.719C402.308 118.719 402.032 115.981 403.529 113.971C405.026 111.96 407.728 111.439 407.728 111.439Z" fill="white"/>
<path d="M402.376 121.912C402.376 121.912 402.651 124.65 401.155 126.66C399.658 128.671 396.955 129.192 396.955 129.192C396.955 129.192 396.679 126.453 398.176 124.443C399.673 122.433 402.376 121.912 402.376 121.912Z" fill="white"/>
<path d="M415.084 114.287C415.084 114.287 415.36 117.025 413.863 119.036C412.366 121.046 409.663 121.567 409.663 121.567C409.663 121.567 409.387 118.828 410.884 116.818C412.381 114.808 415.084 114.287 415.084 114.287Z" fill="white"/>
<path d="M373.789 114.287C373.789 114.287 373.513 117.025 375.01 119.036C376.507 121.046 379.209 121.567 379.209 121.567C379.209 121.567 379.485 118.828 377.988 116.818C376.492 114.808 373.789 114.287 373.789 114.287Z" fill="white"/>
<path d="M408.892 98.6383C408.892 98.6383 409.168 101.377 407.671 103.387C406.174 105.398 403.471 105.919 403.471 105.919C403.471 105.919 403.195 103.18 404.693 101.17C406.189 99.1593 408.892 98.6383 408.892 98.6383Z" fill="white"/>
<path d="M406.261 85.0404C406.261 85.0404 407.216 87.6217 406.273 89.9437C405.329 92.2658 402.844 93.4487 402.844 93.4487C402.844 93.4487 401.889 90.8674 402.833 88.5454C403.777 86.2239 406.261 85.0404 406.261 85.0404Z" fill="white"/>
<path d="M387.412 81.4873C387.412 81.4873 389.85 82.7645 390.705 85.1211C391.559 87.4776 390.507 90.0203 390.507 90.0203C390.507 90.0203 388.068 88.7431 387.214 86.3871C386.359 84.0306 387.412 81.4873 387.412 81.4873Z" fill="white"/>
<path d="M396.202 97.7476C396.202 97.7476 397.939 99.8829 397.795 102.385C397.651 104.887 395.681 106.81 395.681 106.81C395.681 106.81 393.945 104.674 394.089 102.172C394.232 99.6692 396.202 97.7476 396.202 97.7476Z" fill="white"/>
<path d="M395.737 73.5427C395.737 73.5427 397.474 75.678 397.33 78.1803C397.186 80.6826 395.216 82.6049 395.216 82.6049C395.216 82.6049 393.479 80.4696 393.623 77.9673C393.767 75.4644 395.737 73.5427 395.737 73.5427Z" fill="white"/>
<path d="M376.009 125.17C376.009 125.17 375.733 127.909 377.23 129.919C378.726 131.93 381.43 132.451 381.43 132.451C381.43 132.451 381.705 129.712 380.208 127.702C378.711 125.691 376.009 125.17 376.009 125.17Z" fill="white"/>
<path d="M370.888 140.065C370.888 140.065 370.612 142.804 372.11 144.814C373.606 146.825 376.31 147.346 376.31 147.346C376.31 147.346 376.585 144.607 375.088 142.597C373.591 140.586 370.888 140.065 370.888 140.065Z" fill="white"/>
<path d="M384.479 145.473C384.479 145.473 384.204 148.212 385.7 150.222C387.197 152.233 389.9 152.754 389.9 152.754C389.9 152.754 390.176 150.015 388.679 148.005C387.183 145.994 384.479 145.473 384.479 145.473Z" fill="white"/>
<path d="M388.196 124.834C388.196 124.834 387.148 127.379 388.006 129.734C388.865 132.088 391.305 133.362 391.305 133.362C391.305 133.362 392.354 130.817 391.495 128.462C390.636 126.107 388.196 124.834 388.196 124.834Z" fill="white"/>
<path d="M378.571 179.754C378.571 179.754 381.323 179.804 383.204 178.148C385.085 176.491 385.383 173.755 385.383 173.755C385.383 173.755 382.631 173.705 380.75 175.362C378.869 177.018 378.571 179.754 378.571 179.754Z" fill="white"/>
<path d="M404.979 176.744C404.979 176.744 405.726 179.393 407.856 180.715C409.985 182.036 412.691 181.53 412.691 181.53C412.691 181.53 411.943 178.881 409.813 177.56C407.684 176.238 404.979 176.744 404.979 176.744Z" fill="white"/>
<path d="M381.642 111.439C381.642 111.439 381.366 114.177 382.863 116.188C384.36 118.198 387.062 118.719 387.062 118.719C387.062 118.719 387.338 115.981 385.841 113.971C384.344 111.96 381.642 111.439 381.642 111.439Z" fill="white"/>
<path d="M381.594 99.3359C381.594 99.3359 381.318 102.074 382.815 104.085C384.312 106.095 387.015 106.616 387.015 106.616C387.015 106.616 387.291 103.878 385.794 101.868C384.297 99.8569 381.594 99.3359 381.594 99.3359Z" fill="white"/>
<path d="M222.723 176.45C222.723 194.59 211.992 209.296 198.754 209.296C185.517 209.296 174.785 194.59 174.785 176.45C174.785 158.31 185.516 95.9624 198.754 95.9624C211.992 95.9624 222.723 158.31 222.723 176.45Z" fill="#388500"/>
<path d="M212.194 185.941L204.936 188.625L206.393 184.257L202.923 189.37L199.458 190.651L199.211 176.305L211.82 159.553L205.062 166.31L206.205 161.612L202.973 168.4L199.141 172.232L198.754 149.818L197.381 182.508L185.432 169.846L191.995 178.769L185.807 178.081L193.452 180.748L197.239 185.896L196.576 201.657L192.169 198.666L196.439 204.919L194.415 251.351H200.535L199.497 192.94L212.194 185.941Z" fill="#878787"/>
<path d="M211.941 149.889C211.941 149.889 212.162 152.091 210.959 153.707C209.755 155.324 207.582 155.743 207.582 155.743C207.582 155.743 207.36 153.541 208.564 151.924C209.767 150.308 211.941 149.889 211.941 149.889Z" fill="white"/>
<path d="M219.165 160.039C219.165 160.039 219.386 162.241 218.182 163.858C216.979 165.475 214.806 165.894 214.806 165.894C214.806 165.894 214.584 163.692 215.788 162.075C216.991 160.458 219.165 160.039 219.165 160.039Z" fill="white"/>
<path d="M219.162 179.801C219.162 179.801 218.629 181.949 216.952 183.066C215.274 184.183 213.087 183.846 213.087 183.846C213.087 183.846 213.619 181.698 215.297 180.581C216.974 179.464 219.162 179.801 219.162 179.801Z" fill="white"/>
<path d="M179.487 179.801C179.487 179.801 180.019 181.949 181.697 183.066C183.375 184.183 185.562 183.846 185.562 183.846C185.562 183.846 185.029 181.698 183.352 180.581C181.674 179.464 179.487 179.801 179.487 179.801Z" fill="white"/>
<path d="M210.818 171.598C210.818 171.598 211.04 173.8 209.836 175.416C208.632 177.033 206.459 177.452 206.459 177.452C206.459 177.452 206.237 175.25 207.441 173.633C208.645 172.017 210.818 171.598 210.818 171.598Z" fill="white"/>
<path d="M208.946 138.848C208.946 138.848 209.168 141.05 207.964 142.667C206.76 144.283 204.587 144.702 204.587 144.702C204.587 144.702 204.365 142.5 205.569 140.883C206.773 139.266 208.946 138.848 208.946 138.848Z" fill="white"/>
<path d="M204.642 147.269C204.642 147.269 204.864 149.471 203.66 151.088C202.456 152.704 200.283 153.123 200.283 153.123C200.283 153.123 200.061 150.921 201.265 149.304C202.469 147.688 204.642 147.269 204.642 147.269Z" fill="white"/>
<path d="M214.86 141.137C214.86 141.137 215.082 143.339 213.878 144.956C212.675 146.573 210.501 146.991 210.501 146.991C210.501 146.991 210.279 144.789 211.483 143.173C212.687 141.556 214.86 141.137 214.86 141.137Z" fill="white"/>
<path d="M181.655 141.137C181.655 141.137 181.434 143.339 182.638 144.956C183.841 146.573 186.014 146.991 186.014 146.991C186.014 146.991 186.236 144.789 185.032 143.173C183.828 141.556 181.655 141.137 181.655 141.137Z" fill="white"/>
<path d="M209.882 128.555C209.882 128.555 210.104 130.757 208.9 132.373C207.696 133.99 205.523 134.409 205.523 134.409C205.523 134.409 205.301 132.207 206.505 130.59C207.709 128.974 209.882 128.555 209.882 128.555Z" fill="white"/>
<path d="M207.766 117.621C207.766 117.621 208.534 119.697 207.775 121.564C207.016 123.431 205.018 124.382 205.018 124.382C205.018 124.382 204.25 122.307 205.009 120.439C205.768 118.572 207.766 117.621 207.766 117.621Z" fill="white"/>
<path d="M192.609 114.764C192.609 114.764 194.57 115.791 195.257 117.685C195.944 119.58 195.098 121.625 195.098 121.625C195.098 121.625 193.137 120.598 192.45 118.703C191.762 116.808 192.609 114.764 192.609 114.764Z" fill="white"/>
<path d="M199.678 127.838C199.678 127.838 201.074 129.555 200.959 131.567C200.843 133.58 199.259 135.125 199.259 135.125C199.259 135.125 197.863 133.408 197.979 131.396C198.093 129.384 199.678 127.838 199.678 127.838Z" fill="white"/>
<path d="M199.303 108.375C199.303 108.375 200.7 110.092 200.584 112.104C200.468 114.117 198.884 115.662 198.884 115.662C198.884 115.662 197.488 113.945 197.603 111.933C197.719 109.921 199.303 108.375 199.303 108.375Z" fill="white"/>
<path d="M183.44 149.889C183.44 149.889 183.218 152.091 184.422 153.707C185.626 155.324 187.799 155.743 187.799 155.743C187.799 155.743 188.021 153.541 186.817 151.924C185.613 150.308 183.44 149.889 183.44 149.889Z" fill="white"/>
<path d="M179.323 161.867C179.323 161.867 179.102 164.069 180.305 165.685C181.509 167.302 183.682 167.721 183.682 167.721C183.682 167.721 183.904 165.519 182.7 163.902C181.496 162.285 179.323 161.867 179.323 161.867Z" fill="white"/>
<path d="M190.252 166.215C190.252 166.215 190.03 168.417 191.234 170.034C192.437 171.65 194.611 172.069 194.611 172.069C194.611 172.069 194.832 169.867 193.628 168.25C192.425 166.633 190.252 166.215 190.252 166.215Z" fill="white"/>
<path d="M193.24 149.619C193.24 149.619 192.397 151.665 193.087 153.558C193.777 155.452 195.74 156.476 195.74 156.476C195.74 156.476 196.583 154.429 195.893 152.536C195.202 150.642 193.24 149.619 193.24 149.619Z" fill="white"/>
<path d="M185.501 193.78C185.501 193.78 187.714 193.82 189.226 192.488C190.739 191.155 190.978 188.955 190.978 188.955C190.978 188.955 188.765 188.915 187.253 190.247C185.74 191.579 185.501 193.78 185.501 193.78Z" fill="white"/>
<path d="M206.735 191.359C206.735 191.359 207.336 193.489 209.048 194.551C210.761 195.614 212.936 195.207 212.936 195.207C212.936 195.207 212.335 193.077 210.622 192.014C208.91 190.952 206.735 191.359 206.735 191.359Z" fill="white"/>
<path d="M187.969 138.848C187.969 138.848 187.748 141.05 188.952 142.667C190.156 144.283 192.328 144.702 192.328 144.702C192.328 144.702 192.55 142.5 191.346 140.883C190.143 139.266 187.969 138.848 187.969 138.848Z" fill="white"/>
<path d="M187.931 129.116C187.931 129.116 187.71 131.318 188.914 132.934C190.117 134.551 192.29 134.97 192.29 134.97C192.29 134.97 192.512 132.768 191.308 131.152C190.105 129.535 187.931 129.116 187.931 129.116Z" fill="white"/>
<path d="M167.103 191.586C167.103 206.06 158.54 217.794 147.977 217.794C137.415 217.794 128.852 206.06 128.852 191.586C128.852 177.111 137.415 127.364 147.977 127.364C158.54 127.364 167.103 177.112 167.103 191.586Z" fill="#388500"/>
<path d="M158.701 199.159L152.91 201.301L154.072 197.815L151.303 201.895L148.539 202.918L148.342 191.47L158.402 178.104L153.011 183.496L153.923 179.747L151.343 185.163L148.286 188.22L147.978 170.336L146.882 196.42L137.348 186.317L142.585 193.436L137.646 192.887L143.746 195.015L146.768 199.123L146.24 211.699L142.724 209.313L146.13 214.302L144.515 251.35H149.398L148.57 204.744L158.701 199.159Z" fill="#878787"/>
<path d="M158.499 170.393C158.499 170.393 158.676 172.15 157.715 173.44C156.755 174.73 155.021 175.064 155.021 175.064C155.021 175.064 154.844 173.307 155.805 172.017C156.765 170.727 158.499 170.393 158.499 170.393Z" fill="white"/>
<path d="M164.263 178.492C164.263 178.492 164.44 180.249 163.479 181.538C162.519 182.828 160.785 183.163 160.785 183.163C160.785 183.163 160.608 181.405 161.569 180.115C162.529 178.826 164.263 178.492 164.263 178.492Z" fill="white"/>
<path d="M164.261 194.26C164.261 194.26 163.836 195.974 162.497 196.865C161.159 197.757 159.413 197.487 159.413 197.487C159.413 197.487 159.838 195.774 161.177 194.882C162.515 193.991 164.261 194.26 164.261 194.26Z" fill="white"/>
<path d="M132.604 194.26C132.604 194.26 133.028 195.974 134.367 196.865C135.706 197.757 137.451 197.487 137.451 197.487C137.451 197.487 137.026 195.774 135.687 194.882C134.349 193.991 132.604 194.26 132.604 194.26Z" fill="white"/>
<path d="M157.603 187.715C157.603 187.715 157.779 189.472 156.819 190.762C155.858 192.052 154.125 192.387 154.125 192.387C154.125 192.387 153.948 190.629 154.908 189.34C155.869 188.049 157.603 187.715 157.603 187.715Z" fill="white"/>
<path d="M156.11 161.583C156.11 161.583 156.286 163.34 155.326 164.63C154.365 165.92 152.631 166.254 152.631 166.254C152.631 166.254 152.455 164.497 153.415 163.208C154.376 161.917 156.11 161.583 156.11 161.583Z" fill="white"/>
<path d="M152.675 168.302C152.675 168.302 152.852 170.059 151.892 171.349C150.931 172.639 149.197 172.973 149.197 172.973C149.197 172.973 149.021 171.216 149.981 169.927C150.941 168.636 152.675 168.302 152.675 168.302Z" fill="white"/>
<path d="M160.828 163.41C160.828 163.41 161.005 165.167 160.045 166.457C159.084 167.747 157.35 168.082 157.35 168.082C157.35 168.082 157.174 166.325 158.134 165.034C159.095 163.744 160.828 163.41 160.828 163.41Z" fill="white"/>
<path d="M134.334 163.41C134.334 163.41 134.157 165.167 135.118 166.457C136.078 167.747 137.812 168.082 137.812 168.082C137.812 168.082 137.989 166.325 137.028 165.034C136.068 163.744 134.334 163.41 134.334 163.41Z" fill="white"/>
<path d="M156.856 153.37C156.856 153.37 157.033 155.127 156.073 156.417C155.112 157.707 153.378 158.041 153.378 158.041C153.378 158.041 153.201 156.284 154.162 154.994C155.122 153.704 156.856 153.37 156.856 153.37Z" fill="white"/>
<path d="M155.168 144.645C155.168 144.645 155.781 146.302 155.175 147.791C154.569 149.281 152.975 150.04 152.975 150.04C152.975 150.04 152.362 148.384 152.968 146.894C153.574 145.404 155.168 144.645 155.168 144.645Z" fill="white"/>
<path d="M143.074 142.366C143.074 142.366 144.639 143.186 145.187 144.697C145.735 146.209 145.06 147.841 145.06 147.841C145.06 147.841 143.495 147.021 142.947 145.509C142.399 143.997 143.074 142.366 143.074 142.366Z" fill="white"/>
<path d="M148.714 152.798C148.714 152.798 149.829 154.168 149.736 155.774C149.644 157.379 148.379 158.613 148.379 158.613C148.379 158.613 147.265 157.243 147.358 155.637C147.45 154.031 148.714 152.798 148.714 152.798Z" fill="white"/>
<path d="M148.415 137.268C148.415 137.268 149.53 138.638 149.437 140.244C149.345 141.849 148.081 143.082 148.081 143.082C148.081 143.082 146.966 141.712 147.059 140.107C147.151 138.502 148.415 137.268 148.415 137.268Z" fill="white"/>
<path d="M135.758 170.393C135.758 170.393 135.581 172.15 136.541 173.44C137.502 174.73 139.236 175.064 139.236 175.064C139.236 175.064 139.413 173.307 138.452 172.017C137.492 170.727 135.758 170.393 135.758 170.393Z" fill="white"/>
<path d="M132.473 179.95C132.473 179.95 132.296 181.707 133.256 182.997C134.217 184.287 135.951 184.621 135.951 184.621C135.951 184.621 136.127 182.864 135.167 181.574C134.207 180.284 132.473 179.95 132.473 179.95Z" fill="white"/>
<path d="M141.193 183.419C141.193 183.419 141.016 185.176 141.976 186.466C142.937 187.756 144.671 188.09 144.671 188.09C144.671 188.09 144.848 186.333 143.887 185.043C142.927 183.753 141.193 183.419 141.193 183.419Z" fill="white"/>
<path d="M143.578 170.177C143.578 170.177 142.905 171.809 143.456 173.321C144.007 174.831 145.572 175.649 145.572 175.649C145.572 175.649 146.245 174.016 145.694 172.505C145.143 170.994 143.578 170.177 143.578 170.177Z" fill="white"/>
<path d="M137.402 205.414C137.402 205.414 139.168 205.446 140.374 204.383C141.581 203.32 141.772 201.565 141.772 201.565C141.772 201.565 140.007 201.532 138.8 202.595C137.593 203.658 137.402 205.414 137.402 205.414Z" fill="white"/>
<path d="M154.345 203.482C154.345 203.482 154.825 205.182 156.191 206.03C157.558 206.878 159.294 206.553 159.294 206.553C159.294 206.553 158.814 204.853 157.447 204.006C156.081 203.158 154.345 203.482 154.345 203.482Z" fill="white"/>
<path d="M139.372 161.583C139.372 161.583 139.195 163.34 140.156 164.63C141.116 165.92 142.85 166.254 142.85 166.254C142.85 166.254 143.027 164.497 142.066 163.208C141.106 161.917 139.372 161.583 139.372 161.583Z" fill="white"/>
<path d="M139.341 153.817C139.341 153.817 139.165 155.575 140.125 156.865C141.086 158.155 142.819 158.489 142.819 158.489C142.819 158.489 142.996 156.732 142.036 155.442C141.076 154.152 139.341 153.817 139.341 153.817Z" fill="white"/>
<path d="M43.2574 251.35H36.7163L38.6134 123.575H41.3603L43.2574 251.35Z" fill="white" stroke="#263238" stroke-width="0.585333" stroke-miterlimit="10"/>
<path d="M41.5142 133.954L41.3602 123.575H38.6133L38.4587 133.954H41.5142Z" fill="#263238" stroke="#263238" stroke-width="0.585333" stroke-miterlimit="10"/>
<path d="M40.0303 122.238C42.1652 122.238 43.8959 113.237 43.8959 102.132C43.8959 91.0278 42.1652 82.026 40.0303 82.026C37.8955 82.026 36.1648 91.0278 36.1648 102.132C36.1648 113.237 37.8955 122.238 40.0303 122.238Z" fill="#388500" stroke="#263238" stroke-width="0.585333" stroke-miterlimit="10"/>
<path d="M75.1195 142.728C76.168 140.868 69.1764 134.94 59.5034 129.486C49.8304 124.033 41.1389 121.12 40.0905 122.979C39.0421 124.839 46.0336 130.767 55.7066 136.221C65.3796 141.674 74.0711 144.587 75.1195 142.728Z" fill="#388500" stroke="#263238" stroke-width="0.585333" stroke-miterlimit="10"/>
<path d="M24.2662 136.219C33.9395 130.766 40.9313 124.837 39.8829 122.977C38.8346 121.118 30.143 124.031 20.4698 129.485C10.7966 134.938 3.80474 140.866 4.85308 142.726C5.90141 144.586 14.593 141.672 24.2662 136.219Z" fill="#388500" stroke="#263238" stroke-width="0.585333" stroke-miterlimit="10"/>
<path d="M44.0527 122.625C44.0527 120.301 42.1685 118.417 39.8442 118.417C37.5198 118.417 35.6362 120.301 35.6362 122.625C35.6362 124.95 37.5204 126.834 39.8442 126.834C42.1691 126.834 44.0527 124.95 44.0527 122.625Z" fill="white" stroke="#263238" stroke-width="0.585333" stroke-miterlimit="10"/>
<path d="M96.8675 251.35H88.8203L91.154 94.1589H94.5338L96.8675 251.35Z" fill="white" stroke="#263238" stroke-width="0.585333" stroke-miterlimit="10"/>
<path d="M94.7234 106.927L94.5337 94.1589H91.154L90.9644 106.927H94.7234Z" fill="#263238" stroke="#263238" stroke-width="0.585333" stroke-miterlimit="10"/>
<path d="M92.8976 92.5141C95.5238 92.5141 97.6528 81.4398 97.6528 67.7791C97.6528 54.1183 95.5238 43.0441 92.8976 43.0441C90.2713 43.0441 88.1423 54.1183 88.1423 67.7791C88.1423 81.4398 90.2713 92.5141 92.8976 92.5141Z" fill="#388500" stroke="#263238" stroke-width="0.585333" stroke-miterlimit="10"/>
<path d="M136.066 117.72C137.355 115.433 128.754 108.139 116.854 101.431C104.954 94.7218 94.262 91.1378 92.9723 93.4256C91.6825 95.7133 100.284 103.006 112.184 109.715C124.084 116.424 134.776 120.008 136.066 117.72Z" fill="#388500" stroke="#263238" stroke-width="0.585333" stroke-miterlimit="10"/>
<path d="M73.5038 109.713C85.4036 103.005 94.0051 95.7113 92.7156 93.4232C91.4261 91.1357 80.7333 94.7191 68.8334 101.428C56.933 108.137 48.3321 115.43 49.6216 117.717C50.9111 120.006 61.604 116.422 73.5038 109.713Z" fill="#388500" stroke="#263238" stroke-width="0.585333" stroke-miterlimit="10"/>
<path d="M92.6687 98.1678C95.528 98.1678 97.846 95.8498 97.846 92.9905C97.846 90.1312 95.528 87.8132 92.6687 87.8132C89.8094 87.8132 87.4915 90.1312 87.4915 92.9905C87.4915 95.8498 89.8094 98.1678 92.6687 98.1678Z" fill="white" stroke="#263238" stroke-width="0.585333" stroke-miterlimit="10"/>
<path d="M135.789 251.351H182.377V197.769H135.789V251.351Z" fill="white" stroke="#263238" stroke-width="0.585333" stroke-miterlimit="10"/>
<path d="M123.03 251.351H150.375V197.769H123.03V251.351Z" fill="#CCCCCC" stroke="#263238" stroke-width="0.585333" stroke-miterlimit="10"/>
<path d="M130.505 234.432H141.219V212.281H130.505V234.432Z" fill="white" stroke="#263238" stroke-width="0.585333" stroke-miterlimit="10"/>
<path d="M127.571 234.432H133.859V212.281H127.571V234.432Z" fill="#CCCCCC" stroke="#263238" stroke-width="0.585333" stroke-miterlimit="10"/>
<path d="M132.874 213.565H128.565" stroke="#263238" stroke-width="0.585333" stroke-miterlimit="10"/>
<path d="M132.874 214.931H128.565" stroke="#263238" stroke-width="0.585333" stroke-miterlimit="10"/>
<path d="M132.874 216.297H128.565" stroke="#263238" stroke-width="0.585333" stroke-miterlimit="10"/>
<path d="M132.874 217.664H128.565" stroke="#263238" stroke-width="0.585333" stroke-miterlimit="10"/>
<path d="M132.874 219.03H128.565" stroke="#263238" stroke-width="0.585333" stroke-miterlimit="10"/>
<path d="M122.173 198.657H183.771V195.829H122.173V198.657Z" fill="#808080" stroke="#263238" stroke-width="0.585333" stroke-miterlimit="10"/>
<path d="M151.862 195.828H122.174V198.656H151.862V195.828Z" fill="#454545" stroke="#263238" stroke-width="0.585333" stroke-miterlimit="10"/>
<path d="M161.928 208.992H163.345V207.372H169.861V208.992H171.277C173.587 208.992 175.465 210.87 175.465 213.179V236.552C175.465 238.861 173.587 240.739 171.277 240.739H161.929C159.62 240.739 157.741 238.861 157.741 236.552V213.179C157.74 210.87 159.619 208.992 161.928 208.992ZM159.463 236.552C159.463 237.911 160.569 239.016 161.928 239.016H171.277C172.636 239.016 173.742 237.911 173.742 236.552V213.179C173.742 211.82 172.636 210.714 171.277 210.714H161.928C160.569 210.714 159.463 211.82 159.463 213.179V236.552Z" fill="#388500"/>
<path d="M160.368 218.365H173.031V213.338H160.368V218.365Z" fill="#388500"/>
<path d="M160.368 224.449H173.031V219.423H160.368V224.449Z" fill="#388500"/>
<path d="M160.368 230.533H173.031V225.507H160.368V230.533Z" fill="#388500"/>
<path d="M160.368 236.617H173.031V231.591H160.368V236.617Z" fill="#388500"/>
<path d="M78.4377 251.351H125.026V197.769H78.4377V251.351Z" fill="white" stroke="#263238" stroke-width="0.585333" stroke-miterlimit="10"/>
<path d="M65.6787 251.351H93.0237V197.769H65.6787V251.351Z" fill="#CCCCCC" stroke="#263238" stroke-width="0.585333" stroke-miterlimit="10"/>
<path d="M73.1532 234.432H83.8672V212.281H73.1532V234.432Z" fill="white" stroke="#263238" stroke-width="0.585333" stroke-miterlimit="10"/>
<path d="M70.2198 234.432H76.5081V212.281H70.2198V234.432Z" fill="#CCCCCC" stroke="#263238" stroke-width="0.585333" stroke-miterlimit="10"/>
<path d="M75.5231 213.565H71.2139" stroke="#263238" stroke-width="0.585333" stroke-miterlimit="10"/>
<path d="M75.5231 214.931H71.2139" stroke="#263238" stroke-width="0.585333" stroke-miterlimit="10"/>
<path d="M75.5231 216.297H71.2139" stroke="#263238" stroke-width="0.585333" stroke-miterlimit="10"/>
<path d="M75.5231 217.664H71.2139" stroke="#263238" stroke-width="0.585333" stroke-miterlimit="10"/>
<path d="M75.5231 219.03H71.2139" stroke="#263238" stroke-width="0.585333" stroke-miterlimit="10"/>
<path d="M64.822 198.657H126.42V195.829H64.822V198.657Z" fill="#808080" stroke="#263238" stroke-width="0.585333" stroke-miterlimit="10"/>
<path d="M94.5101 195.828H64.822V198.656H94.5101V195.828Z" fill="#454545" stroke="#263238" stroke-width="0.585333" stroke-miterlimit="10"/>
<path d="M104.577 208.992H105.994V207.372H112.51V208.992H113.926C116.235 208.992 118.114 210.87 118.114 213.179V236.552C118.114 238.861 116.235 240.739 113.926 240.739H104.578C102.269 240.739 100.39 238.861 100.39 236.552V213.179C100.389 210.87 102.268 208.992 104.577 208.992ZM102.112 236.552C102.112 237.911 103.218 239.016 104.577 239.016H113.926C115.285 239.016 116.391 237.911 116.391 236.552V213.179C116.391 211.82 115.285 210.714 113.926 210.714H104.577C103.218 210.714 102.112 211.82 102.112 213.179V236.552Z" fill="#388500"/>
<path d="M103.017 218.365H115.679V213.338H103.017V218.365Z" fill="#388500"/>
<path d="M103.017 224.449H115.679V219.423H103.017V224.449Z" fill="#388500"/>
<path d="M103.017 230.533H115.679V225.507H103.017V230.533Z" fill="#388500"/>
<path d="M103.017 236.617H115.679V231.591H103.017V236.617Z" fill="#388500"/>
<path d="M56.8065 251.123H57.1144C57.842 251.123 58.4314 250.533 58.4314 249.806V227.245C58.4314 226.518 57.842 225.928 57.1144 225.928H56.8065C56.0789 225.928 55.4895 226.518 55.4895 227.245V249.806C55.4895 250.533 56.0789 251.123 56.8065 251.123Z" fill="#388500" stroke="#263238" stroke-width="0.585333" stroke-miterlimit="10"/>
<path d="M54.6273 247.238H59.3486C59.6056 247.238 59.8514 247.345 60.0264 247.534L62.1272 249.798C62.6762 250.389 62.2566 251.351 61.4494 251.351H52.5266C51.7194 251.351 51.3003 250.389 51.8487 249.798L53.9495 247.534C54.1251 247.345 54.3704 247.238 54.6273 247.238Z" fill="#388500" stroke="#263238" stroke-width="0.585333" stroke-miterlimit="10"/>
<path d="M54.6273 243.439H59.3486C59.6056 243.439 59.8514 243.546 60.0264 243.734L62.1272 245.998C62.6762 246.59 62.2566 247.552 61.4494 247.552H52.5266C51.7194 247.552 51.3003 246.59 51.8487 245.998L53.9495 243.734C54.1251 243.546 54.3704 243.439 54.6273 243.439Z" fill="#388500" stroke="#263238" stroke-width="0.585333" stroke-miterlimit="10"/>
<path d="M54.6273 239.641H59.3486C59.6056 239.641 59.8514 239.748 60.0264 239.936L62.1272 242.2C62.6762 242.792 62.2566 243.754 61.4494 243.754H52.5266C51.7194 243.754 51.3003 242.792 51.8487 242.2L53.9495 239.936C54.1251 239.748 54.3704 239.641 54.6273 239.641Z" fill="#388500" stroke="#263238" stroke-width="0.585333" stroke-miterlimit="10"/>
<path d="M54.6273 235.842H59.3486C59.6056 235.842 59.8514 235.949 60.0264 236.138L62.1272 238.402C62.6762 238.993 62.2566 239.955 61.4494 239.955H52.5266C51.7194 239.955 51.3003 238.993 51.8487 238.402L53.9495 236.138C54.1251 235.949 54.3704 235.842 54.6273 235.842Z" fill="#388500" stroke="#263238" stroke-width="0.585333" stroke-miterlimit="10"/>
<path d="M54.6273 232.043H59.3486C59.6056 232.043 59.8514 232.15 60.0264 232.339L62.1272 234.603C62.6762 235.194 62.2566 236.156 61.4494 236.156H52.5266C51.7194 236.156 51.3003 235.194 51.8487 234.603L53.9495 232.339C54.1251 232.15 54.3704 232.043 54.6273 232.043Z" fill="#388500" stroke="#263238" stroke-width="0.585333" stroke-miterlimit="10"/>
<path d="M54.6273 228.245H59.3486C59.6056 228.245 59.8514 228.352 60.0264 228.541L62.1272 230.805C62.6762 231.397 62.2566 232.358 61.4494 232.358H52.5266C51.7194 232.358 51.3003 231.397 51.8487 230.805L53.9495 228.541C54.1251 228.352 54.3704 228.245 54.6273 228.245Z" fill="#388500" stroke="#263238" stroke-width="0.585333" stroke-miterlimit="10"/>
<path d="M89.2984 251.123H89.6063C90.3333 251.123 90.9233 250.533 90.9233 249.806V227.245C90.9233 226.518 90.3339 225.928 89.6063 225.928H89.2984C88.5715 225.928 87.9814 226.518 87.9814 227.245V249.806C87.9814 250.533 88.5709 251.123 89.2984 251.123Z" fill="#388500" stroke="#263238" stroke-width="0.585333" stroke-miterlimit="10"/>
<path d="M87.1193 247.238H91.8406C92.0975 247.238 92.3434 247.345 92.5184 247.534L94.6197 249.798C95.1688 250.389 94.7491 251.351 93.9419 251.351H85.0185C84.2113 251.351 83.7922 250.389 84.3407 249.798L86.4414 247.534C86.617 247.345 86.8623 247.238 87.1193 247.238Z" fill="#388500" stroke="#263238" stroke-width="0.585333" stroke-miterlimit="10"/>
<path d="M87.1193 243.439H91.8406C92.0975 243.439 92.3434 243.546 92.5184 243.734L94.6197 245.998C95.1688 246.59 94.7491 247.552 93.9419 247.552H85.0185C84.2113 247.552 83.7922 246.59 84.3407 245.998L86.4414 243.734C86.617 243.546 86.8623 243.439 87.1193 243.439Z" fill="#388500" stroke="#263238" stroke-width="0.585333" stroke-miterlimit="10"/>
<path d="M87.1193 239.641H91.8406C92.0975 239.641 92.3434 239.748 92.5184 239.936L94.6197 242.2C95.1688 242.792 94.7491 243.754 93.9419 243.754H85.0185C84.2113 243.754 83.7922 242.792 84.3407 242.2L86.4414 239.936C86.617 239.748 86.8623 239.641 87.1193 239.641Z" fill="#388500" stroke="#263238" stroke-width="0.585333" stroke-miterlimit="10"/>
<path d="M87.1193 235.842H91.8406C92.0975 235.842 92.3434 235.949 92.5184 236.138L94.6197 238.402C95.1688 238.993 94.7491 239.955 93.9419 239.955H85.0185C84.2113 239.955 83.7922 238.993 84.3407 238.402L86.4414 236.138C86.617 235.949 86.8623 235.842 87.1193 235.842Z" fill="#388500" stroke="#263238" stroke-width="0.585333" stroke-miterlimit="10"/>
<path d="M87.1193 232.043H91.8406C92.0975 232.043 92.3434 232.15 92.5184 232.339L94.6197 234.603C95.1688 235.194 94.7491 236.156 93.9419 236.156H85.0185C84.2113 236.156 83.7922 235.194 84.3407 234.603L86.4414 232.339C86.617 232.15 86.8623 232.043 87.1193 232.043Z" fill="#388500" stroke="#263238" stroke-width="0.585333" stroke-miterlimit="10"/>
<path d="M87.1193 228.245H91.8406C92.0975 228.245 92.3434 228.352 92.5184 228.541L94.6197 230.805C95.1688 231.397 94.7491 232.358 93.9419 232.358H85.0185C84.2113 232.358 83.7922 231.397 84.3407 230.805L86.4414 228.541C86.617 228.352 86.8623 228.245 87.1193 228.245Z" fill="#388500" stroke="#263238" stroke-width="0.585333" stroke-miterlimit="10"/>
<path d="M192.258 251.123H192.566C193.293 251.123 193.883 250.533 193.883 249.806V227.245C193.883 226.518 193.293 225.928 192.566 225.928H192.258C191.531 225.928 190.941 226.518 190.941 227.245V249.806C190.941 250.533 191.53 251.123 192.258 251.123Z" fill="#388500" stroke="#263238" stroke-width="0.585333" stroke-miterlimit="10"/>
<path d="M190.079 247.238H194.8C195.057 247.238 195.303 247.345 195.478 247.534L197.579 249.798C198.128 250.389 197.708 251.351 196.901 251.351H187.978C187.171 251.351 186.751 250.389 187.3 249.798L189.401 247.534C189.577 247.345 189.822 247.238 190.079 247.238Z" fill="#388500" stroke="#263238" stroke-width="0.585333" stroke-miterlimit="10"/>
<path d="M190.079 243.439H194.8C195.057 243.439 195.303 243.546 195.478 243.734L197.579 245.998C198.128 246.59 197.708 247.552 196.901 247.552H187.978C187.171 247.552 186.751 246.59 187.3 245.998L189.401 243.734C189.577 243.546 189.822 243.439 190.079 243.439Z" fill="#388500" stroke="#263238" stroke-width="0.585333" stroke-miterlimit="10"/>
<path d="M190.079 239.641H194.8C195.057 239.641 195.303 239.748 195.478 239.936L197.579 242.2C198.128 242.792 197.708 243.754 196.901 243.754H187.978C187.171 243.754 186.751 242.792 187.3 242.2L189.401 239.936C189.577 239.748 189.822 239.641 190.079 239.641Z" fill="#388500" stroke="#263238" stroke-width="0.585333" stroke-miterlimit="10"/>
<path d="M190.079 235.842H194.8C195.057 235.842 195.303 235.949 195.478 236.138L197.579 238.402C198.128 238.993 197.708 239.955 196.901 239.955H187.978C187.171 239.955 186.751 238.993 187.3 238.402L189.401 236.138C189.577 235.949 189.822 235.842 190.079 235.842Z" fill="#388500" stroke="#263238" stroke-width="0.585333" stroke-miterlimit="10"/>
<path d="M190.079 232.043H194.8C195.057 232.043 195.303 232.15 195.478 232.339L197.579 234.603C198.128 235.194 197.708 236.156 196.901 236.156H187.978C187.171 236.156 186.751 235.194 187.3 234.603L189.401 232.339C189.577 232.15 189.822 232.043 190.079 232.043Z" fill="#388500" stroke="#263238" stroke-width="0.585333" stroke-miterlimit="10"/>
<path d="M190.079 228.245H194.8C195.057 228.245 195.303 228.352 195.478 228.541L197.579 230.805C198.128 231.397 197.708 232.358 196.901 232.358H187.978C187.171 232.358 186.751 231.397 187.3 230.805L189.401 228.541C189.577 228.352 189.822 228.245 190.079 228.245Z" fill="#388500" stroke="#263238" stroke-width="0.585333" stroke-miterlimit="10"/>
<path d="M265.637 251.298H343.313V168.066H265.637V251.298Z" fill="white" stroke="#263238" stroke-width="0.585333" stroke-miterlimit="10"/>
<path d="M220.306 163.03L245.906 129.553L266.573 163.03V251.298H220.306V163.03Z" fill="white" stroke="#263238" stroke-width="0.585333" stroke-miterlimit="10"/>
<path d="M249.793 124.919L220.693 180.086H210.99L240.09 124.919H249.793Z" fill="#263238" stroke="#263238" stroke-width="0.585333" stroke-miterlimit="10"/>
<path d="M240.924 124.919H322.607L351.707 180.086H270.023L240.924 124.919Z" fill="#263238" stroke="#263238" stroke-width="0.585333" stroke-miterlimit="10"/>
<path d="M235.694 251.351H253.969V207.043H235.694V251.351Z" fill="white" stroke="#263238" stroke-width="0.585333" stroke-miterlimit="10"/>
<path d="M275.034 193.707V184.292H293.309V211.397H275.034V197.738" fill="white"/>
<path d="M275.034 193.707V184.292H293.309V211.397H275.034V197.738" stroke="#263238" stroke-width="0.585333" stroke-miterlimit="10"/>
<path d="M276.614 209.054H291.729V186.635H276.614V209.054Z" fill="white" stroke="#263238" stroke-width="0.585333" stroke-miterlimit="10"/>
<path d="M283.272 209.054H285.071V186.635H283.272V209.054Z" fill="white" stroke="#263238" stroke-width="0.585333" stroke-miterlimit="10"/>
<path d="M243.438 183.358H236.313V156.252H254.587V183.358H246.462" fill="white"/>
<path d="M243.438 183.358H236.313V156.252H254.587V183.358H246.462" stroke="#263238" stroke-width="0.585333" stroke-miterlimit="10"/>
<path d="M237.893 181.014H253.007V158.595H237.893V181.014Z" fill="white" stroke="#263238" stroke-width="0.585333" stroke-miterlimit="10"/>
<path d="M244.551 181.014H246.35V158.595H244.551V181.014Z" fill="white" stroke="#263238" stroke-width="0.585333" stroke-miterlimit="10"/>
<path d="M275.034 243.176H293.309V216.07H275.034V243.176Z" fill="white" stroke="#263238" stroke-width="0.585333" stroke-miterlimit="10"/>
<path d="M276.614 240.833H291.729V218.414H276.614V240.833Z" fill="white" stroke="#263238" stroke-width="0.585333" stroke-miterlimit="10"/>
<path d="M283.272 240.833H285.071V218.414H283.272V240.833Z" fill="white" stroke="#263238" stroke-width="0.585333" stroke-miterlimit="10"/>
<path d="M314.823 211.397H333.098V184.291H314.823V211.397Z" fill="white" stroke="#263238" stroke-width="0.585333" stroke-miterlimit="10"/>
<path d="M316.404 209.055H331.518V186.636H316.404V209.055Z" fill="white" stroke="#263238" stroke-width="0.585333" stroke-miterlimit="10"/>
<path d="M323.062 191.086V186.635H324.86V209.054H323.062V193.908" fill="white"/>
<path d="M323.062 191.086V186.635H324.86V209.054H323.062V193.908" stroke="#263238" stroke-width="0.585333" stroke-miterlimit="10"/>
<path d="M314.823 243.176H333.098V216.07H314.823V243.176Z" fill="white" stroke="#263238" stroke-width="0.585333" stroke-miterlimit="10"/>
<path d="M316.404 240.833H331.518V218.414H316.404V240.833Z" fill="white" stroke="#263238" stroke-width="0.585333" stroke-miterlimit="10"/>
<path d="M323.062 240.833H324.86V218.414H323.062V240.833Z" fill="white" stroke="#263238" stroke-width="0.585333" stroke-miterlimit="10"/>
<path d="M250.394 128.519H283.225L294.921 150.692H262.09L250.394 128.519Z" fill="white" stroke="#263238" stroke-width="0.585333" stroke-miterlimit="10"/>
<path d="M252.771 129.703H282.096L292.544 149.508H263.218L252.771 129.703Z" fill="#388500" stroke="#263238" stroke-width="0.585333" stroke-miterlimit="10"/>
<path d="M257.984 129.703L268.431 149.508" stroke="#263238" stroke-width="0.585333" stroke-miterlimit="10"/>
<path d="M264.158 129.703L274.605 149.508" stroke="#263238" stroke-width="0.585333" stroke-miterlimit="10"/>
<path d="M270.331 129.703L280.778 149.508" stroke="#263238" stroke-width="0.585333" stroke-miterlimit="10"/>
<path d="M276.504 129.703L286.952 149.508" stroke="#263238" stroke-width="0.585333" stroke-miterlimit="10"/>
<path d="M284.261 133.732H255.04" stroke="#263238" stroke-width="0.585333" stroke-miterlimit="10"/>
<path d="M286.73 138.67H257.509" stroke="#263238" stroke-width="0.585333" stroke-miterlimit="10"/>
<path d="M289.199 143.609H259.979" stroke="#263238" stroke-width="0.585333" stroke-miterlimit="10"/>
<path d="M262.071 150.761H294.902L306.598 172.934H273.767L262.071 150.761Z" fill="white" stroke="#263238" stroke-width="0.585333" stroke-miterlimit="10"/>
<path d="M264.448 151.944H293.774L304.221 171.75H274.896L264.448 151.944Z" fill="#388500" stroke="#263238" stroke-width="0.585333" stroke-miterlimit="10"/>
<path d="M269.661 151.944L280.109 171.75" stroke="#263238" stroke-width="0.585333" stroke-miterlimit="10"/>
<path d="M275.834 151.944L286.282 171.75" stroke="#263238" stroke-width="0.585333" stroke-miterlimit="10"/>
<path d="M282.008 151.944L292.455 171.75" stroke="#263238" stroke-width="0.585333" stroke-miterlimit="10"/>
<path d="M288.181 151.944L298.628 171.75" stroke="#263238" stroke-width="0.585333" stroke-miterlimit="10"/>
<path d="M295.937 155.974H266.717" stroke="#263238" stroke-width="0.585333" stroke-miterlimit="10"/>
<path d="M298.407 160.912H269.186" stroke="#263238" stroke-width="0.585333" stroke-miterlimit="10"/>
<path d="M300.876 165.851H271.655" stroke="#263238" stroke-width="0.585333" stroke-miterlimit="10"/>
<path d="M287.52 128.519H320.351L332.047 150.692H299.216L287.52 128.519Z" fill="white" stroke="#263238" stroke-width="0.585333" stroke-miterlimit="10"/>
<path d="M289.897 129.703H319.222L329.67 149.508H300.344L289.897 129.703Z" fill="#388500" stroke="#263238" stroke-width="0.585333" stroke-miterlimit="10"/>
<path d="M295.11 129.703L305.557 149.508" stroke="#263238" stroke-width="0.585333" stroke-miterlimit="10"/>
<path d="M301.283 129.703L311.73 149.508" stroke="#263238" stroke-width="0.585333" stroke-miterlimit="10"/>
<path d="M307.457 129.703L317.904 149.508" stroke="#263238" stroke-width="0.585333" stroke-miterlimit="10"/>
<path d="M313.63 129.703L324.077 149.508" stroke="#263238" stroke-width="0.585333" stroke-miterlimit="10"/>
<path d="M321.386 133.732H292.165" stroke="#263238" stroke-width="0.585333" stroke-miterlimit="10"/>
<path d="M323.856 138.67H294.635" stroke="#263238" stroke-width="0.585333" stroke-miterlimit="10"/>
<path d="M326.324 143.609H297.104" stroke="#263238" stroke-width="0.585333" stroke-miterlimit="10"/>
<path d="M299.197 150.761H332.027L343.723 172.934H310.893L299.197 150.761Z" fill="white" stroke="#263238" stroke-width="0.585333" stroke-miterlimit="10"/>
<path d="M301.573 151.944H330.899L341.346 171.75H312.021L301.573 151.944Z" fill="#388500" stroke="#263238" stroke-width="0.585333" stroke-miterlimit="10"/>
<path d="M306.787 151.944L317.234 171.75" stroke="#263238" stroke-width="0.585333" stroke-miterlimit="10"/>
<path d="M312.96 151.944L323.408 171.75" stroke="#263238" stroke-width="0.585333" stroke-miterlimit="10"/>
<path d="M319.134 151.944L329.581 171.75" stroke="#263238" stroke-width="0.585333" stroke-miterlimit="10"/>
<path d="M325.307 151.944L335.754 171.75" stroke="#263238" stroke-width="0.585333" stroke-miterlimit="10"/>
<path d="M333.063 155.974H303.842" stroke="#263238" stroke-width="0.585333" stroke-miterlimit="10"/>
<path d="M335.532 160.912H306.312" stroke="#263238" stroke-width="0.585333" stroke-miterlimit="10"/>
<path d="M338.002 165.851H308.781" stroke="#263238" stroke-width="0.585333" stroke-miterlimit="10"/>
<path d="M205.41 251.087H209.339V229.611H205.41V251.087Z" fill="#263238" stroke="#263238" stroke-width="0.585333" stroke-miterlimit="10"/>
<path d="M247.314 251.087H251.243V229.611H247.314V251.087Z" fill="#263238" stroke="#263238" stroke-width="0.585333" stroke-miterlimit="10"/>
<path d="M195.981 210.977H250.433L269.832 247.752H215.38L195.981 210.977Z" fill="white" stroke="#263238" stroke-width="0.585333" stroke-miterlimit="10"/>
<path d="M199.924 212.94H248.562L265.889 245.789H217.251L199.924 212.94Z" fill="#388500" stroke="#263238" stroke-width="0.585333" stroke-miterlimit="10"/>
<path d="M208.57 212.94L225.897 245.789" stroke="#263238" stroke-width="0.585333" stroke-miterlimit="10"/>
<path d="M218.809 212.94L236.136 245.789" stroke="#263238" stroke-width="0.585333" stroke-miterlimit="10"/>
<path d="M229.048 212.94L246.375 245.789" stroke="#263238" stroke-width="0.585333" stroke-miterlimit="10"/>
<path d="M239.286 212.94L256.614 245.789" stroke="#263238" stroke-width="0.585333" stroke-miterlimit="10"/>
<path d="M252.15 219.623H203.687" stroke="#263238" stroke-width="0.585333" stroke-miterlimit="10"/>
<path d="M256.246 227.814H207.781" stroke="#263238" stroke-width="0.585333" stroke-miterlimit="10"/>
<path d="M260.342 236.005H211.878" stroke="#263238" stroke-width="0.585333" stroke-miterlimit="10"/>
<path d="M372.747 227.828H362.635V245.332H372.747V227.828Z" fill="#263238" stroke="#263238" stroke-width="0.585333" stroke-miterlimit="10"/>
<path d="M357.658 232.723H353.656C351.717 232.723 350.146 236.893 350.146 242.037C350.146 247.181 351.717 251.351 353.656 251.351H357.658C359.597 251.351 361.168 247.181 361.168 242.037C361.168 236.893 359.597 232.723 357.658 232.723Z" fill="#263238" stroke="#263238" stroke-width="0.585333" stroke-miterlimit="10"/>
<path d="M361.621 231.445C359.325 231.445 357.464 235.901 357.464 241.398C357.464 246.894 359.325 251.35 361.621 251.35H366.361V231.445H361.621Z" fill="#263238" stroke="#263238" stroke-width="0.585333" stroke-miterlimit="10"/>
<path d="M366.361 251.35C368.657 251.35 370.519 246.894 370.519 241.398C370.519 235.901 368.657 231.445 366.361 231.445C364.065 231.445 362.204 235.901 362.204 241.398C362.204 246.894 364.065 251.35 366.361 251.35Z" fill="#707070" stroke="#263238" stroke-width="0.585333" stroke-miterlimit="10"/>
<path d="M366.361 248.294C367.953 248.294 369.242 245.207 369.242 241.399C369.242 237.59 367.953 234.503 366.361 234.503C364.77 234.503 363.48 237.59 363.48 241.399C363.48 245.207 364.77 248.294 366.361 248.294Z" fill="white" stroke="#263238" stroke-width="0.585333" stroke-miterlimit="10"/>
<path d="M398.732 243.157C399.774 241.594 400.308 240.088 400.58 238.837V234.236C399.787 231.243 397.033 229.017 395.206 227.827H390.469V245.332H398.195C398.125 244.59 398.268 243.853 398.732 243.157Z" fill="#263238" stroke="#263238" stroke-width="0.585333" stroke-miterlimit="10"/>
<path d="M392.241 232.723C390.302 232.723 388.73 236.893 388.73 242.037C388.73 247.181 390.302 251.351 392.241 251.351H396.243V232.724H392.241V232.723Z" fill="#263238" stroke="#263238" stroke-width="0.585333" stroke-miterlimit="10"/>
<path d="M396.243 251.35C398.181 251.35 399.753 247.18 399.753 242.037C399.753 236.893 398.181 232.723 396.243 232.723C394.304 232.723 392.732 236.893 392.732 242.037C392.732 247.18 394.304 251.35 396.243 251.35Z" fill="#707070" stroke="#263238" stroke-width="0.585333" stroke-miterlimit="10"/>
<path d="M396.243 248.49C397.586 248.49 398.675 245.601 398.675 242.037C398.675 238.473 397.586 235.583 396.243 235.583C394.899 235.583 393.81 238.473 393.81 242.037C393.81 245.601 394.899 248.49 396.243 248.49Z" fill="white" stroke="#263238" stroke-width="0.585333" stroke-miterlimit="10"/>
<path d="M323.952 231.445H319.212C316.915 231.445 315.054 235.901 315.054 241.398C315.054 246.894 316.915 251.35 319.212 251.35H323.952C326.248 251.35 328.109 246.894 328.109 241.398C328.109 235.901 326.248 231.445 323.952 231.445Z" fill="#263238" stroke="#263238" stroke-width="0.585333" stroke-miterlimit="10"/>
<path d="M399.601 229.543C398.426 226.47 398.155 224.481 396.437 222.403C394.72 220.324 394.087 219.42 394.087 219.42C394.087 219.42 390.563 212.551 389.206 211.376C387.851 210.2 381.885 208.122 377.185 207.218C372.484 206.314 357.751 205.591 345.639 207.76C345.639 207.76 340.939 208.212 336.51 210.924C332.081 213.636 325.482 219.692 323.765 220.595C322.048 221.499 321.144 220.686 319.246 222.855C317.348 225.025 315.811 227.556 315.811 227.556C315.811 227.556 312.828 230.99 312.467 232.798C312.105 234.607 312.015 236.776 312.196 238.493C312.377 240.211 313.823 245.001 314.546 245.905C315.269 246.809 316.913 247.092 318.449 246.911C319.986 246.731 326.929 246.448 334.521 246.267C342.114 246.086 348.17 246.538 349.617 246.719C351.063 246.9 355.221 246.99 356.577 246.809C357.932 246.628 358.565 246.809 359.831 245.272C361.096 243.736 361.367 242.29 361.457 241.476C361.548 240.662 362.542 230.72 365.887 229.364C369.231 228.008 370.768 232.889 371.4 236.052C372.033 239.216 370.587 244.458 370.225 245.001C369.863 245.543 370.135 245.724 370.948 245.815C371.762 245.905 390.743 245.815 390.743 245.815C390.743 245.815 392.189 244.73 392.46 243.013C392.731 241.295 394.539 233.612 396.076 232.076C397.612 230.539 399.601 231.534 400.143 234.426C400.449 236.058 400.352 237.604 400.112 238.853C400.014 239.361 399.893 239.818 399.765 240.214C399.761 240.571 399.758 240.955 399.756 241.358C400.204 240.925 400.854 239.817 400.957 238.132C401.138 235.147 400.776 232.616 399.601 229.543Z" fill="#388500" stroke="#263238" stroke-width="0.585333" stroke-miterlimit="10"/>
<path d="M370.405 208.392C370.405 208.392 366.7 214.629 365.524 216.165C364.35 217.702 361.276 218.967 354.497 219.69C347.718 220.413 336.239 220.956 332.713 220.504C329.189 220.052 327.742 219.51 327.742 219.51C327.742 219.51 334.25 212.549 337.324 210.561C340.397 208.573 363.988 207.217 370.405 208.392Z" fill="#C2C2C2" stroke="#263238" stroke-width="0.585333" stroke-miterlimit="10"/>
<path d="M378.179 208.664C378.179 208.664 374.654 207.941 372.756 209.477C370.858 211.014 367.061 218.968 367.152 219.872C367.243 220.776 367.243 220.957 369.321 221.047C371.4 221.137 382.698 220.776 385.41 219.782C388.122 218.787 389.116 218.154 389.568 216.528C390.02 214.901 389.478 212.55 388.845 212.099C388.212 211.647 378.179 208.664 378.179 208.664Z" fill="#8C8C8C" stroke="#263238" stroke-width="0.585333" stroke-miterlimit="10"/>
<path d="M382.066 209.839C381.496 209.664 380.949 209.498 380.456 209.349C380.845 210.095 382.117 213.092 382.165 220.397C382.624 220.342 383.056 220.283 383.454 220.221C383.403 214.627 382.649 211.459 382.066 209.839Z" fill="#263238"/>
<path d="M384.597 224.03C384.597 224.03 381.252 224.03 381.071 224.663C380.89 225.295 382.156 225.205 383.06 225.205C383.963 225.205 385.41 224.843 384.597 224.03Z" fill="#263238" stroke="#263238" stroke-width="0.585333" stroke-miterlimit="10"/>
<path d="M393.694 223.2C393.694 223.2 391.6 223.2 391.487 223.696C391.374 224.191 392.166 224.12 392.732 224.12C393.297 224.121 394.203 223.837 393.694 223.2Z" fill="#263238" stroke="#263238" stroke-width="0.585333" stroke-miterlimit="10"/>
<path d="M362.27 222.583C362.27 222.583 357.299 226.108 356.034 226.651C354.768 227.193 345.458 229.543 344.916 229.091C344.373 228.639 348.17 222.944 351.785 221.499C355.401 220.052 357.932 219.871 360.372 219.962C362.813 220.053 363.084 220.595 362.27 222.583Z" fill="white" stroke="#263238" stroke-width="0.585333" stroke-miterlimit="10"/>
<path d="M319.246 222.854C317.347 225.023 315.811 227.554 315.811 227.554C315.992 228.006 318.703 229.724 319.426 229.724C320.149 229.724 319.969 228.006 320.782 225.747C321.596 223.487 323.765 220.595 323.765 220.595C322.048 221.498 321.144 220.685 319.246 222.854Z" fill="white" stroke="#263238" stroke-width="0.585333" stroke-miterlimit="10"/>
<path d="M319.604 235.056C318.589 235.362 317.732 236.055 317.218 236.981C316.794 237.745 316.397 238.622 316.535 239.034C316.806 239.847 317.8 241.384 318.433 241.565C319.066 241.746 336.511 243.372 344.465 240.751C344.465 240.751 341.844 236.141 340.94 235.418C340.036 234.695 338.319 234.424 337.957 234.424C337.595 234.424 321.597 234.514 320.241 234.875C320.012 234.937 319.8 234.997 319.604 235.056Z" fill="#8C8C8C" stroke="#263238" stroke-width="0.585333" stroke-miterlimit="10"/>
<path d="M344.464 240.751C344.464 240.751 344.11 240.128 343.617 239.305H316.64C317.006 240.148 317.864 241.402 318.432 241.565C319.065 241.746 336.51 243.373 344.464 240.751Z" fill="#263238" stroke="#263238" stroke-width="0.585333" stroke-miterlimit="10"/>
<path d="M336.601 235.509H321.415V238.944H336.601V235.509Z" fill="white" stroke="#263238" stroke-width="0.585333" stroke-miterlimit="10"/>
<path d="M351.966 240.752C352.865 240.752 353.593 240.023 353.593 239.125C353.593 238.226 352.865 237.497 351.966 237.497C351.067 237.497 350.339 238.226 350.339 239.125C350.339 240.023 351.067 240.752 351.966 240.752Z" fill="white" stroke="#263238" stroke-width="0.585333" stroke-miterlimit="10"/>
<path d="M314.003 240.752C314.902 240.752 315.63 240.023 315.63 239.125C315.63 238.226 314.902 237.497 314.003 237.497C313.105 237.497 312.376 238.226 312.376 239.125C312.376 240.023 313.105 240.752 314.003 240.752Z" fill="white" stroke="#263238" stroke-width="0.585333" stroke-miterlimit="10"/>
<path d="M336.662 226.296C336.662 226.296 327.661 226.104 326.576 226.36C325.49 226.615 325.043 227.317 325.108 228.402C325.171 229.488 325.554 231.211 326.257 231.403C326.959 231.594 332.576 231.467 333.47 231.084C334.364 230.701 336.982 229.041 337.364 227.892C337.748 226.742 337.62 226.296 336.662 226.296Z" stroke="#263238" stroke-width="0.439" stroke-miterlimit="10"/>
<path d="M337.301 226.806L346.366 225.721" stroke="#263238" stroke-width="0.439" stroke-miterlimit="10"/>
<path d="M325.299 227.19L321.021 226.424" stroke="#263238" stroke-width="0.585333" stroke-miterlimit="10"/>
<path d="M355.043 244.329C355.043 244.329 356.106 243.493 355.954 241.14C355.802 238.786 355.195 231.726 356.789 229.068C358.125 226.843 362.39 224.351 366.595 223.422" stroke="#263238" stroke-width="0.439" stroke-miterlimit="10"/>
<path d="M372.505 242.659C372.505 242.659 388.98 242.127 389.967 241.823C390.953 241.52 391.713 240.684 392.32 239.09C392.928 237.496 393.839 232.258 394.446 230.891C395.054 229.524 395.433 229.221 395.433 229.221C395.433 229.221 395.964 224.666 394.598 221.932" stroke="#263238" stroke-width="0.439" stroke-miterlimit="10"/>
<path d="M385.259 225.956C385.259 225.956 387.385 235.522 383.969 242.127" stroke="#263238" stroke-width="0.439" stroke-miterlimit="10"/>
<path d="M371.366 223.602C371.366 223.602 374.099 230.359 372.808 237.723" stroke="#263238" stroke-width="0.439" stroke-miterlimit="10"/>
<path d="M346.464 244.936C345.629 244.936 344.187 245.012 342.82 244.328C341.453 243.645 321.714 244.252 320.727 244.252C319.945 244.252 315.972 245.205 314.354 245.6C314.422 245.722 314.487 245.829 314.546 245.903C315.269 246.807 316.913 247.09 318.449 246.909C319.986 246.728 326.929 246.446 334.522 246.265C342.114 246.084 348.17 246.536 349.617 246.717C351.063 246.898 355.221 246.988 356.577 246.807C357.933 246.626 358.565 246.807 359.831 245.27C358.316 244.847 347.299 244.936 346.464 244.936Z" fill="#263238" stroke="#263238" stroke-width="0.585333" stroke-miterlimit="10"/>
<path d="M395.533 230.406C396.121 230.406 396.597 229.267 396.597 227.862C396.597 226.457 396.121 225.318 395.533 225.318C394.944 225.318 394.468 226.457 394.468 227.862C394.468 229.267 394.944 230.406 395.533 230.406Z" fill="#263238" stroke="#263238" stroke-width="0.585333" stroke-miterlimit="10"/>
<path d="M412.974 211.623H406.411V250.685H412.974V211.623Z" fill="#263238" stroke="#263238" stroke-width="0.585333" stroke-miterlimit="10"/>
<path d="M415.222 208.906H404.103V228.98H415.222V208.906Z" fill="white" stroke="#263238" stroke-width="0.585333" stroke-miterlimit="10"/>
<path d="M395.533 227.862H398.743C400.499 227.862 401.922 229.286 401.922 231.042V248.83C401.922 250.222 403.051 251.35 404.442 251.35H417.927C419.283 251.35 420.381 250.251 420.381 248.896V222.364C420.381 220.924 419.214 219.756 417.774 219.756H414.938" stroke="#263238" stroke-width="1.17067" stroke-miterlimit="10"/>
<path d="M417.305 218.573H415.175V221.176H417.305V218.573Z" fill="#263238" stroke="#263238" stroke-width="0.585333" stroke-miterlimit="10"/>
<path d="M413.218 216.886C413.218 214.82 411.543 213.145 409.477 213.145C407.41 213.145 405.736 214.82 405.736 216.886C405.736 218.952 407.41 220.627 409.477 220.627C411.543 220.627 413.218 218.952 413.218 216.886Z" fill="#388500" stroke="#263238" stroke-width="0.585333" stroke-miterlimit="10"/>
<path d="M408.322 211.187L406.507 215.657H408.685L407.323 219.334H409.093L408.483 223.608L412.361 217.427H410.58L412.089 213.751H409.86L410.813 211.163L408.322 211.187Z" fill="white" stroke="#263238" stroke-width="0.585333" stroke-miterlimit="10"/>
<path d="M14.8059 251.351H434.022" stroke="#263238" stroke-width="0.585333" stroke-miterlimit="10"/>
</svg>
